G75*
%MOIN*%
%OFA0B0*%
%FSLAX24Y24*%
%IPPOS*%
%LPD*%
%AMOC8*
5,1,8,0,0,1.08239X$1,22.5*
%
%ADD10C,0.0000*%
%ADD11R,0.0700X0.1000*%
%ADD12C,0.3150*%
%ADD13C,0.0650*%
%ADD14R,0.0650X0.0650*%
%ADD15C,0.0740*%
%ADD16R,0.0300X0.0600*%
%ADD17C,0.0520*%
%ADD18R,0.0740X0.0740*%
%ADD19R,0.0217X0.0472*%
%ADD20R,0.0138X0.0551*%
%ADD21R,0.0709X0.0748*%
%ADD22R,0.0748X0.0748*%
%ADD23C,0.0570*%
%ADD24OC8,0.0850*%
%ADD25C,0.0520*%
%ADD26C,0.0120*%
%ADD27C,0.0360*%
%ADD28C,0.0160*%
D10*
X002380Y004080D02*
X004380Y002080D01*
X033250Y002080D01*
X033310Y002082D01*
X033371Y002087D01*
X033430Y002096D01*
X033489Y002109D01*
X033548Y002125D01*
X033605Y002145D01*
X033660Y002168D01*
X033715Y002195D01*
X033767Y002224D01*
X033818Y002257D01*
X033867Y002293D01*
X033913Y002331D01*
X033957Y002373D01*
X033999Y002417D01*
X034037Y002463D01*
X034073Y002512D01*
X034106Y002563D01*
X034135Y002615D01*
X034162Y002670D01*
X034185Y002725D01*
X034205Y002782D01*
X034221Y002841D01*
X034234Y002900D01*
X034243Y002959D01*
X034248Y003020D01*
X034250Y003080D01*
X034250Y018476D01*
X032250Y020476D01*
X003380Y020476D01*
X003320Y020474D01*
X003259Y020469D01*
X003200Y020460D01*
X003141Y020447D01*
X003082Y020431D01*
X003025Y020411D01*
X002970Y020388D01*
X002915Y020361D01*
X002863Y020332D01*
X002812Y020299D01*
X002763Y020263D01*
X002717Y020225D01*
X002673Y020183D01*
X002631Y020139D01*
X002593Y020093D01*
X002557Y020044D01*
X002524Y019993D01*
X002495Y019941D01*
X002468Y019886D01*
X002445Y019831D01*
X002425Y019774D01*
X002409Y019715D01*
X002396Y019656D01*
X002387Y019597D01*
X002382Y019536D01*
X002380Y019476D01*
X002380Y004080D01*
X003486Y018880D02*
X003488Y018919D01*
X003494Y018958D01*
X003504Y018996D01*
X003517Y019033D01*
X003534Y019068D01*
X003554Y019102D01*
X003578Y019133D01*
X003605Y019162D01*
X003634Y019188D01*
X003666Y019211D01*
X003700Y019231D01*
X003736Y019247D01*
X003773Y019259D01*
X003812Y019268D01*
X003851Y019273D01*
X003890Y019274D01*
X003929Y019271D01*
X003968Y019264D01*
X004005Y019253D01*
X004042Y019239D01*
X004077Y019221D01*
X004110Y019200D01*
X004141Y019175D01*
X004169Y019148D01*
X004194Y019118D01*
X004216Y019085D01*
X004235Y019051D01*
X004250Y019015D01*
X004262Y018977D01*
X004270Y018939D01*
X004274Y018900D01*
X004274Y018860D01*
X004270Y018821D01*
X004262Y018783D01*
X004250Y018745D01*
X004235Y018709D01*
X004216Y018675D01*
X004194Y018642D01*
X004169Y018612D01*
X004141Y018585D01*
X004110Y018560D01*
X004077Y018539D01*
X004042Y018521D01*
X004005Y018507D01*
X003968Y018496D01*
X003929Y018489D01*
X003890Y018486D01*
X003851Y018487D01*
X003812Y018492D01*
X003773Y018501D01*
X003736Y018513D01*
X003700Y018529D01*
X003666Y018549D01*
X003634Y018572D01*
X003605Y018598D01*
X003578Y018627D01*
X003554Y018658D01*
X003534Y018692D01*
X003517Y018727D01*
X003504Y018764D01*
X003494Y018802D01*
X003488Y018841D01*
X003486Y018880D01*
X023986Y018880D02*
X023988Y018919D01*
X023994Y018958D01*
X024004Y018996D01*
X024017Y019033D01*
X024034Y019068D01*
X024054Y019102D01*
X024078Y019133D01*
X024105Y019162D01*
X024134Y019188D01*
X024166Y019211D01*
X024200Y019231D01*
X024236Y019247D01*
X024273Y019259D01*
X024312Y019268D01*
X024351Y019273D01*
X024390Y019274D01*
X024429Y019271D01*
X024468Y019264D01*
X024505Y019253D01*
X024542Y019239D01*
X024577Y019221D01*
X024610Y019200D01*
X024641Y019175D01*
X024669Y019148D01*
X024694Y019118D01*
X024716Y019085D01*
X024735Y019051D01*
X024750Y019015D01*
X024762Y018977D01*
X024770Y018939D01*
X024774Y018900D01*
X024774Y018860D01*
X024770Y018821D01*
X024762Y018783D01*
X024750Y018745D01*
X024735Y018709D01*
X024716Y018675D01*
X024694Y018642D01*
X024669Y018612D01*
X024641Y018585D01*
X024610Y018560D01*
X024577Y018539D01*
X024542Y018521D01*
X024505Y018507D01*
X024468Y018496D01*
X024429Y018489D01*
X024390Y018486D01*
X024351Y018487D01*
X024312Y018492D01*
X024273Y018501D01*
X024236Y018513D01*
X024200Y018529D01*
X024166Y018549D01*
X024134Y018572D01*
X024105Y018598D01*
X024078Y018627D01*
X024054Y018658D01*
X024034Y018692D01*
X024017Y018727D01*
X024004Y018764D01*
X023994Y018802D01*
X023988Y018841D01*
X023986Y018880D01*
D11*
X024549Y015690D03*
X024549Y014470D03*
X033211Y014470D03*
X033211Y015690D03*
D12*
X029864Y015080D02*
X027896Y015080D01*
D13*
X028480Y010080D03*
X027180Y010080D03*
X027180Y009080D03*
X028480Y009080D03*
X028480Y007780D03*
X027180Y007780D03*
X027180Y006780D03*
X028480Y006780D03*
X030880Y008580D03*
X018880Y008080D03*
X018880Y009080D03*
X016880Y009080D03*
X016880Y008080D03*
X012880Y006580D03*
X012880Y005580D03*
X009080Y005180D03*
X009080Y006180D03*
D14*
X030880Y007580D03*
D15*
X025380Y009080D03*
X024380Y010080D03*
X023380Y010080D03*
X022380Y009080D03*
X022380Y005080D03*
X021880Y003080D03*
X020880Y003080D03*
X019880Y003080D03*
X018380Y003080D03*
X017380Y003080D03*
X016380Y003080D03*
X015380Y003080D03*
X014380Y003080D03*
X013380Y003080D03*
X011880Y003080D03*
X010880Y003080D03*
X009880Y003080D03*
X008880Y003080D03*
X007880Y003080D03*
X006880Y003080D03*
X005780Y005680D03*
X004780Y005680D03*
X004780Y006680D03*
X005780Y006680D03*
X005780Y007680D03*
X004780Y007680D03*
X008880Y007780D03*
X012880Y007780D03*
X022880Y003080D03*
X023880Y003080D03*
X024880Y003080D03*
X025380Y005080D03*
X022380Y016080D03*
X021380Y016080D03*
X019380Y016080D03*
X015380Y016080D03*
X013880Y016080D03*
X012880Y016080D03*
X011880Y016080D03*
X010880Y016080D03*
X009880Y016080D03*
X008880Y016080D03*
D16*
X010130Y006780D03*
X011630Y006780D03*
X011630Y004780D03*
X010130Y004780D03*
D17*
X016930Y006080D03*
X018830Y006080D03*
D18*
X005780Y008680D03*
X004780Y008680D03*
D19*
X023506Y007592D03*
X023880Y007592D03*
X024254Y007592D03*
X024254Y006568D03*
X023506Y006568D03*
D20*
X027768Y004223D03*
X028024Y004223D03*
X028280Y004223D03*
X028536Y004223D03*
X028792Y004223D03*
D21*
X029855Y003180D03*
X026705Y003180D03*
D22*
X027780Y003180D03*
X028780Y003180D03*
D23*
X033555Y004886D03*
X033555Y005674D03*
D24*
X006880Y013080D03*
X003880Y013080D03*
D25*
X008880Y013820D02*
X008880Y014340D01*
X009880Y014340D02*
X009880Y013820D01*
X010880Y013820D02*
X010880Y014340D01*
X011880Y014340D02*
X011880Y013820D01*
X012880Y013820D02*
X012880Y014340D01*
X013880Y014340D02*
X013880Y013820D01*
X014880Y013820D02*
X014880Y014340D01*
X015880Y014340D02*
X015880Y013820D01*
X016880Y013820D02*
X016880Y014340D01*
X017880Y014340D02*
X017880Y013820D01*
X018880Y013820D02*
X018880Y014340D01*
X019880Y014340D02*
X019880Y013820D01*
X020880Y013820D02*
X020880Y014340D01*
X021880Y014340D02*
X021880Y013820D01*
X021880Y011340D02*
X021880Y010820D01*
X020880Y010820D02*
X020880Y011340D01*
X019880Y011340D02*
X019880Y010820D01*
X018880Y010820D02*
X018880Y011340D01*
X017880Y011340D02*
X017880Y010820D01*
X016880Y010820D02*
X016880Y011340D01*
X015880Y011340D02*
X015880Y010820D01*
X014880Y010820D02*
X014880Y011340D01*
X013880Y011340D02*
X013880Y010820D01*
X012880Y010820D02*
X012880Y011340D01*
X011880Y011340D02*
X011880Y010820D01*
X010880Y010820D02*
X010880Y011340D01*
X009880Y011340D02*
X009880Y010820D01*
X008880Y010820D02*
X008880Y011340D01*
D26*
X008080Y011980D02*
X007630Y012430D01*
X006580Y011380D01*
X006580Y010480D01*
X004780Y008680D01*
X005780Y006680D02*
X005830Y006580D01*
X006430Y005980D01*
X006430Y005530D01*
X005980Y005080D01*
X004180Y005080D01*
X004180Y012130D01*
X008980Y016930D01*
X017380Y016930D01*
X017380Y013630D01*
X018430Y012580D01*
X018430Y014830D01*
X019030Y014830D01*
X019780Y014080D01*
X019880Y014080D01*
X018880Y014080D02*
X020380Y012580D01*
X020380Y003580D01*
X019880Y003080D01*
X020880Y003080D02*
X020980Y003130D01*
X021430Y003580D01*
X021430Y015130D01*
X018280Y015130D01*
X018130Y014980D01*
X018130Y014230D01*
X017980Y014080D01*
X017880Y014080D01*
X016930Y014080D02*
X016880Y014080D01*
X016930Y014080D02*
X016930Y015280D01*
X015580Y016630D01*
X014530Y016630D01*
X014530Y014680D01*
X014380Y014530D01*
X014380Y011530D01*
X014830Y011080D01*
X014880Y011080D01*
X014980Y011980D02*
X015880Y011080D01*
X015880Y009580D01*
X015430Y010030D02*
X015430Y003130D01*
X015380Y003080D01*
X015730Y003730D02*
X015730Y008830D01*
X015880Y008980D01*
X016880Y008080D02*
X016930Y008080D01*
X016930Y006080D01*
X016330Y007330D02*
X016180Y007330D01*
X016330Y007330D02*
X016330Y014680D01*
X016480Y014830D01*
X015280Y014380D02*
X015280Y016030D01*
X015380Y016080D01*
X013930Y016030D02*
X013880Y016080D01*
X013930Y016030D02*
X013930Y014080D01*
X013880Y014080D01*
X012880Y014080D02*
X012880Y016080D01*
X011980Y016030D02*
X011880Y016080D01*
X011980Y016030D02*
X011980Y014080D01*
X011880Y014080D01*
X010930Y014080D02*
X010880Y014080D01*
X010930Y014080D02*
X010930Y016030D01*
X010880Y016080D01*
X009880Y016080D02*
X009880Y014080D01*
X008980Y014080D02*
X008880Y014080D01*
X008980Y014080D02*
X008980Y016030D01*
X008880Y016080D01*
X008230Y013780D02*
X009880Y012130D01*
X013330Y012130D01*
X013330Y008080D01*
X013930Y007480D01*
X013930Y004180D01*
X013480Y003730D01*
X013480Y003130D01*
X013380Y003080D01*
X014380Y003080D02*
X014380Y004030D01*
X014980Y004630D01*
X016330Y004180D02*
X017380Y003130D01*
X017380Y003080D01*
X018280Y003130D02*
X018380Y003080D01*
X018280Y003130D02*
X018280Y009280D01*
X018430Y009430D01*
X018430Y012580D01*
X018880Y011080D02*
X019480Y010480D01*
X019480Y004480D01*
X018730Y003730D01*
X019780Y004180D02*
X019780Y011080D01*
X019880Y011080D01*
X020830Y011080D02*
X020880Y011080D01*
X020830Y011080D02*
X020830Y004780D01*
X022330Y004630D02*
X023880Y003080D01*
X023980Y003130D01*
X024580Y003730D01*
X028780Y003730D01*
X028780Y004180D01*
X028792Y004223D01*
X028780Y004330D01*
X029080Y004330D01*
X029080Y007180D01*
X028480Y007780D01*
X027880Y007780D01*
X027880Y010180D01*
X027280Y010180D01*
X027180Y010080D01*
X027130Y010180D01*
X026380Y010930D01*
X026380Y016630D01*
X027880Y016630D01*
X028480Y016030D01*
X028480Y015430D01*
X028780Y015130D01*
X028880Y015080D01*
X024549Y015690D02*
X024430Y015580D01*
X022780Y013930D01*
X022780Y010630D01*
X026230Y010630D01*
X026230Y006880D01*
X024730Y005380D01*
X024730Y004930D01*
X023980Y004180D01*
X023830Y003730D02*
X023530Y004030D01*
X023530Y006430D01*
X023506Y006568D01*
X024254Y006568D02*
X024280Y006580D01*
X024730Y007030D01*
X024730Y008230D01*
X024280Y007630D02*
X024254Y007592D01*
X024280Y007630D02*
X024280Y009130D01*
X023380Y010030D01*
X023380Y010080D01*
X022930Y009730D02*
X022780Y009880D01*
X022780Y010630D01*
X022930Y009730D02*
X022930Y008230D01*
X023530Y007630D01*
X023506Y007592D01*
X023830Y007480D02*
X023880Y007592D01*
X023830Y007480D02*
X023830Y007330D01*
X023530Y007030D01*
X022480Y007030D01*
X022480Y005080D01*
X022380Y005080D01*
X022330Y005080D01*
X022330Y004630D01*
X022330Y003580D01*
X021880Y003130D01*
X021880Y003080D01*
X023830Y003730D02*
X024130Y003730D01*
X024730Y004330D01*
X027730Y004330D01*
X027768Y004223D01*
X027730Y004330D02*
X027730Y005980D01*
X028480Y006730D01*
X028480Y006780D01*
X027180Y006780D02*
X027130Y006880D01*
X026680Y007330D01*
X026230Y006880D01*
X026680Y007330D02*
X026680Y008530D01*
X027130Y008980D01*
X027180Y009080D01*
X028480Y010080D02*
X028480Y010180D01*
X027880Y010180D01*
X025380Y009080D02*
X024380Y010080D01*
X027180Y007780D02*
X027880Y007780D01*
X025380Y005080D02*
X025330Y005080D01*
X025330Y004930D01*
X024730Y004330D01*
X029080Y004330D02*
X033580Y004330D01*
X033555Y004886D01*
X018880Y006130D02*
X018830Y006080D01*
X018880Y006130D02*
X018880Y008080D01*
X017830Y008680D02*
X017830Y011080D01*
X017880Y011080D01*
X017380Y010630D02*
X017380Y008530D01*
X016930Y008080D01*
X016330Y007330D02*
X016330Y004180D01*
X015730Y003730D02*
X016380Y003080D01*
X012280Y005380D02*
X012280Y005980D01*
X012880Y006580D01*
X012880Y007780D01*
X012880Y008380D01*
X011680Y009580D01*
X011230Y010480D02*
X011230Y004480D01*
X011380Y004330D01*
X011380Y003880D01*
X010930Y004180D02*
X010930Y011080D01*
X010880Y011080D01*
X011230Y010480D02*
X011830Y011080D01*
X011880Y011080D01*
X012130Y011830D02*
X010330Y011830D01*
X010330Y008680D01*
X009730Y008080D01*
X009730Y003280D01*
X009880Y003130D01*
X009880Y003080D01*
X010480Y003430D02*
X010780Y003130D01*
X010880Y003080D01*
X010480Y003430D02*
X010480Y004330D01*
X010630Y004480D01*
X010630Y008080D01*
X010480Y008230D01*
X008980Y007780D02*
X008880Y007780D01*
X008980Y007780D02*
X008980Y006280D01*
X009080Y006180D01*
X008980Y005230D02*
X008080Y006130D01*
X008080Y011980D01*
X007630Y011830D02*
X006880Y011080D01*
X006880Y003080D01*
X008980Y005230D02*
X009080Y005180D01*
X010180Y005380D02*
X010180Y004780D01*
X010130Y004780D01*
X011630Y004780D02*
X011680Y004780D01*
X012280Y005380D01*
X017380Y010630D02*
X016930Y011080D01*
X016880Y011080D01*
X014980Y011980D02*
X014980Y014080D01*
X014880Y014080D01*
X014980Y014080D02*
X015280Y014380D01*
X012130Y011830D02*
X012880Y011080D01*
X007630Y012430D02*
X006880Y013180D01*
X006880Y013080D01*
D27*
X008230Y013780D03*
X007630Y011830D03*
X011680Y009580D03*
X010480Y008230D03*
X010180Y005380D03*
X010930Y004180D03*
X011380Y003880D03*
X013930Y004180D03*
X014980Y004630D03*
X018730Y003730D03*
X019780Y004180D03*
X020830Y004780D03*
X023980Y004180D03*
X024730Y008230D03*
X017830Y008680D03*
X015880Y008980D03*
X015880Y009580D03*
X015430Y010030D03*
X016180Y007330D03*
X016480Y014830D03*
D28*
X016218Y015077D02*
X014770Y015077D01*
X014770Y014919D02*
X016127Y014919D01*
X016120Y014902D02*
X016120Y014800D01*
X016091Y014729D01*
X015968Y014780D01*
X015792Y014780D01*
X015631Y014713D01*
X015507Y014589D01*
X015440Y014428D01*
X015440Y013732D01*
X015507Y013571D01*
X015631Y013447D01*
X015792Y013380D01*
X015968Y013380D01*
X016090Y013431D01*
X016090Y011727D01*
X016049Y011748D01*
X015983Y011769D01*
X015915Y011780D01*
X015880Y011780D01*
X015880Y011080D01*
X015880Y011080D01*
X015880Y010380D01*
X015915Y010380D01*
X015983Y010391D01*
X016049Y010412D01*
X016090Y010433D01*
X016090Y009279D01*
X016084Y009285D01*
X015952Y009340D01*
X015808Y009340D01*
X015676Y009285D01*
X015670Y009279D01*
X015670Y009761D01*
X015735Y009826D01*
X015790Y009958D01*
X015790Y010102D01*
X015735Y010234D01*
X015634Y010335D01*
X015502Y010390D01*
X015358Y010390D01*
X015226Y010335D01*
X015125Y010234D01*
X015070Y010102D01*
X015070Y009958D01*
X015125Y009826D01*
X015190Y009761D01*
X015190Y004929D01*
X015184Y004935D01*
X015052Y004990D01*
X014908Y004990D01*
X014776Y004935D01*
X014675Y004834D01*
X014620Y004702D01*
X014620Y004609D01*
X014282Y004271D01*
X014235Y004384D01*
X014170Y004449D01*
X014170Y007528D01*
X014133Y007616D01*
X014066Y007683D01*
X013570Y008179D01*
X013570Y010508D01*
X013631Y010447D01*
X013792Y010380D01*
X013968Y010380D01*
X014129Y010447D01*
X014253Y010571D01*
X014320Y010732D01*
X014320Y011251D01*
X014440Y011131D01*
X014440Y010732D01*
X014507Y010571D01*
X014631Y010447D01*
X014792Y010380D01*
X014968Y010380D01*
X015129Y010447D01*
X015253Y010571D01*
X015320Y010732D01*
X015320Y011428D01*
X015253Y011589D01*
X015129Y011713D01*
X014968Y011780D01*
X014792Y011780D01*
X014631Y011713D01*
X014620Y011702D01*
X014620Y013465D01*
X014649Y013444D01*
X014711Y013412D01*
X014777Y013391D01*
X014845Y013380D01*
X014880Y013380D01*
X014915Y013380D01*
X014983Y013391D01*
X015049Y013412D01*
X015111Y013444D01*
X015167Y013484D01*
X015216Y013533D01*
X015256Y013589D01*
X015288Y013651D01*
X015309Y013717D01*
X015320Y013785D01*
X015320Y014080D01*
X015320Y014375D01*
X015309Y014443D01*
X015446Y014443D01*
X015309Y014443D02*
X015288Y014509D01*
X015256Y014571D01*
X015216Y014627D01*
X015167Y014676D01*
X015111Y014716D01*
X015049Y014748D01*
X014983Y014769D01*
X014915Y014780D01*
X014880Y014780D01*
X014880Y014080D01*
X014880Y014080D01*
X015320Y014080D01*
X014880Y014080D01*
X014880Y014080D01*
X014880Y014780D01*
X014845Y014780D01*
X014777Y014769D01*
X014770Y014767D01*
X014770Y016390D01*
X014925Y016390D01*
X014910Y016368D01*
X014870Y016291D01*
X014844Y016209D01*
X014830Y016123D01*
X014830Y016089D01*
X015371Y016089D01*
X015371Y016071D01*
X015389Y016071D01*
X015389Y015530D01*
X015423Y015530D01*
X015509Y015544D01*
X015591Y015570D01*
X015668Y015610D01*
X015738Y015660D01*
X015800Y015722D01*
X015850Y015792D01*
X015890Y015869D01*
X015916Y015951D01*
X015917Y015954D01*
X016690Y015181D01*
X016690Y015129D01*
X016684Y015135D01*
X016552Y015190D01*
X016408Y015190D01*
X016276Y015135D01*
X016175Y015034D01*
X016120Y014902D01*
X016103Y014760D02*
X016016Y014760D01*
X015744Y014760D02*
X015011Y014760D01*
X014880Y014760D02*
X014880Y014760D01*
X014880Y014602D02*
X014880Y014602D01*
X014880Y014443D02*
X014880Y014443D01*
X014880Y014285D02*
X014880Y014285D01*
X014880Y014126D02*
X014880Y014126D01*
X014880Y014080D02*
X014880Y013380D01*
X014880Y014080D01*
X014880Y014080D01*
X014880Y013968D02*
X014880Y013968D01*
X014880Y013809D02*
X014880Y013809D01*
X014880Y013651D02*
X014880Y013651D01*
X014880Y013492D02*
X014880Y013492D01*
X015174Y013492D02*
X015586Y013492D01*
X015474Y013651D02*
X015287Y013651D01*
X015320Y013809D02*
X015440Y013809D01*
X015440Y013968D02*
X015320Y013968D01*
X015320Y014126D02*
X015440Y014126D01*
X015440Y014285D02*
X015320Y014285D01*
X015234Y014602D02*
X015519Y014602D01*
X014770Y015236D02*
X016635Y015236D01*
X016477Y015394D02*
X014770Y015394D01*
X014770Y015553D02*
X015224Y015553D01*
X015251Y015544D02*
X015337Y015530D01*
X015371Y015530D01*
X015371Y016071D01*
X014830Y016071D01*
X014830Y016037D01*
X014844Y015951D01*
X014870Y015869D01*
X014910Y015792D01*
X014960Y015722D01*
X015022Y015660D01*
X015092Y015610D01*
X015169Y015570D01*
X015251Y015544D01*
X015371Y015553D02*
X015389Y015553D01*
X015536Y015553D02*
X016318Y015553D01*
X016160Y015711D02*
X015789Y015711D01*
X015890Y015870D02*
X016001Y015870D01*
X015389Y015870D02*
X015371Y015870D01*
X015371Y016028D02*
X015389Y016028D01*
X015371Y015711D02*
X015389Y015711D01*
X014971Y015711D02*
X014770Y015711D01*
X014770Y015870D02*
X014870Y015870D01*
X014831Y016028D02*
X014770Y016028D01*
X014770Y016187D02*
X014840Y016187D01*
X014898Y016345D02*
X014770Y016345D01*
X017428Y017170D02*
X008932Y017170D01*
X008844Y017133D01*
X003977Y012266D01*
X003940Y012178D01*
X003940Y005032D01*
X003977Y004944D01*
X004044Y004877D01*
X004132Y004840D01*
X006028Y004840D01*
X006116Y004877D01*
X006183Y004944D01*
X006633Y005394D01*
X006640Y005410D01*
X006640Y003576D01*
X006568Y003546D01*
X006414Y003392D01*
X006330Y003189D01*
X006330Y002971D01*
X006414Y002768D01*
X006568Y002614D01*
X006698Y002560D01*
X004579Y002560D01*
X002860Y004279D01*
X002860Y019476D01*
X002864Y019544D01*
X002900Y019675D01*
X002967Y019793D01*
X003063Y019889D01*
X003181Y019956D01*
X003312Y019992D01*
X003380Y019996D01*
X032051Y019996D01*
X033770Y018277D01*
X033770Y006088D01*
X033647Y006139D01*
X033463Y006139D01*
X033292Y006068D01*
X033161Y005937D01*
X033090Y005766D01*
X033090Y005581D01*
X033161Y005410D01*
X033292Y005279D01*
X033300Y005276D01*
X033252Y005241D01*
X033200Y005189D01*
X033157Y005130D01*
X033124Y005065D01*
X033101Y004995D01*
X033090Y004923D01*
X033090Y004886D01*
X033090Y004850D01*
X033101Y004777D01*
X033124Y004708D01*
X033157Y004643D01*
X033200Y004583D01*
X033252Y004532D01*
X033311Y004489D01*
X033377Y004455D01*
X033446Y004433D01*
X033518Y004421D01*
X033555Y004421D01*
X033592Y004421D01*
X033664Y004433D01*
X033733Y004455D01*
X033770Y004474D01*
X033770Y003080D01*
X033766Y003012D01*
X033730Y002881D01*
X033663Y002763D01*
X033567Y002667D01*
X033449Y002600D01*
X033318Y002564D01*
X033250Y002560D01*
X025062Y002560D01*
X025192Y002614D01*
X025346Y002768D01*
X025430Y002971D01*
X025430Y003189D01*
X025346Y003392D01*
X025192Y003546D01*
X024989Y003630D01*
X024771Y003630D01*
X024568Y003546D01*
X024414Y003392D01*
X024380Y003310D01*
X024350Y003368D01*
X024300Y003438D01*
X024238Y003500D01*
X024225Y003509D01*
X024266Y003527D01*
X024829Y004090D01*
X027519Y004090D01*
X027519Y003873D01*
X027625Y003768D01*
X028679Y003768D01*
X028684Y003772D01*
X028699Y003768D01*
X028792Y003768D01*
X028884Y003768D01*
X028930Y003780D01*
X028971Y003804D01*
X029005Y003837D01*
X029028Y003878D01*
X029041Y003924D01*
X029041Y004223D01*
X028792Y004223D01*
X028792Y003768D01*
X028792Y004223D01*
X028792Y004223D01*
X028792Y004223D01*
X029041Y004223D01*
X029041Y004523D01*
X029028Y004568D01*
X029005Y004609D01*
X028971Y004643D01*
X028930Y004667D01*
X028884Y004679D01*
X028792Y004679D01*
X028792Y004223D01*
X028792Y004223D01*
X028792Y004679D01*
X028699Y004679D01*
X028684Y004675D01*
X028679Y004679D01*
X027970Y004679D01*
X027970Y005881D01*
X028369Y006279D01*
X028380Y006275D01*
X028580Y006275D01*
X028766Y006352D01*
X028908Y006494D01*
X028985Y006680D01*
X028985Y006880D01*
X028908Y007066D01*
X028766Y007208D01*
X028581Y007285D01*
X028598Y007287D01*
X028674Y007312D01*
X028745Y007348D01*
X028809Y007395D01*
X028865Y007451D01*
X028912Y007515D01*
X028948Y007586D01*
X028973Y007662D01*
X028985Y007740D01*
X028985Y007780D01*
X028985Y007820D01*
X028973Y007898D01*
X028948Y007974D01*
X028912Y008045D01*
X028865Y008109D01*
X028809Y008165D01*
X028745Y008212D01*
X028674Y008248D01*
X028598Y008273D01*
X028520Y008285D01*
X028480Y008285D01*
X028480Y007780D01*
X028480Y007780D01*
X028985Y007780D01*
X028480Y007780D01*
X028480Y007780D01*
X028480Y007780D01*
X027975Y007780D01*
X027975Y007820D01*
X027987Y007898D01*
X028012Y007974D01*
X028048Y008045D01*
X028095Y008109D01*
X028151Y008165D01*
X028215Y008212D01*
X028286Y008248D01*
X028362Y008273D01*
X028440Y008285D01*
X028480Y008285D01*
X028480Y007780D01*
X027975Y007780D01*
X027975Y007740D01*
X027987Y007662D01*
X028012Y007586D01*
X028048Y007515D01*
X028095Y007451D01*
X028151Y007395D01*
X028215Y007348D01*
X028286Y007312D01*
X028362Y007287D01*
X028379Y007285D01*
X028194Y007208D01*
X028052Y007066D01*
X027975Y006880D01*
X027975Y006680D01*
X028009Y006598D01*
X027594Y006183D01*
X027527Y006116D01*
X027490Y006028D01*
X027490Y004570D01*
X025586Y004570D01*
X025692Y004614D01*
X025846Y004768D01*
X025930Y004971D01*
X025930Y005189D01*
X025846Y005392D01*
X025692Y005546D01*
X025489Y005630D01*
X025319Y005630D01*
X026366Y006677D01*
X026433Y006744D01*
X026680Y006991D01*
X026709Y006962D01*
X026675Y006880D01*
X026675Y006680D01*
X026752Y006494D01*
X026894Y006352D01*
X027080Y006275D01*
X027280Y006275D01*
X027466Y006352D01*
X027608Y006494D01*
X027685Y006680D01*
X027685Y006880D01*
X027608Y007066D01*
X027466Y007208D01*
X027281Y007285D01*
X027298Y007287D01*
X027374Y007312D01*
X027445Y007348D01*
X027509Y007395D01*
X027565Y007451D01*
X027612Y007515D01*
X027648Y007586D01*
X027673Y007662D01*
X027685Y007740D01*
X027685Y007780D01*
X027685Y007820D01*
X027673Y007898D01*
X027648Y007974D01*
X027612Y008045D01*
X027565Y008109D01*
X027509Y008165D01*
X027445Y008212D01*
X027374Y008248D01*
X027298Y008273D01*
X027220Y008285D01*
X027180Y008285D01*
X027180Y007780D01*
X027180Y007780D01*
X027685Y007780D01*
X027180Y007780D01*
X027180Y007780D01*
X027180Y008285D01*
X027140Y008285D01*
X027062Y008273D01*
X026986Y008248D01*
X026920Y008214D01*
X026920Y008431D01*
X027069Y008579D01*
X027080Y008575D01*
X027280Y008575D01*
X027466Y008652D01*
X027608Y008794D01*
X027685Y008980D01*
X027685Y009180D01*
X027608Y009366D01*
X027466Y009508D01*
X027281Y009585D01*
X027298Y009587D01*
X027374Y009612D01*
X027445Y009648D01*
X027509Y009695D01*
X027565Y009751D01*
X027612Y009815D01*
X027648Y009886D01*
X027673Y009962D01*
X027685Y010040D01*
X027685Y010080D01*
X027685Y010120D01*
X027673Y010198D01*
X027648Y010274D01*
X027612Y010345D01*
X027565Y010409D01*
X027509Y010465D01*
X027445Y010512D01*
X027374Y010548D01*
X027298Y010573D01*
X027220Y010585D01*
X027180Y010585D01*
X027180Y010080D01*
X027180Y010080D01*
X027685Y010080D01*
X027180Y010080D01*
X027180Y010080D01*
X027180Y010080D01*
X026675Y010080D01*
X026675Y010120D01*
X026687Y010198D01*
X026712Y010274D01*
X026748Y010345D01*
X026795Y010409D01*
X026851Y010465D01*
X026915Y010512D01*
X026986Y010548D01*
X027062Y010573D01*
X027140Y010585D01*
X027180Y010585D01*
X027180Y010080D01*
X026675Y010080D01*
X026675Y010040D01*
X026687Y009962D01*
X026712Y009886D01*
X026748Y009815D01*
X026795Y009751D01*
X026851Y009695D01*
X026915Y009648D01*
X026986Y009612D01*
X027062Y009587D01*
X027079Y009585D01*
X026894Y009508D01*
X026752Y009366D01*
X026675Y009180D01*
X026675Y008980D01*
X026709Y008898D01*
X026477Y008666D01*
X026470Y008650D01*
X026470Y010678D01*
X026433Y010766D01*
X026366Y010833D01*
X026278Y010870D01*
X023020Y010870D01*
X023020Y013831D01*
X024019Y014830D01*
X024019Y013895D01*
X024125Y013790D01*
X024974Y013790D01*
X025079Y013895D01*
X025079Y015044D01*
X025044Y015080D01*
X025079Y015116D01*
X025079Y016265D01*
X024974Y016370D01*
X024125Y016370D01*
X024019Y016265D01*
X024019Y015509D01*
X022644Y014133D01*
X022577Y014066D01*
X022540Y013978D01*
X022540Y009832D01*
X022577Y009744D01*
X022690Y009631D01*
X022690Y009547D01*
X022489Y009630D01*
X022271Y009630D01*
X022068Y009546D01*
X021914Y009392D01*
X021830Y009189D01*
X021830Y008971D01*
X021914Y008768D01*
X022068Y008614D01*
X022271Y008530D01*
X022489Y008530D01*
X022690Y008613D01*
X022690Y008182D01*
X022727Y008094D01*
X022794Y008027D01*
X023218Y007603D01*
X023218Y007281D01*
X023323Y007176D01*
X023689Y007176D01*
X023702Y007188D01*
X023748Y007176D01*
X023880Y007176D01*
X024012Y007176D01*
X024058Y007188D01*
X024058Y007188D01*
X024071Y007176D01*
X024437Y007176D01*
X024490Y007229D01*
X024490Y007129D01*
X024345Y006984D01*
X024071Y006984D01*
X023966Y006879D01*
X023966Y006257D01*
X024071Y006152D01*
X024437Y006152D01*
X024542Y006257D01*
X024542Y006503D01*
X024866Y006827D01*
X024933Y006894D01*
X024970Y006982D01*
X024970Y007961D01*
X025035Y008026D01*
X025090Y008158D01*
X025090Y008302D01*
X025035Y008434D01*
X024934Y008535D01*
X024802Y008590D01*
X024658Y008590D01*
X024526Y008535D01*
X024520Y008529D01*
X024520Y009178D01*
X024483Y009266D01*
X024183Y009566D01*
X024271Y009530D01*
X024489Y009530D01*
X024561Y009560D01*
X024860Y009261D01*
X024830Y009189D01*
X024830Y008971D01*
X024914Y008768D01*
X025068Y008614D01*
X025271Y008530D01*
X025489Y008530D01*
X025692Y008614D01*
X025846Y008768D01*
X025930Y008971D01*
X025930Y009189D01*
X025846Y009392D01*
X025692Y009546D01*
X025489Y009630D01*
X025271Y009630D01*
X025199Y009600D01*
X024900Y009899D01*
X024930Y009971D01*
X024930Y010189D01*
X024847Y010390D01*
X025990Y010390D01*
X025990Y006979D01*
X024527Y005516D01*
X024490Y005428D01*
X024490Y005029D01*
X024001Y004540D01*
X023908Y004540D01*
X023776Y004485D01*
X023770Y004479D01*
X023770Y006233D01*
X023794Y006257D01*
X023794Y006879D01*
X023689Y006984D01*
X023323Y006984D01*
X023218Y006879D01*
X023218Y006257D01*
X023290Y006185D01*
X023290Y003982D01*
X021670Y003982D01*
X021670Y003824D02*
X023397Y003824D01*
X023327Y003894D02*
X023627Y003594D01*
X023644Y003577D01*
X023592Y003550D01*
X023522Y003500D01*
X023460Y003438D01*
X023410Y003368D01*
X023380Y003310D01*
X023346Y003392D01*
X023192Y003546D01*
X022989Y003630D01*
X022771Y003630D01*
X022568Y003546D01*
X022414Y003392D01*
X022380Y003310D01*
X022350Y003368D01*
X022300Y003438D01*
X022238Y003500D01*
X022168Y003550D01*
X022091Y003590D01*
X022009Y003616D01*
X021923Y003630D01*
X021900Y003630D01*
X021900Y003100D01*
X021860Y003100D01*
X021860Y003630D01*
X021837Y003630D01*
X021751Y003616D01*
X021670Y003590D01*
X021670Y010431D01*
X021792Y010380D01*
X021968Y010380D01*
X022129Y010447D01*
X022253Y010571D01*
X022320Y010732D01*
X022320Y011428D01*
X022253Y011589D01*
X022129Y011713D01*
X021968Y011780D01*
X021792Y011780D01*
X021670Y011729D01*
X021670Y013431D01*
X021792Y013380D01*
X021968Y013380D01*
X022129Y013447D01*
X022253Y013571D01*
X022320Y013732D01*
X022320Y014428D01*
X022253Y014589D01*
X022129Y014713D01*
X021968Y014780D01*
X021792Y014780D01*
X021670Y014729D01*
X021670Y015178D01*
X021633Y015266D01*
X021566Y015333D01*
X021478Y015370D01*
X018232Y015370D01*
X018144Y015333D01*
X018077Y015266D01*
X017927Y015116D01*
X017890Y015028D01*
X017890Y014780D01*
X017792Y014780D01*
X017631Y014713D01*
X017620Y014702D01*
X017620Y016978D01*
X017583Y017066D01*
X017516Y017133D01*
X017428Y017170D01*
X017506Y017138D02*
X033770Y017138D01*
X033770Y017296D02*
X002860Y017296D01*
X002860Y017138D02*
X008854Y017138D01*
X008690Y016979D02*
X002860Y016979D01*
X002860Y016821D02*
X008531Y016821D01*
X008373Y016662D02*
X002860Y016662D01*
X002860Y016504D02*
X008214Y016504D01*
X008056Y016345D02*
X002860Y016345D01*
X002860Y016187D02*
X007897Y016187D01*
X007739Y016028D02*
X002860Y016028D01*
X002860Y015870D02*
X007580Y015870D01*
X007422Y015711D02*
X002860Y015711D01*
X002860Y015553D02*
X007263Y015553D01*
X007105Y015394D02*
X002860Y015394D01*
X002860Y015236D02*
X006946Y015236D01*
X006788Y015077D02*
X002860Y015077D01*
X002860Y014919D02*
X006629Y014919D01*
X006471Y014760D02*
X002860Y014760D01*
X002860Y014602D02*
X006312Y014602D01*
X006154Y014443D02*
X002860Y014443D01*
X002860Y014285D02*
X005995Y014285D01*
X005837Y014126D02*
X002860Y014126D01*
X002860Y013968D02*
X005678Y013968D01*
X005520Y013809D02*
X002860Y013809D01*
X002860Y013651D02*
X003595Y013651D01*
X003629Y013685D02*
X003275Y013331D01*
X003275Y012829D01*
X003629Y012475D01*
X004131Y012475D01*
X004485Y012829D01*
X004485Y013331D01*
X004131Y013685D01*
X003629Y013685D01*
X003436Y013492D02*
X002860Y013492D01*
X002860Y013334D02*
X003278Y013334D01*
X003275Y013175D02*
X002860Y013175D01*
X002860Y013017D02*
X003275Y013017D01*
X003275Y012858D02*
X002860Y012858D01*
X002860Y012700D02*
X003405Y012700D01*
X003563Y012541D02*
X002860Y012541D01*
X002860Y012383D02*
X004093Y012383D01*
X004197Y012541D02*
X004252Y012541D01*
X004355Y012700D02*
X004410Y012700D01*
X004485Y012858D02*
X004569Y012858D01*
X004485Y013017D02*
X004727Y013017D01*
X004886Y013175D02*
X004485Y013175D01*
X004482Y013334D02*
X005044Y013334D01*
X005203Y013492D02*
X004324Y013492D01*
X004165Y013651D02*
X005361Y013651D01*
X005723Y013334D02*
X006278Y013334D01*
X006275Y013331D02*
X006275Y013100D01*
X006860Y013100D01*
X006860Y013685D01*
X006629Y013685D01*
X006275Y013331D01*
X006275Y013175D02*
X005564Y013175D01*
X005406Y013017D02*
X006275Y013017D01*
X006275Y013060D02*
X006275Y012829D01*
X006629Y012475D01*
X006860Y012475D01*
X006860Y013060D01*
X006900Y013060D01*
X006900Y013100D01*
X007485Y013100D01*
X007485Y013331D01*
X007131Y013685D01*
X006900Y013685D01*
X006900Y013100D01*
X006860Y013100D01*
X006860Y013060D01*
X006275Y013060D01*
X006275Y012858D02*
X005247Y012858D01*
X005089Y012700D02*
X006405Y012700D01*
X006563Y012541D02*
X004930Y012541D01*
X004772Y012383D02*
X009288Y012383D01*
X009130Y012541D02*
X007197Y012541D01*
X007131Y012475D02*
X007485Y012829D01*
X007485Y013060D01*
X006900Y013060D01*
X006900Y012475D01*
X007131Y012475D01*
X006900Y012541D02*
X006860Y012541D01*
X006860Y012700D02*
X006900Y012700D01*
X006900Y012858D02*
X006860Y012858D01*
X006860Y013017D02*
X006900Y013017D01*
X006900Y013175D02*
X006860Y013175D01*
X006860Y013334D02*
X006900Y013334D01*
X006900Y013492D02*
X006860Y013492D01*
X006860Y013651D02*
X006900Y013651D01*
X007165Y013651D02*
X007894Y013651D01*
X007870Y013708D02*
X007925Y013576D01*
X008026Y013475D01*
X008158Y013420D01*
X008251Y013420D01*
X009677Y011994D01*
X009744Y011927D01*
X009832Y011890D01*
X010095Y011890D01*
X010090Y011878D01*
X010090Y011729D01*
X009968Y011780D01*
X009792Y011780D01*
X009631Y011713D01*
X009507Y011589D01*
X009440Y011428D01*
X009440Y010732D01*
X009507Y010571D01*
X009631Y010447D01*
X009792Y010380D01*
X009968Y010380D01*
X010090Y010431D01*
X010090Y008779D01*
X009594Y008283D01*
X009527Y008216D01*
X009490Y008128D01*
X009490Y006484D01*
X009366Y006608D01*
X009220Y006669D01*
X009220Y007342D01*
X009346Y007468D01*
X009430Y007671D01*
X009430Y007889D01*
X009346Y008092D01*
X009192Y008246D01*
X008989Y008330D01*
X008771Y008330D01*
X008568Y008246D01*
X008414Y008092D01*
X008330Y007889D01*
X008330Y007671D01*
X008414Y007468D01*
X008568Y007314D01*
X008740Y007243D01*
X008740Y006554D01*
X008652Y006466D01*
X008575Y006280D01*
X008575Y006080D01*
X008652Y005894D01*
X008794Y005752D01*
X008979Y005675D01*
X008962Y005673D01*
X008886Y005648D01*
X008815Y005612D01*
X008751Y005565D01*
X008695Y005509D01*
X008648Y005445D01*
X008612Y005374D01*
X008587Y005298D01*
X008575Y005220D01*
X008575Y005180D01*
X009080Y005180D01*
X009080Y004675D01*
X009120Y004675D01*
X009198Y004687D01*
X009274Y004712D01*
X009345Y004748D01*
X009409Y004795D01*
X009465Y004851D01*
X009490Y004885D01*
X009490Y003468D01*
X009414Y003392D01*
X009380Y003310D01*
X009346Y003392D01*
X009192Y003546D01*
X008989Y003630D01*
X008771Y003630D01*
X008568Y003546D01*
X008414Y003392D01*
X008380Y003310D01*
X008346Y003392D01*
X008192Y003546D01*
X007989Y003630D01*
X007771Y003630D01*
X007568Y003546D01*
X007414Y003392D01*
X007380Y003310D01*
X007346Y003392D01*
X007192Y003546D01*
X007120Y003576D01*
X007120Y010981D01*
X007609Y011470D01*
X007702Y011470D01*
X007834Y011525D01*
X007935Y011626D01*
X007990Y011758D01*
X007990Y011902D01*
X007935Y012034D01*
X007834Y012135D01*
X007702Y012190D01*
X007558Y012190D01*
X007426Y012135D01*
X007325Y012034D01*
X007270Y011902D01*
X007270Y011809D01*
X006744Y011283D01*
X006677Y011216D01*
X006640Y011128D01*
X006640Y006100D01*
X006633Y006116D01*
X006566Y006183D01*
X006286Y006464D01*
X006330Y006571D01*
X006330Y006789D01*
X006246Y006992D01*
X006092Y007146D01*
X006010Y007180D01*
X006092Y007214D01*
X006246Y007368D01*
X006330Y007571D01*
X006330Y007789D01*
X006246Y007992D01*
X006108Y008130D01*
X006225Y008130D01*
X006330Y008235D01*
X006330Y009125D01*
X006225Y009230D01*
X005335Y009230D01*
X005280Y009175D01*
X005261Y009194D01*
X005219Y009218D01*
X005174Y009230D01*
X004800Y009230D01*
X004800Y008700D01*
X004760Y008700D01*
X004760Y009230D01*
X004420Y009230D01*
X004420Y012031D01*
X008339Y015949D01*
X008414Y015768D01*
X008568Y015614D01*
X008740Y015543D01*
X008740Y014758D01*
X008631Y014713D01*
X008507Y014589D01*
X008440Y014428D01*
X008440Y014079D01*
X008434Y014085D01*
X008302Y014140D01*
X008158Y014140D01*
X008026Y014085D01*
X007925Y013984D01*
X007870Y013852D01*
X007870Y013708D01*
X007870Y013809D02*
X006198Y013809D01*
X006040Y013651D02*
X006595Y013651D01*
X006436Y013492D02*
X005881Y013492D01*
X006357Y013968D02*
X007918Y013968D01*
X008125Y014126D02*
X006515Y014126D01*
X006674Y014285D02*
X008440Y014285D01*
X008446Y014443D02*
X006832Y014443D01*
X006991Y014602D02*
X008519Y014602D01*
X008740Y014760D02*
X007149Y014760D01*
X007308Y014919D02*
X008740Y014919D01*
X008740Y015077D02*
X007466Y015077D01*
X007625Y015236D02*
X008740Y015236D01*
X008740Y015394D02*
X007783Y015394D01*
X007942Y015553D02*
X008716Y015553D01*
X008471Y015711D02*
X008100Y015711D01*
X008259Y015870D02*
X008372Y015870D01*
X008335Y014126D02*
X008440Y014126D01*
X008009Y013492D02*
X007324Y013492D01*
X007482Y013334D02*
X008337Y013334D01*
X008496Y013175D02*
X007485Y013175D01*
X007485Y013017D02*
X008654Y013017D01*
X008813Y012858D02*
X007485Y012858D01*
X007355Y012700D02*
X008971Y012700D01*
X009447Y012224D02*
X004613Y012224D01*
X004455Y012066D02*
X007356Y012066D01*
X007272Y011907D02*
X004420Y011907D01*
X004420Y011749D02*
X007209Y011749D01*
X007051Y011590D02*
X004420Y011590D01*
X004420Y011432D02*
X006892Y011432D01*
X006734Y011273D02*
X004420Y011273D01*
X004420Y011115D02*
X006640Y011115D01*
X006640Y010956D02*
X004420Y010956D01*
X004420Y010798D02*
X006640Y010798D01*
X006640Y010639D02*
X004420Y010639D01*
X004420Y010481D02*
X006640Y010481D01*
X006640Y010322D02*
X004420Y010322D01*
X004420Y010164D02*
X006640Y010164D01*
X006640Y010005D02*
X004420Y010005D01*
X004420Y009847D02*
X006640Y009847D01*
X006640Y009688D02*
X004420Y009688D01*
X004420Y009530D02*
X006640Y009530D01*
X006640Y009371D02*
X004420Y009371D01*
X004760Y009213D02*
X004800Y009213D01*
X004800Y009054D02*
X004760Y009054D01*
X004760Y008896D02*
X004800Y008896D01*
X004800Y008737D02*
X004760Y008737D01*
X005229Y009213D02*
X005318Y009213D01*
X006242Y009213D02*
X006640Y009213D01*
X006640Y009054D02*
X006330Y009054D01*
X006330Y008896D02*
X006640Y008896D01*
X006640Y008737D02*
X006330Y008737D01*
X006330Y008579D02*
X006640Y008579D01*
X006640Y008420D02*
X006330Y008420D01*
X006330Y008262D02*
X006640Y008262D01*
X006640Y008103D02*
X006135Y008103D01*
X006266Y007945D02*
X006640Y007945D01*
X006640Y007786D02*
X006330Y007786D01*
X006330Y007628D02*
X006640Y007628D01*
X006640Y007469D02*
X006288Y007469D01*
X006188Y007311D02*
X006640Y007311D01*
X006640Y007152D02*
X006078Y007152D01*
X006244Y006994D02*
X006640Y006994D01*
X006640Y006835D02*
X006311Y006835D01*
X006330Y006677D02*
X006640Y006677D01*
X006640Y006518D02*
X006308Y006518D01*
X006390Y006360D02*
X006640Y006360D01*
X006640Y006201D02*
X006548Y006201D01*
X007120Y006201D02*
X008575Y006201D01*
X008590Y006043D02*
X007120Y006043D01*
X007120Y005884D02*
X008662Y005884D01*
X008858Y005726D02*
X007120Y005726D01*
X007120Y005567D02*
X008754Y005567D01*
X008630Y005409D02*
X007120Y005409D01*
X007120Y005250D02*
X008580Y005250D01*
X008575Y005180D02*
X008575Y005140D01*
X008587Y005062D01*
X008612Y004986D01*
X008648Y004915D01*
X008695Y004851D01*
X008751Y004795D01*
X008815Y004748D01*
X008886Y004712D01*
X008962Y004687D01*
X009040Y004675D01*
X009080Y004675D01*
X009080Y005180D01*
X009080Y005180D01*
X009080Y005180D01*
X008575Y005180D01*
X008583Y005092D02*
X007120Y005092D01*
X007120Y004933D02*
X008639Y004933D01*
X008779Y004775D02*
X007120Y004775D01*
X007120Y004616D02*
X009490Y004616D01*
X009490Y004458D02*
X007120Y004458D01*
X007120Y004299D02*
X009490Y004299D01*
X009490Y004141D02*
X007120Y004141D01*
X007120Y003982D02*
X009490Y003982D01*
X009490Y003824D02*
X007120Y003824D01*
X007120Y003665D02*
X009490Y003665D01*
X009490Y003507D02*
X009231Y003507D01*
X009364Y003348D02*
X009396Y003348D01*
X009970Y003630D02*
X009970Y004300D01*
X010130Y004300D01*
X010240Y004300D01*
X010240Y003498D01*
X010192Y003546D01*
X009989Y003630D01*
X009970Y003630D01*
X009970Y003665D02*
X010240Y003665D01*
X010231Y003507D02*
X010240Y003507D01*
X010240Y003824D02*
X009970Y003824D01*
X009970Y003982D02*
X010240Y003982D01*
X010240Y004141D02*
X009970Y004141D01*
X009970Y004299D02*
X010240Y004299D01*
X010130Y004300D02*
X010130Y004780D01*
X010130Y004780D01*
X010130Y005260D01*
X010304Y005260D01*
X010349Y005248D01*
X010390Y005224D01*
X010390Y006335D01*
X010355Y006300D01*
X009970Y006300D01*
X009970Y005260D01*
X010130Y005260D01*
X010130Y004780D01*
X010390Y004780D01*
X010390Y004780D01*
X010130Y004780D01*
X010130Y004780D01*
X010130Y004780D01*
X010130Y004300D01*
X010130Y004458D02*
X010130Y004458D01*
X010130Y004616D02*
X010130Y004616D01*
X010130Y004775D02*
X010130Y004775D01*
X010130Y004933D02*
X010130Y004933D01*
X010130Y005092D02*
X010130Y005092D01*
X010130Y005250D02*
X010130Y005250D01*
X010341Y005250D02*
X010390Y005250D01*
X010390Y005409D02*
X009970Y005409D01*
X009970Y005567D02*
X010390Y005567D01*
X010390Y005726D02*
X009970Y005726D01*
X009970Y005884D02*
X010390Y005884D01*
X010390Y006043D02*
X009970Y006043D01*
X009970Y006201D02*
X010390Y006201D01*
X009490Y006518D02*
X009456Y006518D01*
X009490Y006677D02*
X009220Y006677D01*
X009220Y006835D02*
X009490Y006835D01*
X009490Y006994D02*
X009220Y006994D01*
X009220Y007152D02*
X009490Y007152D01*
X009490Y007311D02*
X009220Y007311D01*
X009346Y007469D02*
X009490Y007469D01*
X009490Y007628D02*
X009412Y007628D01*
X009430Y007786D02*
X009490Y007786D01*
X009490Y007945D02*
X009407Y007945D01*
X009335Y008103D02*
X009490Y008103D01*
X009572Y008262D02*
X009155Y008262D01*
X009731Y008420D02*
X007120Y008420D01*
X007120Y008262D02*
X008605Y008262D01*
X008425Y008103D02*
X007120Y008103D01*
X007120Y007945D02*
X008353Y007945D01*
X008330Y007786D02*
X007120Y007786D01*
X007120Y007628D02*
X008348Y007628D01*
X008414Y007469D02*
X007120Y007469D01*
X007120Y007311D02*
X008576Y007311D01*
X008740Y007152D02*
X007120Y007152D01*
X007120Y006994D02*
X008740Y006994D01*
X008740Y006835D02*
X007120Y006835D01*
X007120Y006677D02*
X008740Y006677D01*
X008704Y006518D02*
X007120Y006518D01*
X007120Y006360D02*
X008608Y006360D01*
X009080Y005092D02*
X009080Y005092D01*
X009080Y004933D02*
X009080Y004933D01*
X009080Y004775D02*
X009080Y004775D01*
X009381Y004775D02*
X009490Y004775D01*
X008529Y003507D02*
X008231Y003507D01*
X008364Y003348D02*
X008396Y003348D01*
X007529Y003507D02*
X007231Y003507D01*
X007364Y003348D02*
X007396Y003348D01*
X006640Y003665D02*
X003474Y003665D01*
X003632Y003507D02*
X006529Y003507D01*
X006396Y003348D02*
X003791Y003348D01*
X003949Y003190D02*
X006330Y003190D01*
X006330Y003031D02*
X004108Y003031D01*
X004266Y002873D02*
X006371Y002873D01*
X006468Y002714D02*
X004425Y002714D01*
X003315Y003824D02*
X006640Y003824D01*
X006640Y003982D02*
X003157Y003982D01*
X002998Y004141D02*
X006640Y004141D01*
X006640Y004299D02*
X002860Y004299D01*
X002860Y004458D02*
X006640Y004458D01*
X006640Y004616D02*
X002860Y004616D01*
X002860Y004775D02*
X006640Y004775D01*
X006640Y004933D02*
X006172Y004933D01*
X006331Y005092D02*
X006640Y005092D01*
X006640Y005250D02*
X006489Y005250D01*
X006639Y005409D02*
X006640Y005409D01*
X003988Y004933D02*
X002860Y004933D01*
X002860Y005092D02*
X003940Y005092D01*
X003940Y005250D02*
X002860Y005250D01*
X002860Y005409D02*
X003940Y005409D01*
X003940Y005567D02*
X002860Y005567D01*
X002860Y005726D02*
X003940Y005726D01*
X003940Y005884D02*
X002860Y005884D01*
X002860Y006043D02*
X003940Y006043D01*
X003940Y006201D02*
X002860Y006201D01*
X002860Y006360D02*
X003940Y006360D01*
X003940Y006518D02*
X002860Y006518D01*
X002860Y006677D02*
X003940Y006677D01*
X003940Y006835D02*
X002860Y006835D01*
X002860Y006994D02*
X003940Y006994D01*
X003940Y007152D02*
X002860Y007152D01*
X002860Y007311D02*
X003940Y007311D01*
X003940Y007469D02*
X002860Y007469D01*
X002860Y007628D02*
X003940Y007628D01*
X003940Y007786D02*
X002860Y007786D01*
X002860Y007945D02*
X003940Y007945D01*
X003940Y008103D02*
X002860Y008103D01*
X002860Y008262D02*
X003940Y008262D01*
X003940Y008420D02*
X002860Y008420D01*
X002860Y008579D02*
X003940Y008579D01*
X003940Y008737D02*
X002860Y008737D01*
X002860Y008896D02*
X003940Y008896D01*
X003940Y009054D02*
X002860Y009054D01*
X002860Y009213D02*
X003940Y009213D01*
X003940Y009371D02*
X002860Y009371D01*
X002860Y009530D02*
X003940Y009530D01*
X003940Y009688D02*
X002860Y009688D01*
X002860Y009847D02*
X003940Y009847D01*
X003940Y010005D02*
X002860Y010005D01*
X002860Y010164D02*
X003940Y010164D01*
X003940Y010322D02*
X002860Y010322D01*
X002860Y010481D02*
X003940Y010481D01*
X003940Y010639D02*
X002860Y010639D01*
X002860Y010798D02*
X003940Y010798D01*
X003940Y010956D02*
X002860Y010956D01*
X002860Y011115D02*
X003940Y011115D01*
X003940Y011273D02*
X002860Y011273D01*
X002860Y011432D02*
X003940Y011432D01*
X003940Y011590D02*
X002860Y011590D01*
X002860Y011749D02*
X003940Y011749D01*
X003940Y011907D02*
X002860Y011907D01*
X002860Y012066D02*
X003940Y012066D01*
X003959Y012224D02*
X002860Y012224D01*
X007120Y010956D02*
X008440Y010956D01*
X008440Y010798D02*
X007120Y010798D01*
X007120Y010639D02*
X008479Y010639D01*
X008507Y010571D02*
X008631Y010447D01*
X008792Y010380D01*
X008968Y010380D01*
X009129Y010447D01*
X009253Y010571D01*
X009320Y010732D01*
X009320Y011428D01*
X009253Y011589D01*
X009129Y011713D01*
X008968Y011780D01*
X008792Y011780D01*
X008631Y011713D01*
X008507Y011589D01*
X008440Y011428D01*
X008440Y010732D01*
X008507Y010571D01*
X008597Y010481D02*
X007120Y010481D01*
X007120Y010322D02*
X010090Y010322D01*
X010090Y010164D02*
X007120Y010164D01*
X007120Y010005D02*
X010090Y010005D01*
X010090Y009847D02*
X007120Y009847D01*
X007120Y009688D02*
X010090Y009688D01*
X010090Y009530D02*
X007120Y009530D01*
X007120Y009371D02*
X010090Y009371D01*
X010090Y009213D02*
X007120Y009213D01*
X007120Y009054D02*
X010090Y009054D01*
X010090Y008896D02*
X007120Y008896D01*
X007120Y008737D02*
X010048Y008737D01*
X009889Y008579D02*
X007120Y008579D01*
X009163Y010481D02*
X009597Y010481D01*
X009479Y010639D02*
X009281Y010639D01*
X009320Y010798D02*
X009440Y010798D01*
X009440Y010956D02*
X009320Y010956D01*
X009320Y011115D02*
X009440Y011115D01*
X009440Y011273D02*
X009320Y011273D01*
X009318Y011432D02*
X009442Y011432D01*
X009508Y011590D02*
X009252Y011590D01*
X009044Y011749D02*
X009716Y011749D01*
X009791Y011907D02*
X007988Y011907D01*
X007986Y011749D02*
X008716Y011749D01*
X008508Y011590D02*
X007899Y011590D01*
X007571Y011432D02*
X008442Y011432D01*
X008440Y011273D02*
X007412Y011273D01*
X007254Y011115D02*
X008440Y011115D01*
X007904Y012066D02*
X009605Y012066D01*
X010044Y011749D02*
X010090Y011749D01*
X013570Y010481D02*
X013597Y010481D01*
X013570Y010322D02*
X015213Y010322D01*
X015163Y010481D02*
X015599Y010481D01*
X015593Y010484D02*
X015649Y010444D01*
X015711Y010412D01*
X015777Y010391D01*
X015845Y010380D01*
X015880Y010380D01*
X015880Y011080D01*
X015880Y011080D01*
X015880Y011080D01*
X015440Y011080D01*
X015440Y011375D01*
X015451Y011443D01*
X015472Y011509D01*
X015504Y011571D01*
X015544Y011627D01*
X015593Y011676D01*
X015649Y011716D01*
X015711Y011748D01*
X015777Y011769D01*
X015845Y011780D01*
X015880Y011780D01*
X015880Y011080D01*
X015440Y011080D01*
X015440Y010785D01*
X015451Y010717D01*
X015472Y010651D01*
X015504Y010589D01*
X015544Y010533D01*
X015593Y010484D01*
X015647Y010322D02*
X016090Y010322D01*
X016090Y010164D02*
X015764Y010164D01*
X015790Y010005D02*
X016090Y010005D01*
X016090Y009847D02*
X015744Y009847D01*
X015670Y009688D02*
X016090Y009688D01*
X016090Y009530D02*
X015670Y009530D01*
X015670Y009371D02*
X016090Y009371D01*
X016570Y009479D02*
X016570Y010508D01*
X016631Y010447D01*
X016792Y010380D01*
X016968Y010380D01*
X017129Y010447D01*
X017140Y010458D01*
X017140Y009514D01*
X017074Y009548D01*
X016998Y009573D01*
X016920Y009585D01*
X016880Y009585D01*
X016880Y009080D01*
X016880Y009080D01*
X016880Y009585D01*
X016840Y009585D01*
X016762Y009573D01*
X016686Y009548D01*
X016615Y009512D01*
X016570Y009479D01*
X016570Y009530D02*
X016650Y009530D01*
X016570Y009688D02*
X017140Y009688D01*
X017140Y009530D02*
X017110Y009530D01*
X016880Y009530D02*
X016880Y009530D01*
X016880Y009371D02*
X016880Y009371D01*
X016880Y009213D02*
X016880Y009213D01*
X017140Y009847D02*
X016570Y009847D01*
X016570Y010005D02*
X017140Y010005D01*
X017140Y010164D02*
X016570Y010164D01*
X016570Y010322D02*
X017140Y010322D01*
X016597Y010481D02*
X016570Y010481D01*
X015880Y010481D02*
X015880Y010481D01*
X015880Y010639D02*
X015880Y010639D01*
X015880Y010798D02*
X015880Y010798D01*
X015880Y010956D02*
X015880Y010956D01*
X015880Y011115D02*
X015880Y011115D01*
X015880Y011273D02*
X015880Y011273D01*
X015880Y011432D02*
X015880Y011432D01*
X015880Y011590D02*
X015880Y011590D01*
X015880Y011749D02*
X015880Y011749D01*
X015713Y011749D02*
X015044Y011749D01*
X015252Y011590D02*
X015518Y011590D01*
X015449Y011432D02*
X015318Y011432D01*
X015320Y011273D02*
X015440Y011273D01*
X015440Y011115D02*
X015320Y011115D01*
X015320Y010956D02*
X015440Y010956D01*
X015440Y010798D02*
X015320Y010798D01*
X015281Y010639D02*
X015478Y010639D01*
X015096Y010164D02*
X013570Y010164D01*
X013570Y010005D02*
X015070Y010005D01*
X015116Y009847D02*
X013570Y009847D01*
X013570Y009688D02*
X015190Y009688D01*
X015190Y009530D02*
X013570Y009530D01*
X013570Y009371D02*
X015190Y009371D01*
X015190Y009213D02*
X013570Y009213D01*
X013570Y009054D02*
X015190Y009054D01*
X015190Y008896D02*
X013570Y008896D01*
X013570Y008737D02*
X015190Y008737D01*
X015190Y008579D02*
X013570Y008579D01*
X013570Y008420D02*
X015190Y008420D01*
X015190Y008262D02*
X013570Y008262D01*
X013646Y008103D02*
X015190Y008103D01*
X015190Y007945D02*
X013805Y007945D01*
X013963Y007786D02*
X015190Y007786D01*
X015190Y007628D02*
X014122Y007628D01*
X014170Y007469D02*
X015190Y007469D01*
X015190Y007311D02*
X014170Y007311D01*
X014170Y007152D02*
X015190Y007152D01*
X015190Y006994D02*
X014170Y006994D01*
X014170Y006835D02*
X015190Y006835D01*
X015190Y006677D02*
X014170Y006677D01*
X014170Y006518D02*
X015190Y006518D01*
X015190Y006360D02*
X014170Y006360D01*
X014170Y006201D02*
X015190Y006201D01*
X015190Y006043D02*
X014170Y006043D01*
X014170Y005884D02*
X015190Y005884D01*
X015190Y005726D02*
X014170Y005726D01*
X014170Y005567D02*
X015190Y005567D01*
X015190Y005409D02*
X014170Y005409D01*
X014170Y005250D02*
X015190Y005250D01*
X015190Y005092D02*
X014170Y005092D01*
X014170Y004933D02*
X014774Y004933D01*
X014650Y004775D02*
X014170Y004775D01*
X014170Y004616D02*
X014620Y004616D01*
X014468Y004458D02*
X014170Y004458D01*
X014270Y004299D02*
X014310Y004299D01*
X015186Y004933D02*
X015190Y004933D01*
X021670Y004933D02*
X021849Y004933D01*
X021844Y004951D02*
X021870Y004869D01*
X021910Y004792D01*
X021960Y004722D01*
X022022Y004660D01*
X022092Y004610D01*
X022169Y004570D01*
X022251Y004544D01*
X022337Y004530D01*
X022371Y004530D01*
X022371Y005071D01*
X021830Y005071D01*
X021830Y005037D01*
X021844Y004951D01*
X021830Y005089D02*
X022371Y005089D01*
X022371Y005630D01*
X022337Y005630D01*
X022251Y005616D01*
X022169Y005590D01*
X022092Y005550D01*
X022022Y005500D01*
X021960Y005438D01*
X021910Y005368D01*
X021870Y005291D01*
X021844Y005209D01*
X021830Y005123D01*
X021830Y005089D01*
X021830Y005092D02*
X021670Y005092D01*
X021670Y005250D02*
X021857Y005250D01*
X021939Y005409D02*
X021670Y005409D01*
X021670Y005567D02*
X022124Y005567D01*
X022371Y005567D02*
X022389Y005567D01*
X022389Y005630D02*
X022389Y005089D01*
X022371Y005089D01*
X022371Y005071D01*
X022389Y005071D01*
X022389Y005089D01*
X022930Y005089D01*
X022930Y005123D01*
X022916Y005209D01*
X022890Y005291D01*
X022850Y005368D01*
X022800Y005438D01*
X022738Y005500D01*
X022668Y005550D01*
X022591Y005590D01*
X022509Y005616D01*
X022423Y005630D01*
X022389Y005630D01*
X022371Y005409D02*
X022389Y005409D01*
X022389Y005250D02*
X022371Y005250D01*
X022371Y005092D02*
X022389Y005092D01*
X022389Y005071D02*
X022930Y005071D01*
X022930Y005037D01*
X022916Y004951D01*
X022890Y004869D01*
X022850Y004792D01*
X022800Y004722D01*
X022738Y004660D01*
X022668Y004610D01*
X022591Y004570D01*
X022509Y004544D01*
X022423Y004530D01*
X022389Y004530D01*
X022389Y005071D01*
X022389Y004933D02*
X022371Y004933D01*
X022371Y004775D02*
X022389Y004775D01*
X022389Y004616D02*
X022371Y004616D01*
X022083Y004616D02*
X021670Y004616D01*
X021670Y004458D02*
X023290Y004458D01*
X023290Y004616D02*
X022677Y004616D01*
X022838Y004775D02*
X023290Y004775D01*
X023290Y004933D02*
X022911Y004933D01*
X022930Y005092D02*
X023290Y005092D01*
X023290Y005250D02*
X022903Y005250D01*
X022821Y005409D02*
X023290Y005409D01*
X023290Y005567D02*
X022636Y005567D01*
X023290Y005726D02*
X021670Y005726D01*
X021670Y005884D02*
X023290Y005884D01*
X023290Y006043D02*
X021670Y006043D01*
X021670Y006201D02*
X023274Y006201D01*
X023218Y006360D02*
X021670Y006360D01*
X021670Y006518D02*
X023218Y006518D01*
X023218Y006677D02*
X021670Y006677D01*
X021670Y006835D02*
X023218Y006835D01*
X023794Y006835D02*
X023966Y006835D01*
X023966Y006677D02*
X023794Y006677D01*
X023794Y006518D02*
X023966Y006518D01*
X023966Y006360D02*
X023794Y006360D01*
X023770Y006201D02*
X024022Y006201D01*
X023770Y006043D02*
X025053Y006043D01*
X025212Y006201D02*
X024486Y006201D01*
X024542Y006360D02*
X025370Y006360D01*
X025529Y006518D02*
X024557Y006518D01*
X024716Y006677D02*
X025687Y006677D01*
X025846Y006835D02*
X024874Y006835D01*
X024970Y006994D02*
X025990Y006994D01*
X025990Y007152D02*
X024970Y007152D01*
X024970Y007311D02*
X025990Y007311D01*
X025990Y007469D02*
X024970Y007469D01*
X024970Y007628D02*
X025990Y007628D01*
X025990Y007786D02*
X024970Y007786D01*
X024970Y007945D02*
X025990Y007945D01*
X025990Y008103D02*
X025067Y008103D01*
X025090Y008262D02*
X025990Y008262D01*
X025990Y008420D02*
X025041Y008420D01*
X025153Y008579D02*
X024829Y008579D01*
X024945Y008737D02*
X024520Y008737D01*
X024520Y008579D02*
X024631Y008579D01*
X024520Y008896D02*
X024861Y008896D01*
X024830Y009054D02*
X024520Y009054D01*
X024506Y009213D02*
X024840Y009213D01*
X024750Y009371D02*
X024378Y009371D01*
X024220Y009530D02*
X024591Y009530D01*
X024953Y009847D02*
X025990Y009847D01*
X025990Y010005D02*
X024930Y010005D01*
X024930Y010164D02*
X025990Y010164D01*
X025990Y010322D02*
X024875Y010322D01*
X025111Y009688D02*
X025990Y009688D01*
X025990Y009530D02*
X025708Y009530D01*
X025855Y009371D02*
X025990Y009371D01*
X025990Y009213D02*
X025920Y009213D01*
X025930Y009054D02*
X025990Y009054D01*
X025990Y008896D02*
X025899Y008896D01*
X025815Y008737D02*
X025990Y008737D01*
X025990Y008579D02*
X025607Y008579D01*
X026470Y008737D02*
X026548Y008737D01*
X026470Y008896D02*
X026706Y008896D01*
X026675Y009054D02*
X026470Y009054D01*
X026470Y009213D02*
X026688Y009213D01*
X026757Y009371D02*
X026470Y009371D01*
X026470Y009530D02*
X026946Y009530D01*
X026860Y009688D02*
X026470Y009688D01*
X026470Y009847D02*
X026732Y009847D01*
X026681Y010005D02*
X026470Y010005D01*
X026470Y010164D02*
X026682Y010164D01*
X026737Y010322D02*
X026470Y010322D01*
X026470Y010481D02*
X026872Y010481D01*
X027180Y010481D02*
X027180Y010481D01*
X027180Y010322D02*
X027180Y010322D01*
X027180Y010164D02*
X027180Y010164D01*
X027488Y010481D02*
X028172Y010481D01*
X028151Y010465D02*
X028095Y010409D01*
X028048Y010345D01*
X028012Y010274D01*
X027987Y010198D01*
X027975Y010120D01*
X027975Y010080D01*
X028480Y010080D01*
X028985Y010080D01*
X028985Y010120D01*
X028973Y010198D01*
X028948Y010274D01*
X028912Y010345D01*
X028865Y010409D01*
X028809Y010465D01*
X028745Y010512D01*
X028674Y010548D01*
X028598Y010573D01*
X028520Y010585D01*
X028480Y010585D01*
X028480Y010080D01*
X028480Y010080D01*
X028480Y010080D01*
X028985Y010080D01*
X028985Y010040D01*
X028973Y009962D01*
X028948Y009886D01*
X028912Y009815D01*
X028865Y009751D01*
X028809Y009695D01*
X028745Y009648D01*
X028674Y009612D01*
X028598Y009587D01*
X028581Y009585D01*
X028766Y009508D01*
X028908Y009366D01*
X028985Y009180D01*
X028985Y008980D01*
X028908Y008794D01*
X028766Y008652D01*
X028580Y008575D01*
X028380Y008575D01*
X028194Y008652D01*
X028052Y008794D01*
X027975Y008980D01*
X027975Y009180D01*
X028052Y009366D01*
X028194Y009508D01*
X028379Y009585D01*
X028362Y009587D01*
X028286Y009612D01*
X028215Y009648D01*
X028151Y009695D01*
X028095Y009751D01*
X028048Y009815D01*
X028012Y009886D01*
X027987Y009962D01*
X027975Y010040D01*
X027975Y010080D01*
X028480Y010080D01*
X028480Y010080D01*
X028480Y010585D01*
X028440Y010585D01*
X028362Y010573D01*
X028286Y010548D01*
X028215Y010512D01*
X028151Y010465D01*
X028037Y010322D02*
X027623Y010322D01*
X027678Y010164D02*
X027982Y010164D01*
X027981Y010005D02*
X027679Y010005D01*
X027628Y009847D02*
X028032Y009847D01*
X028160Y009688D02*
X027500Y009688D01*
X027414Y009530D02*
X028246Y009530D01*
X028057Y009371D02*
X027603Y009371D01*
X027672Y009213D02*
X027988Y009213D01*
X027975Y009054D02*
X027685Y009054D01*
X027650Y008896D02*
X028010Y008896D01*
X028109Y008737D02*
X027551Y008737D01*
X027289Y008579D02*
X028371Y008579D01*
X028589Y008579D02*
X030375Y008579D01*
X030375Y008580D02*
X030375Y008540D01*
X030387Y008462D01*
X030412Y008386D01*
X030448Y008315D01*
X030495Y008251D01*
X030551Y008195D01*
X030615Y008148D01*
X030686Y008112D01*
X030762Y008087D01*
X030777Y008085D01*
X030480Y008085D01*
X030375Y007980D01*
X030375Y007180D01*
X030480Y007075D01*
X031280Y007075D01*
X031385Y007180D01*
X031385Y007980D01*
X031280Y008085D01*
X030983Y008085D01*
X030998Y008087D01*
X031074Y008112D01*
X031145Y008148D01*
X031209Y008195D01*
X031265Y008251D01*
X031312Y008315D01*
X031348Y008386D01*
X031373Y008462D01*
X031385Y008540D01*
X031385Y008580D01*
X031385Y008620D01*
X031373Y008698D01*
X031348Y008774D01*
X031312Y008845D01*
X031265Y008909D01*
X031209Y008965D01*
X031145Y009012D01*
X031074Y009048D01*
X030998Y009073D01*
X030920Y009085D01*
X030880Y009085D01*
X030880Y008580D01*
X030880Y008580D01*
X031385Y008580D01*
X030880Y008580D01*
X030880Y008580D01*
X030880Y008580D01*
X030375Y008580D01*
X030375Y008620D01*
X030387Y008698D01*
X030412Y008774D01*
X030448Y008845D01*
X030495Y008909D01*
X030551Y008965D01*
X030615Y009012D01*
X030686Y009048D01*
X030762Y009073D01*
X030840Y009085D01*
X030880Y009085D01*
X030880Y008580D01*
X030375Y008580D01*
X030400Y008737D02*
X028851Y008737D01*
X028950Y008896D02*
X030485Y008896D01*
X030705Y009054D02*
X028985Y009054D01*
X028972Y009213D02*
X033770Y009213D01*
X033770Y009371D02*
X028903Y009371D01*
X028714Y009530D02*
X033770Y009530D01*
X033770Y009688D02*
X028800Y009688D01*
X028928Y009847D02*
X033770Y009847D01*
X033770Y010005D02*
X028979Y010005D01*
X028978Y010164D02*
X033770Y010164D01*
X033770Y010322D02*
X028923Y010322D01*
X028788Y010481D02*
X033770Y010481D01*
X033770Y010639D02*
X026470Y010639D01*
X026402Y010798D02*
X033770Y010798D01*
X033770Y010956D02*
X023020Y010956D01*
X023020Y011115D02*
X033770Y011115D01*
X033770Y011273D02*
X023020Y011273D01*
X023020Y011432D02*
X033770Y011432D01*
X033770Y011590D02*
X023020Y011590D01*
X023020Y011749D02*
X033770Y011749D01*
X033770Y011907D02*
X023020Y011907D01*
X023020Y012066D02*
X033770Y012066D01*
X033770Y012224D02*
X023020Y012224D01*
X023020Y012383D02*
X033770Y012383D01*
X033770Y012541D02*
X023020Y012541D01*
X023020Y012700D02*
X033770Y012700D01*
X033770Y012858D02*
X023020Y012858D01*
X023020Y013017D02*
X033770Y013017D01*
X033770Y013175D02*
X023020Y013175D01*
X023020Y013334D02*
X027724Y013334D01*
X027666Y013339D02*
X027819Y013325D01*
X028800Y013325D01*
X028800Y015000D01*
X028960Y015000D01*
X028960Y015160D01*
X031619Y015160D01*
X031606Y015309D01*
X031579Y015460D01*
X031539Y015608D01*
X031487Y015752D01*
X031422Y015891D01*
X031346Y016024D01*
X031258Y016149D01*
X031159Y016267D01*
X031051Y016375D01*
X030934Y016474D01*
X030808Y016561D01*
X030675Y016638D01*
X030536Y016703D01*
X030392Y016755D01*
X030244Y016795D01*
X030094Y016821D01*
X029941Y016835D01*
X028960Y016835D01*
X028960Y015160D01*
X028800Y015160D01*
X028800Y016835D01*
X027819Y016835D01*
X027666Y016821D01*
X027516Y016795D01*
X027368Y016755D01*
X027224Y016703D01*
X027085Y016638D01*
X026952Y016561D01*
X026826Y016474D01*
X026709Y016375D01*
X026601Y016267D01*
X026502Y016149D01*
X026414Y016024D01*
X026338Y015891D01*
X026273Y015752D01*
X026221Y015608D01*
X026181Y015460D01*
X026154Y015309D01*
X026141Y015160D01*
X028800Y015160D01*
X028800Y015000D01*
X026141Y015000D01*
X026154Y014851D01*
X026181Y014700D01*
X026221Y014552D01*
X026273Y014408D01*
X026338Y014269D01*
X026414Y014136D01*
X026502Y014011D01*
X026601Y013893D01*
X026709Y013785D01*
X026826Y013686D01*
X026952Y013599D01*
X027085Y013522D01*
X027224Y013457D01*
X027368Y013405D01*
X027516Y013365D01*
X027666Y013339D01*
X027149Y013492D02*
X023020Y013492D01*
X023020Y013651D02*
X026878Y013651D01*
X026685Y013809D02*
X024993Y013809D01*
X025079Y013968D02*
X026538Y013968D01*
X026422Y014126D02*
X025079Y014126D01*
X025079Y014285D02*
X026330Y014285D01*
X026260Y014443D02*
X025079Y014443D01*
X025079Y014602D02*
X026207Y014602D01*
X026170Y014760D02*
X025079Y014760D01*
X025079Y014919D02*
X026148Y014919D01*
X026148Y015236D02*
X025079Y015236D01*
X025079Y015394D02*
X026169Y015394D01*
X026206Y015553D02*
X025079Y015553D01*
X025079Y015711D02*
X026258Y015711D01*
X026328Y015870D02*
X025079Y015870D01*
X025079Y016028D02*
X026417Y016028D01*
X026533Y016187D02*
X025079Y016187D01*
X024999Y016345D02*
X026679Y016345D01*
X026869Y016504D02*
X022734Y016504D01*
X022692Y016546D02*
X022489Y016630D01*
X022271Y016630D01*
X022068Y016546D01*
X021914Y016392D01*
X021880Y016310D01*
X021846Y016392D01*
X021692Y016546D01*
X021489Y016630D01*
X021271Y016630D01*
X021068Y016546D01*
X020914Y016392D01*
X020830Y016189D01*
X020830Y015971D01*
X020914Y015768D01*
X021068Y015614D01*
X021271Y015530D01*
X021489Y015530D01*
X021692Y015614D01*
X021846Y015768D01*
X021880Y015850D01*
X021914Y015768D01*
X022068Y015614D01*
X022271Y015530D01*
X022489Y015530D01*
X022692Y015614D01*
X022846Y015768D01*
X022930Y015971D01*
X022930Y016189D01*
X022846Y016392D01*
X022692Y016546D01*
X022866Y016345D02*
X024100Y016345D01*
X024019Y016187D02*
X022930Y016187D01*
X022930Y016028D02*
X024019Y016028D01*
X024019Y015870D02*
X022888Y015870D01*
X022789Y015711D02*
X024019Y015711D01*
X024019Y015553D02*
X022544Y015553D01*
X022216Y015553D02*
X021544Y015553D01*
X021789Y015711D02*
X021971Y015711D01*
X021646Y015236D02*
X023746Y015236D01*
X023905Y015394D02*
X017620Y015394D01*
X017620Y015236D02*
X018046Y015236D01*
X017910Y015077D02*
X017620Y015077D01*
X017620Y014919D02*
X017890Y014919D01*
X017744Y014760D02*
X017620Y014760D01*
X017620Y015553D02*
X019216Y015553D01*
X019271Y015530D02*
X019489Y015530D01*
X019692Y015614D01*
X019846Y015768D01*
X019930Y015971D01*
X019930Y016189D01*
X019846Y016392D01*
X019692Y016546D01*
X019489Y016630D01*
X019271Y016630D01*
X019068Y016546D01*
X018914Y016392D01*
X018830Y016189D01*
X018830Y015971D01*
X018914Y015768D01*
X019068Y015614D01*
X019271Y015530D01*
X019544Y015553D02*
X021216Y015553D01*
X020971Y015711D02*
X019789Y015711D01*
X019888Y015870D02*
X020872Y015870D01*
X020830Y016028D02*
X019930Y016028D01*
X019930Y016187D02*
X020830Y016187D01*
X020894Y016345D02*
X019866Y016345D01*
X019734Y016504D02*
X021026Y016504D01*
X021734Y016504D02*
X022026Y016504D01*
X021894Y016345D02*
X021866Y016345D01*
X021670Y015077D02*
X023588Y015077D01*
X023429Y014919D02*
X021670Y014919D01*
X021670Y014760D02*
X021744Y014760D01*
X022016Y014760D02*
X023271Y014760D01*
X023112Y014602D02*
X022241Y014602D01*
X022314Y014443D02*
X022954Y014443D01*
X022795Y014285D02*
X022320Y014285D01*
X022320Y014126D02*
X022637Y014126D01*
X022644Y014133D02*
X022644Y014133D01*
X022540Y013968D02*
X022320Y013968D01*
X022320Y013809D02*
X022540Y013809D01*
X022540Y013651D02*
X022286Y013651D01*
X022174Y013492D02*
X022540Y013492D01*
X022540Y013334D02*
X021670Y013334D01*
X021670Y013175D02*
X022540Y013175D01*
X022540Y013017D02*
X021670Y013017D01*
X021670Y012858D02*
X022540Y012858D01*
X022540Y012700D02*
X021670Y012700D01*
X021670Y012541D02*
X022540Y012541D01*
X022540Y012383D02*
X021670Y012383D01*
X021670Y012224D02*
X022540Y012224D01*
X022540Y012066D02*
X021670Y012066D01*
X021670Y011907D02*
X022540Y011907D01*
X022540Y011749D02*
X022044Y011749D01*
X022252Y011590D02*
X022540Y011590D01*
X022540Y011432D02*
X022318Y011432D01*
X022320Y011273D02*
X022540Y011273D01*
X022540Y011115D02*
X022320Y011115D01*
X022320Y010956D02*
X022540Y010956D01*
X022540Y010798D02*
X022320Y010798D01*
X022281Y010639D02*
X022540Y010639D01*
X022540Y010481D02*
X022163Y010481D01*
X022540Y010322D02*
X021670Y010322D01*
X021670Y010164D02*
X022540Y010164D01*
X022540Y010005D02*
X021670Y010005D01*
X021670Y009847D02*
X022540Y009847D01*
X022633Y009688D02*
X021670Y009688D01*
X021670Y009530D02*
X022052Y009530D01*
X021905Y009371D02*
X021670Y009371D01*
X021670Y009213D02*
X021840Y009213D01*
X021830Y009054D02*
X021670Y009054D01*
X021670Y008896D02*
X021861Y008896D01*
X021945Y008737D02*
X021670Y008737D01*
X021670Y008579D02*
X022153Y008579D01*
X022607Y008579D02*
X022690Y008579D01*
X022690Y008420D02*
X021670Y008420D01*
X021670Y008262D02*
X022690Y008262D01*
X022723Y008103D02*
X021670Y008103D01*
X021670Y007945D02*
X022876Y007945D01*
X023035Y007786D02*
X021670Y007786D01*
X021670Y007628D02*
X023193Y007628D01*
X023218Y007469D02*
X021670Y007469D01*
X021670Y007311D02*
X023218Y007311D01*
X023702Y007188D02*
X023702Y007188D01*
X023880Y007176D02*
X023880Y007592D01*
X023880Y008008D01*
X023748Y008008D01*
X023702Y007996D01*
X023702Y007995D01*
X023689Y008008D01*
X023491Y008008D01*
X023170Y008329D01*
X023170Y009572D01*
X023271Y009530D01*
X023489Y009530D01*
X023526Y009545D01*
X024040Y009031D01*
X024040Y008001D01*
X024012Y008008D01*
X023880Y008008D01*
X023880Y007592D01*
X023880Y007592D01*
X023880Y007176D01*
X023880Y007311D02*
X023880Y007311D01*
X023880Y007469D02*
X023880Y007469D01*
X023880Y007592D02*
X023880Y007592D01*
X023880Y007628D02*
X023880Y007628D01*
X023880Y007786D02*
X023880Y007786D01*
X023880Y007945D02*
X023880Y007945D01*
X024040Y008103D02*
X023396Y008103D01*
X023238Y008262D02*
X024040Y008262D01*
X024040Y008420D02*
X023170Y008420D01*
X023170Y008579D02*
X024040Y008579D01*
X024040Y008737D02*
X023170Y008737D01*
X023170Y008896D02*
X024040Y008896D01*
X024017Y009054D02*
X023170Y009054D01*
X023170Y009213D02*
X023858Y009213D01*
X023700Y009371D02*
X023170Y009371D01*
X023170Y009530D02*
X023541Y009530D01*
X026920Y008420D02*
X030401Y008420D01*
X030487Y008262D02*
X028632Y008262D01*
X028480Y008262D02*
X028480Y008262D01*
X028328Y008262D02*
X027332Y008262D01*
X027180Y008262D02*
X027180Y008262D01*
X027028Y008262D02*
X026920Y008262D01*
X027180Y008103D02*
X027180Y008103D01*
X027180Y007945D02*
X027180Y007945D01*
X027180Y007786D02*
X027180Y007786D01*
X027570Y008103D02*
X028090Y008103D01*
X028002Y007945D02*
X027658Y007945D01*
X027685Y007786D02*
X027975Y007786D01*
X027999Y007628D02*
X027661Y007628D01*
X027578Y007469D02*
X028082Y007469D01*
X028291Y007311D02*
X027369Y007311D01*
X027522Y007152D02*
X028138Y007152D01*
X028022Y006994D02*
X027638Y006994D01*
X027685Y006835D02*
X027975Y006835D01*
X027976Y006677D02*
X027684Y006677D01*
X027618Y006518D02*
X027929Y006518D01*
X027770Y006360D02*
X027474Y006360D01*
X027612Y006201D02*
X025890Y006201D01*
X025732Y006043D02*
X027496Y006043D01*
X027490Y005884D02*
X025573Y005884D01*
X025415Y005726D02*
X027490Y005726D01*
X027490Y005567D02*
X025641Y005567D01*
X025829Y005409D02*
X027490Y005409D01*
X027490Y005250D02*
X025905Y005250D01*
X025930Y005092D02*
X027490Y005092D01*
X027490Y004933D02*
X025914Y004933D01*
X025849Y004775D02*
X027490Y004775D01*
X027490Y004616D02*
X025694Y004616D01*
X024721Y003982D02*
X027519Y003982D01*
X027569Y003824D02*
X024563Y003824D01*
X024404Y003665D02*
X026207Y003665D01*
X026183Y003623D01*
X026171Y003578D01*
X026171Y003260D01*
X026625Y003260D01*
X026625Y003100D01*
X026171Y003100D01*
X026171Y002782D01*
X026183Y002737D01*
X026207Y002695D01*
X026240Y002662D01*
X026281Y002638D01*
X026327Y002626D01*
X026625Y002626D01*
X026625Y003100D01*
X026785Y003100D01*
X026785Y002626D01*
X027083Y002626D01*
X027129Y002638D01*
X027170Y002662D01*
X027204Y002695D01*
X027226Y002734D01*
X027226Y002731D01*
X027331Y002626D01*
X028229Y002626D01*
X028280Y002677D01*
X028331Y002626D01*
X029229Y002626D01*
X029334Y002731D01*
X029334Y002734D01*
X029356Y002695D01*
X029390Y002662D01*
X029431Y002638D01*
X029477Y002626D01*
X029775Y002626D01*
X029775Y003100D01*
X029935Y003100D01*
X029935Y003260D01*
X030389Y003260D01*
X030389Y003578D01*
X030377Y003623D01*
X030353Y003665D01*
X033770Y003665D01*
X033770Y003507D02*
X030389Y003507D01*
X030389Y003348D02*
X033770Y003348D01*
X033770Y003190D02*
X029935Y003190D01*
X029935Y003260D02*
X029775Y003260D01*
X029775Y003734D01*
X029477Y003734D01*
X029431Y003722D01*
X029390Y003698D01*
X029356Y003665D01*
X029334Y003626D01*
X029334Y003629D01*
X029229Y003734D01*
X028331Y003734D01*
X028280Y003683D01*
X028229Y003734D01*
X027331Y003734D01*
X027226Y003629D01*
X027226Y003626D01*
X027204Y003665D01*
X027170Y003698D01*
X027129Y003722D01*
X027083Y003734D01*
X026785Y003734D01*
X026785Y003260D01*
X026625Y003260D01*
X026625Y003734D01*
X026327Y003734D01*
X026281Y003722D01*
X026240Y003698D01*
X026207Y003665D01*
X026171Y003507D02*
X025231Y003507D01*
X025364Y003348D02*
X026171Y003348D01*
X026625Y003348D02*
X026785Y003348D01*
X026785Y003507D02*
X026625Y003507D01*
X026625Y003665D02*
X026785Y003665D01*
X027203Y003665D02*
X027262Y003665D01*
X026625Y003190D02*
X025430Y003190D01*
X025430Y003031D02*
X026171Y003031D01*
X026171Y002873D02*
X025389Y002873D01*
X025292Y002714D02*
X026196Y002714D01*
X026625Y002714D02*
X026785Y002714D01*
X026785Y002873D02*
X026625Y002873D01*
X026625Y003031D02*
X026785Y003031D01*
X027214Y002714D02*
X027243Y002714D01*
X028792Y003824D02*
X028792Y003824D01*
X028792Y003982D02*
X028792Y003982D01*
X028792Y004141D02*
X028792Y004141D01*
X028792Y004299D02*
X028792Y004299D01*
X028792Y004458D02*
X028792Y004458D01*
X028792Y004616D02*
X028792Y004616D01*
X028998Y004616D02*
X033177Y004616D01*
X033102Y004775D02*
X027970Y004775D01*
X027970Y004933D02*
X033092Y004933D01*
X033090Y004886D02*
X033555Y004886D01*
X033555Y004421D01*
X033555Y004886D01*
X033555Y004886D01*
X033090Y004886D01*
X033138Y005092D02*
X027970Y005092D01*
X027970Y005250D02*
X033264Y005250D01*
X033163Y005409D02*
X027970Y005409D01*
X027970Y005567D02*
X033096Y005567D01*
X033090Y005726D02*
X027970Y005726D01*
X027973Y005884D02*
X033139Y005884D01*
X033266Y006043D02*
X028132Y006043D01*
X028290Y006201D02*
X033770Y006201D01*
X033770Y006360D02*
X028774Y006360D01*
X028918Y006518D02*
X033770Y006518D01*
X033770Y006677D02*
X028984Y006677D01*
X028985Y006835D02*
X033770Y006835D01*
X033770Y006994D02*
X028938Y006994D01*
X028822Y007152D02*
X030403Y007152D01*
X030375Y007311D02*
X028669Y007311D01*
X028878Y007469D02*
X030375Y007469D01*
X030375Y007628D02*
X028961Y007628D01*
X028985Y007786D02*
X030375Y007786D01*
X030375Y007945D02*
X028958Y007945D01*
X028870Y008103D02*
X030714Y008103D01*
X031046Y008103D02*
X033770Y008103D01*
X033770Y007945D02*
X031385Y007945D01*
X031385Y007786D02*
X033770Y007786D01*
X033770Y007628D02*
X031385Y007628D01*
X031385Y007469D02*
X033770Y007469D01*
X033770Y007311D02*
X031385Y007311D01*
X031357Y007152D02*
X033770Y007152D01*
X033770Y008262D02*
X031273Y008262D01*
X031359Y008420D02*
X033770Y008420D01*
X033770Y008579D02*
X031385Y008579D01*
X031360Y008737D02*
X033770Y008737D01*
X033770Y008896D02*
X031275Y008896D01*
X031055Y009054D02*
X033770Y009054D01*
X030880Y009054D02*
X030880Y009054D01*
X030880Y008896D02*
X030880Y008896D01*
X030880Y008737D02*
X030880Y008737D01*
X028480Y008103D02*
X028480Y008103D01*
X028480Y007945D02*
X028480Y007945D01*
X028480Y007786D02*
X028480Y007786D01*
X027071Y008579D02*
X027068Y008579D01*
X028480Y010164D02*
X028480Y010164D01*
X028480Y010322D02*
X028480Y010322D01*
X028480Y010481D02*
X028480Y010481D01*
X028800Y013334D02*
X028960Y013334D01*
X028960Y013325D02*
X029941Y013325D01*
X030094Y013339D01*
X030244Y013365D01*
X030392Y013405D01*
X030536Y013457D01*
X030675Y013522D01*
X030808Y013599D01*
X030934Y013686D01*
X031051Y013785D01*
X031159Y013893D01*
X031258Y014011D01*
X031346Y014136D01*
X031422Y014269D01*
X031487Y014408D01*
X031539Y014552D01*
X031579Y014700D01*
X031606Y014851D01*
X031619Y015000D01*
X028960Y015000D01*
X028960Y013325D01*
X028960Y013492D02*
X028800Y013492D01*
X028800Y013651D02*
X028960Y013651D01*
X028960Y013809D02*
X028800Y013809D01*
X028800Y013968D02*
X028960Y013968D01*
X028960Y014126D02*
X028800Y014126D01*
X028800Y014285D02*
X028960Y014285D01*
X028960Y014443D02*
X028800Y014443D01*
X028800Y014602D02*
X028960Y014602D01*
X028960Y014760D02*
X028800Y014760D01*
X028800Y014919D02*
X028960Y014919D01*
X028960Y015077D02*
X032713Y015077D01*
X032716Y015080D02*
X032681Y015044D01*
X032681Y013895D01*
X032786Y013790D01*
X033635Y013790D01*
X033741Y013895D01*
X033741Y015044D01*
X033705Y015080D01*
X033741Y015116D01*
X033741Y016265D01*
X033635Y016370D01*
X032786Y016370D01*
X032681Y016265D01*
X032681Y015116D01*
X032716Y015080D01*
X032681Y015236D02*
X031612Y015236D01*
X031591Y015394D02*
X032681Y015394D01*
X032681Y015553D02*
X031554Y015553D01*
X031502Y015711D02*
X032681Y015711D01*
X032681Y015870D02*
X031432Y015870D01*
X031343Y016028D02*
X032681Y016028D01*
X032681Y016187D02*
X031227Y016187D01*
X031081Y016345D02*
X032761Y016345D01*
X033660Y016345D02*
X033770Y016345D01*
X033770Y016187D02*
X033741Y016187D01*
X033741Y016028D02*
X033770Y016028D01*
X033770Y015870D02*
X033741Y015870D01*
X033741Y015711D02*
X033770Y015711D01*
X033770Y015553D02*
X033741Y015553D01*
X033741Y015394D02*
X033770Y015394D01*
X033770Y015236D02*
X033741Y015236D01*
X033770Y015077D02*
X033708Y015077D01*
X033741Y014919D02*
X033770Y014919D01*
X033770Y014760D02*
X033741Y014760D01*
X033741Y014602D02*
X033770Y014602D01*
X033770Y014443D02*
X033741Y014443D01*
X033741Y014285D02*
X033770Y014285D01*
X033770Y014126D02*
X033741Y014126D01*
X033741Y013968D02*
X033770Y013968D01*
X033770Y013809D02*
X033655Y013809D01*
X033770Y013651D02*
X030882Y013651D01*
X031075Y013809D02*
X032767Y013809D01*
X032681Y013968D02*
X031221Y013968D01*
X031338Y014126D02*
X032681Y014126D01*
X032681Y014285D02*
X031430Y014285D01*
X031500Y014443D02*
X032681Y014443D01*
X032681Y014602D02*
X031553Y014602D01*
X031590Y014760D02*
X032681Y014760D01*
X032681Y014919D02*
X031612Y014919D01*
X030611Y013492D02*
X033770Y013492D01*
X033770Y013334D02*
X030036Y013334D01*
X028800Y015077D02*
X025047Y015077D01*
X024019Y014760D02*
X023949Y014760D01*
X024019Y014602D02*
X023791Y014602D01*
X023632Y014443D02*
X024019Y014443D01*
X024019Y014285D02*
X023474Y014285D01*
X023315Y014126D02*
X024019Y014126D01*
X024019Y013968D02*
X023157Y013968D01*
X023020Y013809D02*
X024105Y013809D01*
X021716Y011749D02*
X021670Y011749D01*
X019240Y010381D02*
X019240Y009434D01*
X019209Y009465D01*
X019145Y009512D01*
X019074Y009548D01*
X018998Y009573D01*
X018920Y009585D01*
X018880Y009585D01*
X018880Y009080D01*
X018880Y009080D01*
X018880Y009585D01*
X018840Y009585D01*
X018762Y009573D01*
X018686Y009548D01*
X018670Y009540D01*
X018670Y010431D01*
X018792Y010380D01*
X018968Y010380D01*
X019129Y010447D01*
X019151Y010469D01*
X019240Y010381D01*
X019240Y010322D02*
X018670Y010322D01*
X018670Y010164D02*
X019240Y010164D01*
X019240Y010005D02*
X018670Y010005D01*
X018670Y009847D02*
X019240Y009847D01*
X019240Y009688D02*
X018670Y009688D01*
X018880Y009530D02*
X018880Y009530D01*
X018880Y009371D02*
X018880Y009371D01*
X018880Y009213D02*
X018880Y009213D01*
X019110Y009530D02*
X019240Y009530D01*
X016090Y011749D02*
X016047Y011749D01*
X016090Y011907D02*
X014620Y011907D01*
X014620Y011749D02*
X014716Y011749D01*
X014620Y012066D02*
X016090Y012066D01*
X016090Y012224D02*
X014620Y012224D01*
X014620Y012383D02*
X016090Y012383D01*
X016090Y012541D02*
X014620Y012541D01*
X014620Y012700D02*
X016090Y012700D01*
X016090Y012858D02*
X014620Y012858D01*
X014620Y013017D02*
X016090Y013017D01*
X016090Y013175D02*
X014620Y013175D01*
X014620Y013334D02*
X016090Y013334D01*
X014440Y011115D02*
X014320Y011115D01*
X014320Y010956D02*
X014440Y010956D01*
X014440Y010798D02*
X014320Y010798D01*
X014281Y010639D02*
X014479Y010639D01*
X014597Y010481D02*
X014163Y010481D01*
X021670Y007152D02*
X024490Y007152D01*
X024354Y006994D02*
X021670Y006994D01*
X023770Y005884D02*
X024895Y005884D01*
X024736Y005726D02*
X023770Y005726D01*
X023770Y005567D02*
X024578Y005567D01*
X024490Y005409D02*
X023770Y005409D01*
X023770Y005250D02*
X024490Y005250D01*
X024490Y005092D02*
X023770Y005092D01*
X023770Y004933D02*
X024394Y004933D01*
X024235Y004775D02*
X023770Y004775D01*
X023770Y004616D02*
X024077Y004616D01*
X023290Y004299D02*
X021670Y004299D01*
X021670Y004141D02*
X023290Y004141D01*
X023290Y003982D02*
X023327Y003894D01*
X023556Y003665D02*
X021670Y003665D01*
X021860Y003507D02*
X021900Y003507D01*
X021900Y003348D02*
X021860Y003348D01*
X021860Y003190D02*
X021900Y003190D01*
X022229Y003507D02*
X022529Y003507D01*
X022396Y003348D02*
X022361Y003348D01*
X023231Y003507D02*
X023531Y003507D01*
X023399Y003348D02*
X023364Y003348D01*
X024229Y003507D02*
X024529Y003507D01*
X024396Y003348D02*
X024361Y003348D01*
X021922Y004775D02*
X021670Y004775D01*
X026049Y006360D02*
X026886Y006360D01*
X026742Y006518D02*
X026207Y006518D01*
X026366Y006677D02*
X026676Y006677D01*
X026675Y006835D02*
X026524Y006835D01*
X029041Y004458D02*
X033372Y004458D01*
X033555Y004458D02*
X033555Y004458D01*
X033555Y004616D02*
X033555Y004616D01*
X033555Y004775D02*
X033555Y004775D01*
X033555Y004886D02*
X033555Y004886D01*
X033738Y004458D02*
X033770Y004458D01*
X033770Y004299D02*
X029041Y004299D01*
X029041Y004141D02*
X033770Y004141D01*
X033770Y003982D02*
X029041Y003982D01*
X028991Y003824D02*
X033770Y003824D01*
X033767Y003031D02*
X030389Y003031D01*
X030389Y003100D02*
X030389Y002782D01*
X030377Y002737D01*
X030353Y002695D01*
X030320Y002662D01*
X030279Y002638D01*
X030233Y002626D01*
X029935Y002626D01*
X029935Y003100D01*
X030389Y003100D01*
X030389Y002873D02*
X033726Y002873D01*
X033613Y002714D02*
X030364Y002714D01*
X029935Y002714D02*
X029775Y002714D01*
X029775Y002873D02*
X029935Y002873D01*
X029935Y003031D02*
X029775Y003031D01*
X029935Y003260D02*
X029935Y003734D01*
X030233Y003734D01*
X030279Y003722D01*
X030320Y003698D01*
X030353Y003665D01*
X029935Y003665D02*
X029775Y003665D01*
X029775Y003507D02*
X029935Y003507D01*
X029935Y003348D02*
X029775Y003348D01*
X029357Y003665D02*
X029298Y003665D01*
X029317Y002714D02*
X029346Y002714D01*
X028960Y015236D02*
X028800Y015236D01*
X028800Y015394D02*
X028960Y015394D01*
X028960Y015553D02*
X028800Y015553D01*
X028800Y015711D02*
X028960Y015711D01*
X028960Y015870D02*
X028800Y015870D01*
X028800Y016028D02*
X028960Y016028D01*
X028960Y016187D02*
X028800Y016187D01*
X028800Y016345D02*
X028960Y016345D01*
X028960Y016504D02*
X028800Y016504D01*
X028800Y016662D02*
X028960Y016662D01*
X028960Y016821D02*
X028800Y016821D01*
X027661Y016821D02*
X017620Y016821D01*
X017619Y016979D02*
X033770Y016979D01*
X033770Y016821D02*
X030099Y016821D01*
X030624Y016662D02*
X033770Y016662D01*
X033770Y016504D02*
X030891Y016504D01*
X033770Y017455D02*
X002860Y017455D01*
X002860Y017613D02*
X033770Y017613D01*
X033770Y017772D02*
X002860Y017772D01*
X002860Y017930D02*
X033770Y017930D01*
X033770Y018089D02*
X024752Y018089D01*
X024875Y018139D02*
X025121Y018385D01*
X025254Y018706D01*
X025254Y019054D01*
X025121Y019375D01*
X024875Y019621D01*
X024554Y019754D01*
X024206Y019754D01*
X023885Y019621D01*
X023639Y019375D01*
X023506Y019054D01*
X023506Y018706D01*
X023639Y018385D01*
X023885Y018139D01*
X024206Y018006D01*
X024554Y018006D01*
X024875Y018139D01*
X024983Y018247D02*
X033770Y018247D01*
X033642Y018406D02*
X025129Y018406D01*
X025195Y018564D02*
X033483Y018564D01*
X033325Y018723D02*
X025254Y018723D01*
X025254Y018881D02*
X033166Y018881D01*
X033008Y019040D02*
X025254Y019040D01*
X025194Y019198D02*
X032849Y019198D01*
X032691Y019357D02*
X025128Y019357D01*
X024981Y019515D02*
X032532Y019515D01*
X032374Y019674D02*
X024747Y019674D01*
X024013Y019674D02*
X004247Y019674D01*
X004375Y019621D02*
X004054Y019754D01*
X003706Y019754D01*
X003385Y019621D01*
X003139Y019375D01*
X003006Y019054D01*
X003006Y018706D01*
X003139Y018385D01*
X003385Y018139D01*
X003706Y018006D01*
X004054Y018006D01*
X004375Y018139D01*
X004621Y018385D01*
X004754Y018706D01*
X004754Y019054D01*
X004621Y019375D01*
X004375Y019621D01*
X004481Y019515D02*
X023779Y019515D01*
X023632Y019357D02*
X004628Y019357D01*
X004694Y019198D02*
X023566Y019198D01*
X023506Y019040D02*
X004754Y019040D01*
X004754Y018881D02*
X023506Y018881D01*
X023506Y018723D02*
X004754Y018723D01*
X004695Y018564D02*
X023565Y018564D01*
X023631Y018406D02*
X004629Y018406D01*
X004483Y018247D02*
X023777Y018247D01*
X024008Y018089D02*
X004252Y018089D01*
X003508Y018089D02*
X002860Y018089D01*
X002860Y018247D02*
X003277Y018247D01*
X003131Y018406D02*
X002860Y018406D01*
X002860Y018564D02*
X003065Y018564D01*
X003006Y018723D02*
X002860Y018723D01*
X002860Y018881D02*
X003006Y018881D01*
X003006Y019040D02*
X002860Y019040D01*
X002860Y019198D02*
X003066Y019198D01*
X003132Y019357D02*
X002860Y019357D01*
X002863Y019515D02*
X003279Y019515D01*
X003513Y019674D02*
X002899Y019674D01*
X003007Y019832D02*
X032215Y019832D01*
X032057Y019991D02*
X003308Y019991D01*
X017620Y016662D02*
X027136Y016662D01*
X019026Y016504D02*
X017620Y016504D01*
X017620Y016345D02*
X018894Y016345D01*
X018830Y016187D02*
X017620Y016187D01*
X017620Y016028D02*
X018830Y016028D01*
X018872Y015870D02*
X017620Y015870D01*
X017620Y015711D02*
X018971Y015711D01*
M02*
