%
M48
M72
T01C0.0200
T02C0.0276
T03C0.0320
T04C0.0354
T05C0.0400
T06C0.0787
%
T01
X10180Y5380
X10930Y4180
X11380Y3880
X13930Y4180
X14980Y4630
X18730Y3730
X19780Y4180
X20830Y4780
X23980Y4180
X24730Y8230
X17830Y8680
X15880Y8980
X15880Y9580
X15430Y10030
X11680Y9580
X10480Y8230
X7630Y11830
X8230Y13780
X16480Y14830
X16180Y7330
T02
X16880Y8080
X16880Y9080
X18880Y9080
X18880Y8080
X12880Y6580
X12880Y5580
X9080Y5180
X9080Y6180
X27180Y6780
X28480Y6780
X28480Y7780
X27180Y7780
X27180Y9080
X28480Y9080
X28480Y10080
X27180Y10080
X30880Y8580
X30880Y7580
X33555Y5674
X33555Y4886
T03
X24380Y10080
X23380Y10080
X21880Y11080
X20880Y11080
X19880Y11080
X18880Y11080
X17880Y11080
X16880Y11080
X15880Y11080
X14880Y11080
X13880Y11080
X12880Y11080
X11880Y11080
X10880Y11080
X9880Y11080
X8880Y11080
X8880Y14080
X9880Y14080
X10880Y14080
X11880Y14080
X12880Y14080
X13880Y14080
X14880Y14080
X15880Y14080
X16880Y14080
X17880Y14080
X18880Y14080
X19880Y14080
X20880Y14080
X21880Y14080
X21380Y16080
X22380Y16080
X18830Y6080
X16930Y6080
T04
X12880Y7780
X8880Y7780
X22380Y9080
X25380Y9080
X25380Y5080
X22380Y5080
X19380Y16080
X15380Y16080
T05
X6880Y3080
X7880Y3080
X8880Y3080
X9880Y3080
X10880Y3080
X11880Y3080
X13380Y3080
X14380Y3080
X15380Y3080
X16380Y3080
X17380Y3080
X18380Y3080
X19880Y3080
X20880Y3080
X21880Y3080
X22880Y3080
X23880Y3080
X24880Y3080
X6880Y13080
X3880Y13080
X8880Y16080
X9880Y16080
X10880Y16080
X11880Y16080
X12880Y16080
X13880Y16080
X5780Y8680
X4780Y8680
X4780Y7680
X5780Y7680
X5780Y6680
X4780Y6680
X4780Y5680
X5780Y5680
T06
X3880Y18880
X24380Y18880
M30
