G75*
%MOIN*%
%OFA0B0*%
%FSLAX24Y24*%
%IPPOS*%
%LPD*%
%AMOC8*
5,1,8,0,0,1.08239X$1,22.5*
%
%ADD10C,0.0650*%
%ADD11R,0.0650X0.0650*%
%ADD12C,0.0740*%
%ADD13C,0.0520*%
%ADD14R,0.0740X0.0740*%
%ADD15C,0.0570*%
%ADD16OC8,0.0850*%
%ADD17C,0.0520*%
%ADD18C,0.0120*%
%ADD19C,0.0360*%
%ADD20C,0.0160*%
D10*
X009080Y005180D03*
X009080Y006180D03*
X012880Y006580D03*
X012880Y005580D03*
X016880Y008080D03*
X016880Y009080D03*
X018880Y009080D03*
X018880Y008080D03*
X027180Y007780D03*
X028480Y007780D03*
X028480Y006780D03*
X027180Y006780D03*
X030880Y008580D03*
X028480Y009080D03*
X027180Y009080D03*
X027180Y010080D03*
X028480Y010080D03*
D11*
X030880Y007580D03*
D12*
X025380Y009080D03*
X024380Y010080D03*
X023380Y010080D03*
X022380Y009080D03*
X022380Y005080D03*
X021880Y003080D03*
X020880Y003080D03*
X019880Y003080D03*
X018380Y003080D03*
X017380Y003080D03*
X016380Y003080D03*
X015380Y003080D03*
X014380Y003080D03*
X013380Y003080D03*
X011880Y003080D03*
X010880Y003080D03*
X009880Y003080D03*
X008880Y003080D03*
X007880Y003080D03*
X006880Y003080D03*
X005780Y005680D03*
X004780Y005680D03*
X004780Y006680D03*
X005780Y006680D03*
X005780Y007680D03*
X004780Y007680D03*
X008880Y007780D03*
X012880Y007780D03*
X022880Y003080D03*
X023880Y003080D03*
X024880Y003080D03*
X025380Y005080D03*
X022380Y016080D03*
X021380Y016080D03*
X019380Y016080D03*
X015380Y016080D03*
X013880Y016080D03*
X012880Y016080D03*
X011880Y016080D03*
X010880Y016080D03*
X009880Y016080D03*
X008880Y016080D03*
D13*
X016930Y006080D03*
X018830Y006080D03*
D14*
X005780Y008680D03*
X004780Y008680D03*
D15*
X033555Y005674D03*
X033555Y004886D03*
D16*
X006880Y013080D03*
X003880Y013080D03*
D17*
X008880Y013820D02*
X008880Y014340D01*
X009880Y014340D02*
X009880Y013820D01*
X010880Y013820D02*
X010880Y014340D01*
X011880Y014340D02*
X011880Y013820D01*
X012880Y013820D02*
X012880Y014340D01*
X013880Y014340D02*
X013880Y013820D01*
X014880Y013820D02*
X014880Y014340D01*
X015880Y014340D02*
X015880Y013820D01*
X016880Y013820D02*
X016880Y014340D01*
X017880Y014340D02*
X017880Y013820D01*
X018880Y013820D02*
X018880Y014340D01*
X019880Y014340D02*
X019880Y013820D01*
X020880Y013820D02*
X020880Y014340D01*
X021880Y014340D02*
X021880Y013820D01*
X021880Y011340D02*
X021880Y010820D01*
X020880Y010820D02*
X020880Y011340D01*
X019880Y011340D02*
X019880Y010820D01*
X018880Y010820D02*
X018880Y011340D01*
X017880Y011340D02*
X017880Y010820D01*
X016880Y010820D02*
X016880Y011340D01*
X015880Y011340D02*
X015880Y010820D01*
X014880Y010820D02*
X014880Y011340D01*
X013880Y011340D02*
X013880Y010820D01*
X012880Y010820D02*
X012880Y011340D01*
X011880Y011340D02*
X011880Y010820D01*
X010880Y010820D02*
X010880Y011340D01*
X009880Y011340D02*
X009880Y010820D01*
X008880Y010820D02*
X008880Y011340D01*
D18*
X008880Y011080D02*
X008980Y011080D01*
X010480Y009580D01*
X011680Y009580D01*
X010930Y008230D02*
X010480Y008230D01*
X010930Y008230D02*
X013780Y011080D01*
X013880Y011080D01*
X013930Y010180D02*
X014830Y011080D01*
X014880Y011080D01*
X015430Y010630D02*
X015130Y010330D01*
X014980Y010330D01*
X014980Y009880D01*
X015880Y008980D01*
X016330Y009130D02*
X016780Y009130D01*
X016880Y009080D01*
X016930Y009130D01*
X018880Y009130D01*
X018880Y009080D01*
X018880Y008980D01*
X020080Y007780D01*
X027180Y007780D01*
X027130Y006880D02*
X027180Y006780D01*
X027130Y006880D02*
X017230Y006880D01*
X013930Y010180D01*
X011530Y007780D01*
X008880Y007780D01*
X006730Y007780D01*
X005830Y008680D01*
X005780Y008680D01*
X004480Y009280D02*
X004330Y009280D01*
X004180Y009130D01*
X004180Y007780D01*
X004780Y007780D01*
X004780Y007680D01*
X005780Y007680D02*
X006280Y007180D01*
X016030Y007180D01*
X016180Y007330D01*
X017830Y008680D02*
X018430Y008080D01*
X018880Y008080D01*
X016330Y009130D02*
X015880Y009580D01*
X015430Y010030D02*
X020830Y010030D01*
X021880Y011080D01*
X021880Y011830D02*
X019630Y011830D01*
X019330Y011530D01*
X019330Y010330D01*
X015730Y010330D01*
X015430Y010630D01*
X015430Y012280D01*
X007480Y012280D01*
X004480Y009280D01*
X003880Y007630D02*
X003880Y012430D01*
X007180Y012430D01*
X007630Y012880D01*
X016630Y012880D01*
X017830Y014080D01*
X017880Y014080D01*
X018880Y013330D02*
X021130Y013330D01*
X021430Y013630D01*
X021430Y016030D01*
X021380Y016080D01*
X021880Y016630D02*
X022330Y016180D01*
X022380Y016080D01*
X021880Y016630D02*
X019930Y016630D01*
X019380Y016080D01*
X020080Y014830D02*
X016480Y014830D01*
X014880Y014080D02*
X014830Y014080D01*
X013930Y013180D01*
X006880Y013180D01*
X006880Y013080D01*
X008230Y013780D02*
X004480Y013780D01*
X003880Y013180D01*
X003880Y013080D01*
X007630Y011830D02*
X009130Y011830D01*
X009880Y011080D01*
X004780Y006730D02*
X003880Y007630D01*
X004780Y006730D02*
X004780Y006680D01*
X004780Y005680D02*
X005830Y004630D01*
X014380Y004630D01*
X014980Y005230D01*
X020980Y005230D01*
X021280Y004930D01*
X021280Y003730D01*
X020530Y003730D01*
X019880Y003080D01*
X018730Y003730D02*
X012580Y003730D01*
X011980Y003130D01*
X011880Y003080D01*
X011230Y003730D02*
X009580Y003730D01*
X008980Y003130D01*
X008880Y003080D01*
X008830Y004030D02*
X007880Y003080D01*
X008830Y004030D02*
X010780Y004030D01*
X010930Y004180D01*
X011230Y003730D02*
X011380Y003880D01*
X010030Y005230D02*
X009130Y005230D01*
X009080Y005180D01*
X010030Y005230D02*
X010180Y005380D01*
X012880Y005530D02*
X012880Y005580D01*
X012880Y005530D02*
X022030Y005530D01*
X022180Y005680D01*
X023080Y005680D01*
X024880Y003880D01*
X024880Y003080D01*
X023980Y004180D02*
X022880Y003080D01*
X020830Y004780D02*
X020680Y004630D01*
X014980Y004630D01*
X013930Y004180D02*
X019780Y004180D01*
X023980Y008980D02*
X024730Y008230D01*
X023980Y008980D02*
X022480Y008980D01*
X022380Y009080D01*
X018880Y011080D02*
X018880Y013330D01*
X020080Y014830D02*
X020830Y014080D01*
X020880Y014080D01*
X021880Y014080D02*
X021880Y011830D01*
X027180Y009080D02*
X027280Y009130D01*
X028480Y009130D01*
X028480Y009080D01*
X028480Y008980D01*
X029530Y008980D01*
X030880Y007630D01*
X030880Y007580D01*
X030880Y007480D01*
X031780Y007480D01*
X033580Y005680D01*
X033555Y005674D01*
X030880Y008580D02*
X030880Y008680D01*
X029530Y010030D01*
X028480Y010030D01*
X028480Y010080D01*
D19*
X024730Y008230D03*
X020830Y004780D03*
X019780Y004180D03*
X018730Y003730D03*
X014980Y004630D03*
X013930Y004180D03*
X011380Y003880D03*
X010930Y004180D03*
X010180Y005380D03*
X010480Y008230D03*
X011680Y009580D03*
X015430Y010030D03*
X015880Y009580D03*
X015880Y008980D03*
X017830Y008680D03*
X016180Y007330D03*
X023980Y004180D03*
X008230Y013780D03*
X007630Y011830D03*
X016480Y014830D03*
D20*
X004579Y002560D02*
X002860Y004279D01*
X002860Y019476D01*
X002864Y019544D01*
X002900Y019675D01*
X002967Y019793D01*
X003063Y019889D01*
X003181Y019956D01*
X003312Y019992D01*
X003380Y019996D01*
X032051Y019996D01*
X033770Y018277D01*
X033770Y006088D01*
X033647Y006139D01*
X033463Y006139D01*
X033461Y006138D01*
X031983Y007616D01*
X031916Y007683D01*
X031828Y007720D01*
X031385Y007720D01*
X031385Y007980D01*
X031280Y008085D01*
X030983Y008085D01*
X030998Y008087D01*
X031074Y008112D01*
X031145Y008148D01*
X031209Y008195D01*
X031265Y008251D01*
X031312Y008315D01*
X031348Y008386D01*
X031373Y008462D01*
X031385Y008540D01*
X031385Y008580D01*
X031385Y008620D01*
X031373Y008698D01*
X031348Y008774D01*
X031312Y008845D01*
X031265Y008909D01*
X031209Y008965D01*
X031145Y009012D01*
X031074Y009048D01*
X030998Y009073D01*
X030920Y009085D01*
X030880Y009085D01*
X030880Y008580D01*
X030880Y008580D01*
X031385Y008580D01*
X030880Y008580D01*
X030880Y008580D01*
X030880Y008580D01*
X030375Y008580D01*
X030375Y008620D01*
X030387Y008698D01*
X030412Y008774D01*
X030448Y008845D01*
X030495Y008909D01*
X030551Y008965D01*
X030615Y009012D01*
X030686Y009048D01*
X030762Y009073D01*
X030840Y009085D01*
X030880Y009085D01*
X030880Y008580D01*
X030375Y008580D01*
X030375Y008540D01*
X030387Y008462D01*
X029733Y009116D01*
X029666Y009183D01*
X029578Y009220D01*
X028969Y009220D01*
X028908Y009366D01*
X028766Y009508D01*
X028581Y009585D01*
X028598Y009587D01*
X028674Y009612D01*
X028745Y009648D01*
X028809Y009695D01*
X028865Y009751D01*
X028912Y009815D01*
X028948Y009886D01*
X028973Y009962D01*
X028985Y010040D01*
X028985Y010080D01*
X028985Y010120D01*
X028973Y010198D01*
X028948Y010274D01*
X028912Y010345D01*
X028865Y010409D01*
X028809Y010465D01*
X028745Y010512D01*
X028674Y010548D01*
X028598Y010573D01*
X028520Y010585D01*
X028480Y010585D01*
X028480Y010080D01*
X028480Y010080D01*
X028985Y010080D01*
X028480Y010080D01*
X028480Y010080D01*
X028480Y009585D01*
X028480Y009585D01*
X028480Y010080D01*
X028480Y010080D01*
X028480Y010080D01*
X027975Y010080D01*
X027975Y010120D01*
X027987Y010198D01*
X028012Y010274D01*
X028048Y010345D01*
X028095Y010409D01*
X028151Y010465D01*
X028215Y010512D01*
X028286Y010548D01*
X028362Y010573D01*
X028440Y010585D01*
X028480Y010585D01*
X028480Y010080D01*
X027975Y010080D01*
X027975Y010040D01*
X027987Y009962D01*
X028012Y009886D01*
X028048Y009815D01*
X028095Y009751D01*
X028151Y009695D01*
X028215Y009648D01*
X028286Y009612D01*
X028362Y009587D01*
X028379Y009585D01*
X028194Y009508D01*
X028056Y009370D01*
X027604Y009370D01*
X027466Y009508D01*
X027281Y009585D01*
X027298Y009587D01*
X027374Y009612D01*
X027445Y009648D01*
X027509Y009695D01*
X027565Y009751D01*
X027612Y009815D01*
X027648Y009886D01*
X027673Y009962D01*
X027685Y010040D01*
X027685Y010080D01*
X027685Y010120D01*
X027673Y010198D01*
X027648Y010274D01*
X027612Y010345D01*
X027565Y010409D01*
X027509Y010465D01*
X027445Y010512D01*
X027374Y010548D01*
X027298Y010573D01*
X027220Y010585D01*
X027180Y010585D01*
X027180Y010080D01*
X027180Y010080D01*
X027685Y010080D01*
X027180Y010080D01*
X027180Y010080D01*
X027180Y010080D01*
X026675Y010080D01*
X026675Y010120D01*
X026687Y010198D01*
X026712Y010274D01*
X026748Y010345D01*
X026795Y010409D01*
X026851Y010465D01*
X026915Y010512D01*
X026986Y010548D01*
X027062Y010573D01*
X027140Y010585D01*
X027180Y010585D01*
X027180Y010080D01*
X026675Y010080D01*
X026675Y010040D01*
X026687Y009962D01*
X026712Y009886D01*
X026748Y009815D01*
X026795Y009751D01*
X026851Y009695D01*
X026915Y009648D01*
X026986Y009612D01*
X027062Y009587D01*
X027079Y009585D01*
X026894Y009508D01*
X026752Y009366D01*
X026675Y009180D01*
X026675Y008980D01*
X026752Y008794D01*
X026894Y008652D01*
X027080Y008575D01*
X027280Y008575D01*
X027466Y008652D01*
X027608Y008794D01*
X027648Y008890D01*
X028012Y008890D01*
X028052Y008794D01*
X028194Y008652D01*
X028380Y008575D01*
X028580Y008575D01*
X028766Y008652D01*
X028854Y008740D01*
X029431Y008740D01*
X030375Y007796D01*
X030375Y007180D01*
X030480Y007075D01*
X031280Y007075D01*
X031385Y007180D01*
X031385Y007240D01*
X031681Y007240D01*
X033109Y005812D01*
X033090Y005766D01*
X033090Y005581D01*
X033161Y005410D01*
X033292Y005279D01*
X033300Y005276D01*
X033252Y005241D01*
X033200Y005189D01*
X033157Y005130D01*
X033124Y005065D01*
X033101Y004995D01*
X033090Y004923D01*
X033090Y004886D01*
X033090Y004850D01*
X033101Y004777D01*
X033124Y004708D01*
X033157Y004643D01*
X033200Y004583D01*
X033252Y004532D01*
X033311Y004489D01*
X033377Y004455D01*
X033446Y004433D01*
X033518Y004421D01*
X033555Y004421D01*
X033592Y004421D01*
X033664Y004433D01*
X033733Y004455D01*
X033770Y004474D01*
X033770Y003080D01*
X033766Y003012D01*
X033730Y002881D01*
X033663Y002763D01*
X033567Y002667D01*
X033449Y002600D01*
X033318Y002564D01*
X033250Y002560D01*
X025062Y002560D01*
X025192Y002614D01*
X025346Y002768D01*
X025430Y002971D01*
X025430Y003189D01*
X025346Y003392D01*
X025192Y003546D01*
X025120Y003576D01*
X025120Y003928D01*
X025083Y004016D01*
X025016Y004083D01*
X023216Y005883D01*
X023128Y005920D01*
X023032Y005920D01*
X022132Y005920D01*
X022044Y005883D01*
X021977Y005816D01*
X021931Y005770D01*
X019142Y005770D01*
X019203Y005831D01*
X019270Y005992D01*
X019270Y006168D01*
X019203Y006329D01*
X019079Y006453D01*
X018918Y006520D01*
X018742Y006520D01*
X018581Y006453D01*
X018457Y006329D01*
X018390Y006168D01*
X018390Y005992D01*
X018457Y005831D01*
X018518Y005770D01*
X017242Y005770D01*
X017303Y005831D01*
X017370Y005992D01*
X017370Y006168D01*
X017303Y006329D01*
X017179Y006453D01*
X017018Y006520D01*
X016842Y006520D01*
X016681Y006453D01*
X016557Y006329D01*
X016490Y006168D01*
X016490Y005992D01*
X016557Y005831D01*
X016618Y005770D01*
X013348Y005770D01*
X013308Y005866D01*
X013166Y006008D01*
X012993Y006080D01*
X013166Y006152D01*
X013308Y006294D01*
X013385Y006480D01*
X013385Y006680D01*
X013308Y006866D01*
X013234Y006940D01*
X016078Y006940D01*
X016150Y006970D01*
X016252Y006970D01*
X016384Y007025D01*
X016485Y007126D01*
X016532Y007239D01*
X017027Y006744D01*
X017094Y006677D01*
X017182Y006640D01*
X026691Y006640D01*
X026752Y006494D01*
X026894Y006352D01*
X027080Y006275D01*
X027280Y006275D01*
X027466Y006352D01*
X027608Y006494D01*
X027685Y006680D01*
X027685Y006880D01*
X027608Y007066D01*
X027466Y007208D01*
X027281Y007285D01*
X027298Y007287D01*
X027374Y007312D01*
X027445Y007348D01*
X027509Y007395D01*
X027565Y007451D01*
X027612Y007515D01*
X027648Y007586D01*
X027673Y007662D01*
X027685Y007740D01*
X027685Y007780D01*
X027685Y007820D01*
X027673Y007898D01*
X027648Y007974D01*
X027612Y008045D01*
X027565Y008109D01*
X027509Y008165D01*
X027445Y008212D01*
X027374Y008248D01*
X027298Y008273D01*
X027220Y008285D01*
X027180Y008285D01*
X027180Y007780D01*
X027180Y007780D01*
X027685Y007780D01*
X027180Y007780D01*
X027180Y007780D01*
X027180Y007780D01*
X026675Y007780D01*
X026675Y007820D01*
X026687Y007898D01*
X026712Y007974D01*
X026748Y008045D01*
X026795Y008109D01*
X026851Y008165D01*
X026915Y008212D01*
X026986Y008248D01*
X027062Y008273D01*
X027140Y008285D01*
X027180Y008285D01*
X027180Y007780D01*
X026675Y007780D01*
X026675Y007740D01*
X026687Y007662D01*
X026712Y007586D01*
X026748Y007515D01*
X026795Y007451D01*
X026851Y007395D01*
X026915Y007348D01*
X026986Y007312D01*
X027062Y007287D01*
X027079Y007285D01*
X026894Y007208D01*
X026806Y007120D01*
X017329Y007120D01*
X016874Y007575D01*
X016980Y007575D01*
X017166Y007652D01*
X017308Y007794D01*
X017385Y007980D01*
X017385Y008180D01*
X017308Y008366D01*
X017166Y008508D01*
X016981Y008585D01*
X016998Y008587D01*
X017074Y008612D01*
X017145Y008648D01*
X017209Y008695D01*
X017265Y008751D01*
X017312Y008815D01*
X017348Y008886D01*
X017373Y008962D01*
X017385Y009040D01*
X017385Y009080D01*
X017385Y009120D01*
X017373Y009198D01*
X017348Y009274D01*
X017312Y009345D01*
X017265Y009409D01*
X017209Y009465D01*
X017145Y009512D01*
X017074Y009548D01*
X016998Y009573D01*
X016920Y009585D01*
X016880Y009585D01*
X016880Y009080D01*
X016880Y009080D01*
X017385Y009080D01*
X016880Y009080D01*
X016880Y009080D01*
X016880Y009080D01*
X016375Y009080D01*
X016375Y009120D01*
X016387Y009198D01*
X016412Y009274D01*
X016448Y009345D01*
X016495Y009409D01*
X016551Y009465D01*
X016615Y009512D01*
X016686Y009548D01*
X016762Y009573D01*
X016840Y009585D01*
X016880Y009585D01*
X016880Y009080D01*
X016375Y009080D01*
X016375Y009040D01*
X016387Y008962D01*
X016412Y008886D01*
X016448Y008815D01*
X016495Y008751D01*
X016551Y008695D01*
X016615Y008648D01*
X016686Y008612D01*
X016762Y008587D01*
X016779Y008585D01*
X016594Y008508D01*
X016452Y008366D01*
X016375Y008180D01*
X016375Y008074D01*
X015829Y008620D01*
X015952Y008620D01*
X016084Y008675D01*
X016185Y008776D01*
X016240Y008908D01*
X016240Y009052D01*
X016185Y009184D01*
X016084Y009285D01*
X015952Y009340D01*
X015859Y009340D01*
X015521Y009678D01*
X015634Y009725D01*
X015699Y009790D01*
X020878Y009790D01*
X020966Y009827D01*
X021033Y009894D01*
X021609Y010469D01*
X021631Y010447D01*
X021792Y010380D01*
X021968Y010380D01*
X022129Y010447D01*
X022253Y010571D01*
X022320Y010732D01*
X022320Y011428D01*
X022253Y011589D01*
X022129Y011713D01*
X022097Y011726D01*
X022120Y011782D01*
X022120Y013443D01*
X022129Y013447D01*
X022253Y013571D01*
X022320Y013732D01*
X022320Y014428D01*
X022253Y014589D01*
X022129Y014713D01*
X021968Y014780D01*
X021792Y014780D01*
X021670Y014729D01*
X021670Y015605D01*
X021692Y015614D01*
X021846Y015768D01*
X021880Y015850D01*
X021914Y015768D01*
X022068Y015614D01*
X022271Y015530D01*
X022489Y015530D01*
X022692Y015614D01*
X022846Y015768D01*
X022930Y015971D01*
X022930Y016189D01*
X022846Y016392D01*
X022692Y016546D01*
X022489Y016630D01*
X022271Y016630D01*
X022234Y016615D01*
X022016Y016833D01*
X021928Y016870D01*
X019882Y016870D01*
X019794Y016833D01*
X019727Y016766D01*
X019561Y016600D01*
X019489Y016630D01*
X019271Y016630D01*
X019068Y016546D01*
X018914Y016392D01*
X018830Y016189D01*
X018830Y015971D01*
X018914Y015768D01*
X019068Y015614D01*
X019271Y015530D01*
X019489Y015530D01*
X019692Y015614D01*
X019846Y015768D01*
X019930Y015971D01*
X019930Y016189D01*
X019900Y016261D01*
X020029Y016390D01*
X020913Y016390D01*
X020830Y016189D01*
X020830Y015971D01*
X020914Y015768D01*
X021068Y015614D01*
X021190Y015563D01*
X021190Y014652D01*
X021129Y014713D01*
X020968Y014780D01*
X020792Y014780D01*
X020631Y014713D01*
X020584Y014666D01*
X020283Y014966D01*
X020216Y015033D01*
X020128Y015070D01*
X016749Y015070D01*
X016684Y015135D01*
X016552Y015190D01*
X016408Y015190D01*
X016276Y015135D01*
X016175Y015034D01*
X016120Y014902D01*
X016120Y014758D01*
X016146Y014697D01*
X016129Y014713D01*
X015968Y014780D01*
X015792Y014780D01*
X015631Y014713D01*
X015507Y014589D01*
X015440Y014428D01*
X015440Y013732D01*
X015507Y013571D01*
X015631Y013447D01*
X015792Y013380D01*
X015968Y013380D01*
X016129Y013447D01*
X016253Y013571D01*
X016320Y013732D01*
X016320Y014428D01*
X016280Y014523D01*
X016408Y014470D01*
X016458Y014470D01*
X016440Y014428D01*
X016440Y013732D01*
X016507Y013571D01*
X016631Y013447D01*
X016791Y013381D01*
X016531Y013120D01*
X007582Y013120D01*
X007494Y013083D01*
X007471Y013060D01*
X006900Y013060D01*
X006900Y013100D01*
X006900Y013540D01*
X006860Y013540D01*
X006860Y013100D01*
X006900Y013100D01*
X007485Y013100D01*
X007485Y013331D01*
X007276Y013540D01*
X007961Y013540D01*
X008026Y013475D01*
X008158Y013420D01*
X008302Y013420D01*
X008434Y013475D01*
X008518Y013559D01*
X008631Y013447D01*
X008792Y013380D01*
X008968Y013380D01*
X009129Y013447D01*
X009253Y013571D01*
X009320Y013732D01*
X009320Y014428D01*
X009253Y014589D01*
X009129Y014713D01*
X008968Y014780D01*
X008792Y014780D01*
X008631Y014713D01*
X008507Y014589D01*
X008440Y014428D01*
X008440Y014079D01*
X008434Y014085D01*
X008302Y014140D01*
X008158Y014140D01*
X008026Y014085D01*
X007961Y014020D01*
X004432Y014020D01*
X004344Y013983D01*
X004277Y013916D01*
X004046Y013685D01*
X003629Y013685D01*
X003275Y013331D01*
X003275Y012829D01*
X003629Y012475D01*
X003640Y012475D01*
X003640Y007582D01*
X003677Y007494D01*
X003744Y007427D01*
X004274Y006896D01*
X004230Y006789D01*
X004230Y006571D01*
X004314Y006368D01*
X004468Y006214D01*
X004550Y006180D01*
X004468Y006146D01*
X004314Y005992D01*
X004230Y005789D01*
X004230Y005571D01*
X004314Y005368D01*
X004468Y005214D01*
X004671Y005130D01*
X004889Y005130D01*
X004961Y005160D01*
X005627Y004494D01*
X005694Y004427D01*
X005782Y004390D01*
X010631Y004390D01*
X010625Y004384D01*
X010578Y004270D01*
X008782Y004270D01*
X008694Y004233D01*
X008061Y003600D01*
X007989Y003630D01*
X007771Y003630D01*
X007568Y003546D01*
X007414Y003392D01*
X007380Y003310D01*
X007346Y003392D01*
X007192Y003546D01*
X006989Y003630D01*
X006771Y003630D01*
X006568Y003546D01*
X006414Y003392D01*
X006330Y003189D01*
X006330Y002971D01*
X006414Y002768D01*
X006568Y002614D01*
X006698Y002560D01*
X004579Y002560D01*
X004425Y002714D02*
X006468Y002714D01*
X006371Y002873D02*
X004266Y002873D01*
X004108Y003031D02*
X006330Y003031D01*
X006330Y003190D02*
X003949Y003190D01*
X003791Y003348D02*
X006396Y003348D01*
X006529Y003507D02*
X003632Y003507D01*
X003474Y003665D02*
X008126Y003665D01*
X008284Y003824D02*
X003315Y003824D01*
X003157Y003982D02*
X008443Y003982D01*
X008601Y004141D02*
X002998Y004141D01*
X002860Y004299D02*
X010590Y004299D01*
X009512Y004915D02*
X009548Y004986D01*
X009573Y005062D01*
X009585Y005140D01*
X009585Y005180D01*
X009585Y005220D01*
X009573Y005298D01*
X009548Y005374D01*
X009512Y005445D01*
X009465Y005509D01*
X009409Y005565D01*
X009345Y005612D01*
X009274Y005648D01*
X009198Y005673D01*
X009181Y005675D01*
X009366Y005752D01*
X009508Y005894D01*
X009585Y006080D01*
X009585Y006280D01*
X009508Y006466D01*
X009366Y006608D01*
X009180Y006685D01*
X008980Y006685D01*
X008794Y006608D01*
X008652Y006466D01*
X008575Y006280D01*
X008575Y006080D01*
X008652Y005894D01*
X008794Y005752D01*
X008979Y005675D01*
X008962Y005673D01*
X008886Y005648D01*
X008815Y005612D01*
X008751Y005565D01*
X008695Y005509D01*
X008648Y005445D01*
X008612Y005374D01*
X008587Y005298D01*
X008575Y005220D01*
X008575Y005180D01*
X009080Y005180D01*
X009585Y005180D01*
X009080Y005180D01*
X009080Y005180D01*
X009080Y005180D01*
X008575Y005180D01*
X008575Y005140D01*
X008587Y005062D01*
X008612Y004986D01*
X008648Y004915D01*
X008681Y004870D01*
X005929Y004870D01*
X005669Y005131D01*
X005671Y005130D01*
X005889Y005130D01*
X006092Y005214D01*
X006246Y005368D01*
X006330Y005571D01*
X006330Y005789D01*
X006246Y005992D01*
X006092Y006146D01*
X006010Y006180D01*
X006092Y006214D01*
X006246Y006368D01*
X006330Y006571D01*
X006330Y006789D01*
X006268Y006940D01*
X012526Y006940D01*
X012452Y006866D01*
X012375Y006680D01*
X012375Y006480D01*
X012452Y006294D01*
X012594Y006152D01*
X012767Y006080D01*
X012594Y006008D01*
X012452Y005866D01*
X012375Y005680D01*
X012375Y005480D01*
X012452Y005294D01*
X012594Y005152D01*
X012780Y005075D01*
X012980Y005075D01*
X013166Y005152D01*
X013304Y005290D01*
X014701Y005290D01*
X014281Y004870D01*
X009479Y004870D01*
X009512Y004915D01*
X009521Y004933D02*
X014344Y004933D01*
X014502Y005092D02*
X013020Y005092D01*
X012740Y005092D02*
X009577Y005092D01*
X009580Y005250D02*
X012496Y005250D01*
X012404Y005409D02*
X009530Y005409D01*
X009406Y005567D02*
X012375Y005567D01*
X012394Y005726D02*
X009302Y005726D01*
X009498Y005884D02*
X012470Y005884D01*
X012677Y006043D02*
X009570Y006043D01*
X009585Y006201D02*
X012545Y006201D01*
X012425Y006360D02*
X009552Y006360D01*
X009456Y006518D02*
X012375Y006518D01*
X012375Y006677D02*
X009201Y006677D01*
X008959Y006677D02*
X006330Y006677D01*
X006311Y006835D02*
X012439Y006835D01*
X013321Y006835D02*
X016936Y006835D01*
X017094Y006677D02*
X013385Y006677D01*
X013385Y006518D02*
X016838Y006518D01*
X017022Y006518D02*
X018738Y006518D01*
X018922Y006518D02*
X026742Y006518D01*
X026886Y006360D02*
X019173Y006360D01*
X019256Y006201D02*
X032720Y006201D01*
X032878Y006043D02*
X019270Y006043D01*
X019225Y005884D02*
X022045Y005884D01*
X021870Y005290D02*
X021259Y005290D01*
X021416Y005133D01*
X021483Y005066D01*
X021520Y004978D01*
X021520Y003682D01*
X021483Y003594D01*
X021416Y003527D01*
X021328Y003490D01*
X021248Y003490D01*
X021346Y003392D01*
X021380Y003310D01*
X021410Y003368D01*
X021460Y003438D01*
X021522Y003500D01*
X021592Y003550D01*
X021669Y003590D01*
X021751Y003616D01*
X021837Y003630D01*
X021860Y003630D01*
X021860Y003100D01*
X021900Y003100D01*
X021900Y003630D01*
X021923Y003630D01*
X022009Y003616D01*
X022091Y003590D01*
X022168Y003550D01*
X022238Y003500D01*
X022300Y003438D01*
X022350Y003368D01*
X022380Y003310D01*
X022414Y003392D01*
X022568Y003546D01*
X022771Y003630D01*
X022989Y003630D01*
X023061Y003600D01*
X023620Y004159D01*
X023620Y004252D01*
X023675Y004384D01*
X023776Y004485D01*
X023889Y004532D01*
X022981Y005440D01*
X022798Y005440D01*
X022800Y005438D01*
X022850Y005368D01*
X022890Y005291D01*
X022916Y005209D01*
X022930Y005123D01*
X022930Y005089D01*
X022389Y005089D01*
X022389Y005071D01*
X022930Y005071D01*
X022930Y005037D01*
X022916Y004951D01*
X022890Y004869D01*
X022850Y004792D01*
X022800Y004722D01*
X022738Y004660D01*
X022668Y004610D01*
X022591Y004570D01*
X022509Y004544D01*
X022423Y004530D01*
X022389Y004530D01*
X022389Y005071D01*
X022371Y005071D01*
X021830Y005071D01*
X021830Y005037D01*
X021844Y004951D01*
X021870Y004869D01*
X021910Y004792D01*
X021960Y004722D01*
X022022Y004660D01*
X022092Y004610D01*
X022169Y004570D01*
X022251Y004544D01*
X022337Y004530D01*
X022371Y004530D01*
X022371Y005071D01*
X022371Y005089D01*
X021830Y005089D01*
X021830Y005123D01*
X021844Y005209D01*
X021870Y005290D01*
X021857Y005250D02*
X021299Y005250D01*
X021458Y005092D02*
X021830Y005092D01*
X021849Y004933D02*
X021520Y004933D01*
X021520Y004775D02*
X021922Y004775D01*
X022083Y004616D02*
X021520Y004616D01*
X021520Y004458D02*
X023748Y004458D01*
X023805Y004616D02*
X022677Y004616D01*
X022838Y004775D02*
X023646Y004775D01*
X023488Y004933D02*
X022911Y004933D01*
X022930Y005092D02*
X023329Y005092D01*
X023171Y005250D02*
X022903Y005250D01*
X022821Y005409D02*
X023012Y005409D01*
X023374Y005726D02*
X033090Y005726D01*
X033096Y005567D02*
X025641Y005567D01*
X025692Y005546D02*
X025489Y005630D01*
X025271Y005630D01*
X025068Y005546D01*
X024914Y005392D01*
X024830Y005189D01*
X024830Y004971D01*
X024914Y004768D01*
X025068Y004614D01*
X025271Y004530D01*
X025489Y004530D01*
X025692Y004614D01*
X025846Y004768D01*
X025930Y004971D01*
X025930Y005189D01*
X025846Y005392D01*
X025692Y005546D01*
X025829Y005409D02*
X033163Y005409D01*
X033264Y005250D02*
X025905Y005250D01*
X025930Y005092D02*
X033138Y005092D01*
X033092Y004933D02*
X025914Y004933D01*
X025849Y004775D02*
X033102Y004775D01*
X033090Y004886D02*
X033555Y004886D01*
X033555Y004421D01*
X033555Y004886D01*
X033555Y004886D01*
X033555Y004886D01*
X033090Y004886D01*
X033177Y004616D02*
X025694Y004616D01*
X025066Y004616D02*
X024483Y004616D01*
X024325Y004775D02*
X024911Y004775D01*
X024846Y004933D02*
X024166Y004933D01*
X024008Y005092D02*
X024830Y005092D01*
X024855Y005250D02*
X023849Y005250D01*
X023691Y005409D02*
X024931Y005409D01*
X025119Y005567D02*
X023532Y005567D01*
X023215Y005884D02*
X033037Y005884D01*
X033398Y006201D02*
X033770Y006201D01*
X033770Y006360D02*
X033240Y006360D01*
X033081Y006518D02*
X033770Y006518D01*
X033770Y006677D02*
X032923Y006677D01*
X032764Y006835D02*
X033770Y006835D01*
X033770Y006994D02*
X032606Y006994D01*
X032447Y007152D02*
X033770Y007152D01*
X033770Y007311D02*
X032289Y007311D01*
X032130Y007469D02*
X033770Y007469D01*
X033770Y007628D02*
X031972Y007628D01*
X031769Y007152D02*
X031357Y007152D01*
X031927Y006994D02*
X028938Y006994D01*
X028908Y007066D02*
X028985Y006880D01*
X028985Y006680D01*
X028908Y006494D01*
X028766Y006352D01*
X028580Y006275D01*
X028380Y006275D01*
X028194Y006352D01*
X028052Y006494D01*
X027975Y006680D01*
X027975Y006880D01*
X028052Y007066D01*
X028194Y007208D01*
X028379Y007285D01*
X028362Y007287D01*
X028286Y007312D01*
X028215Y007348D01*
X028151Y007395D01*
X028095Y007451D01*
X028048Y007515D01*
X028012Y007586D01*
X027987Y007662D01*
X027975Y007740D01*
X027975Y007780D01*
X028480Y007780D01*
X028985Y007780D01*
X028985Y007820D01*
X028973Y007898D01*
X028948Y007974D01*
X028912Y008045D01*
X028865Y008109D01*
X028809Y008165D01*
X028745Y008212D01*
X028674Y008248D01*
X028598Y008273D01*
X028520Y008285D01*
X028480Y008285D01*
X028480Y007780D01*
X028480Y007780D01*
X028480Y007780D01*
X028985Y007780D01*
X028985Y007740D01*
X028973Y007662D01*
X028948Y007586D01*
X028912Y007515D01*
X028865Y007451D01*
X028809Y007395D01*
X028745Y007348D01*
X028674Y007312D01*
X028598Y007287D01*
X028581Y007285D01*
X028766Y007208D01*
X028908Y007066D01*
X028822Y007152D02*
X030403Y007152D01*
X030375Y007311D02*
X028669Y007311D01*
X028878Y007469D02*
X030375Y007469D01*
X030375Y007628D02*
X028961Y007628D01*
X028985Y007786D02*
X030375Y007786D01*
X030226Y007945D02*
X028958Y007945D01*
X028870Y008103D02*
X030068Y008103D01*
X029909Y008262D02*
X028632Y008262D01*
X028480Y008262D02*
X028480Y008262D01*
X028480Y008285D02*
X028440Y008285D01*
X028362Y008273D01*
X028286Y008248D01*
X028215Y008212D01*
X028151Y008165D01*
X028095Y008109D01*
X028048Y008045D01*
X028012Y007974D01*
X027987Y007898D01*
X027975Y007820D01*
X027975Y007780D01*
X028480Y007780D01*
X028480Y007780D01*
X028480Y008285D01*
X028328Y008262D02*
X027332Y008262D01*
X027180Y008262D02*
X027180Y008262D01*
X027028Y008262D02*
X025090Y008262D01*
X025090Y008302D02*
X025035Y008434D01*
X024934Y008535D01*
X024802Y008590D01*
X024709Y008590D01*
X024183Y009116D01*
X024116Y009183D01*
X024028Y009220D01*
X022917Y009220D01*
X022846Y009392D01*
X022692Y009546D01*
X022489Y009630D01*
X022271Y009630D01*
X022068Y009546D01*
X021914Y009392D01*
X021830Y009189D01*
X021830Y008971D01*
X021914Y008768D01*
X022068Y008614D01*
X022271Y008530D01*
X022489Y008530D01*
X022692Y008614D01*
X022818Y008740D01*
X023881Y008740D01*
X024370Y008251D01*
X024370Y008158D01*
X024425Y008026D01*
X024526Y007925D01*
X024658Y007870D01*
X024802Y007870D01*
X024934Y007925D01*
X025035Y008026D01*
X025090Y008158D01*
X025090Y008302D01*
X025041Y008420D02*
X029751Y008420D01*
X029592Y008579D02*
X028589Y008579D01*
X028371Y008579D02*
X027289Y008579D01*
X027071Y008579D02*
X025607Y008579D01*
X025692Y008614D02*
X025489Y008530D01*
X025271Y008530D01*
X025068Y008614D01*
X024914Y008768D01*
X024830Y008971D01*
X024830Y009189D01*
X024914Y009392D01*
X025068Y009546D01*
X025271Y009630D01*
X025489Y009630D01*
X025692Y009546D01*
X025846Y009392D01*
X025930Y009189D01*
X025930Y008971D01*
X025846Y008768D01*
X025692Y008614D01*
X025815Y008737D02*
X026809Y008737D01*
X026710Y008896D02*
X025899Y008896D01*
X025930Y009054D02*
X026675Y009054D01*
X026688Y009213D02*
X025920Y009213D01*
X025855Y009371D02*
X026757Y009371D01*
X026946Y009530D02*
X025708Y009530D01*
X025052Y009530D02*
X022708Y009530D01*
X022855Y009371D02*
X024905Y009371D01*
X024840Y009213D02*
X024046Y009213D01*
X024245Y009054D02*
X024830Y009054D01*
X024861Y008896D02*
X024404Y008896D01*
X024562Y008737D02*
X024945Y008737D01*
X024829Y008579D02*
X025153Y008579D01*
X024359Y008262D02*
X019351Y008262D01*
X019385Y008180D02*
X019308Y008366D01*
X019166Y008508D01*
X018981Y008585D01*
X018998Y008587D01*
X019074Y008612D01*
X019145Y008648D01*
X019209Y008695D01*
X019265Y008751D01*
X019312Y008815D01*
X019348Y008886D01*
X019373Y008962D01*
X019385Y009040D01*
X019385Y009080D01*
X019385Y009120D01*
X019373Y009198D01*
X019348Y009274D01*
X019312Y009345D01*
X019265Y009409D01*
X019209Y009465D01*
X019145Y009512D01*
X019074Y009548D01*
X018998Y009573D01*
X018920Y009585D01*
X018880Y009585D01*
X018880Y009080D01*
X018880Y009080D01*
X019385Y009080D01*
X018880Y009080D01*
X018880Y009080D01*
X018880Y009080D01*
X018375Y009080D01*
X018375Y009120D01*
X018387Y009198D01*
X018412Y009274D01*
X018448Y009345D01*
X018495Y009409D01*
X018551Y009465D01*
X018615Y009512D01*
X018686Y009548D01*
X018762Y009573D01*
X018840Y009585D01*
X018880Y009585D01*
X018880Y009080D01*
X018880Y008585D01*
X018880Y008585D01*
X018880Y009080D01*
X018880Y009080D01*
X018375Y009080D01*
X018375Y009040D01*
X018387Y008962D01*
X018412Y008886D01*
X018448Y008815D01*
X018495Y008751D01*
X018551Y008695D01*
X018615Y008648D01*
X018686Y008612D01*
X018762Y008587D01*
X018779Y008585D01*
X018594Y008508D01*
X018468Y008382D01*
X018190Y008659D01*
X018190Y008752D01*
X018135Y008884D01*
X018034Y008985D01*
X017902Y009040D01*
X017758Y009040D01*
X017626Y008985D01*
X017525Y008884D01*
X017470Y008752D01*
X017470Y008608D01*
X017525Y008476D01*
X017626Y008375D01*
X017758Y008320D01*
X017851Y008320D01*
X018227Y007944D01*
X018294Y007877D01*
X018382Y007840D01*
X018433Y007840D01*
X018452Y007794D01*
X018594Y007652D01*
X018780Y007575D01*
X018980Y007575D01*
X019166Y007652D01*
X019308Y007794D01*
X019385Y007980D01*
X019385Y008180D01*
X019385Y008103D02*
X024393Y008103D01*
X024506Y007945D02*
X019370Y007945D01*
X019300Y007786D02*
X026675Y007786D01*
X026699Y007628D02*
X019107Y007628D01*
X018653Y007628D02*
X017107Y007628D01*
X016980Y007469D02*
X026782Y007469D01*
X026991Y007311D02*
X017139Y007311D01*
X017297Y007152D02*
X026838Y007152D01*
X027369Y007311D02*
X028291Y007311D01*
X028138Y007152D02*
X027522Y007152D01*
X027638Y006994D02*
X028022Y006994D01*
X027975Y006835D02*
X027685Y006835D01*
X027684Y006677D02*
X027976Y006677D01*
X028042Y006518D02*
X027618Y006518D01*
X027474Y006360D02*
X028186Y006360D01*
X028774Y006360D02*
X032561Y006360D01*
X032403Y006518D02*
X028918Y006518D01*
X028984Y006677D02*
X032244Y006677D01*
X032086Y006835D02*
X028985Y006835D01*
X028082Y007469D02*
X027578Y007469D01*
X027661Y007628D02*
X027999Y007628D01*
X027975Y007786D02*
X027685Y007786D01*
X027658Y007945D02*
X028002Y007945D01*
X028090Y008103D02*
X027570Y008103D01*
X027180Y008103D02*
X027180Y008103D01*
X027180Y007945D02*
X027180Y007945D01*
X027180Y007786D02*
X027180Y007786D01*
X026790Y008103D02*
X025067Y008103D01*
X024954Y007945D02*
X026702Y007945D01*
X027551Y008737D02*
X028109Y008737D01*
X028851Y008737D02*
X029434Y008737D01*
X029954Y008896D02*
X030485Y008896D01*
X030400Y008737D02*
X030112Y008737D01*
X030271Y008579D02*
X030375Y008579D01*
X030880Y008737D02*
X030880Y008737D01*
X030880Y008896D02*
X030880Y008896D01*
X030880Y009054D02*
X030880Y009054D01*
X031055Y009054D02*
X033770Y009054D01*
X033770Y008896D02*
X031275Y008896D01*
X031360Y008737D02*
X033770Y008737D01*
X033770Y008579D02*
X031385Y008579D01*
X031359Y008420D02*
X033770Y008420D01*
X033770Y008262D02*
X031273Y008262D01*
X031046Y008103D02*
X033770Y008103D01*
X033770Y007945D02*
X031385Y007945D01*
X031385Y007786D02*
X033770Y007786D01*
X033770Y009213D02*
X029596Y009213D01*
X029795Y009054D02*
X030705Y009054D01*
X028979Y010005D02*
X033770Y010005D01*
X033770Y009847D02*
X028928Y009847D01*
X028800Y009688D02*
X033770Y009688D01*
X033770Y009530D02*
X028714Y009530D01*
X028903Y009371D02*
X033770Y009371D01*
X033770Y010164D02*
X028978Y010164D01*
X028923Y010322D02*
X033770Y010322D01*
X033770Y010481D02*
X028788Y010481D01*
X028480Y010481D02*
X028480Y010481D01*
X028480Y010322D02*
X028480Y010322D01*
X028480Y010164D02*
X028480Y010164D01*
X028480Y010005D02*
X028480Y010005D01*
X028480Y009847D02*
X028480Y009847D01*
X028480Y009688D02*
X028480Y009688D01*
X028246Y009530D02*
X027414Y009530D01*
X027500Y009688D02*
X028160Y009688D01*
X028032Y009847D02*
X027628Y009847D01*
X027679Y010005D02*
X027981Y010005D01*
X027982Y010164D02*
X027678Y010164D01*
X027623Y010322D02*
X028037Y010322D01*
X028172Y010481D02*
X027488Y010481D01*
X027180Y010481D02*
X027180Y010481D01*
X027180Y010322D02*
X027180Y010322D01*
X027180Y010164D02*
X027180Y010164D01*
X026872Y010481D02*
X024757Y010481D01*
X024692Y010546D02*
X024846Y010392D01*
X024930Y010189D01*
X024930Y009971D01*
X024846Y009768D01*
X024692Y009614D01*
X024489Y009530D01*
X024271Y009530D01*
X024068Y009614D01*
X023914Y009768D01*
X023880Y009850D01*
X023846Y009768D01*
X023692Y009614D01*
X023489Y009530D01*
X023271Y009530D01*
X023068Y009614D01*
X022914Y009768D01*
X022830Y009971D01*
X022830Y010189D01*
X022914Y010392D01*
X023068Y010546D01*
X023271Y010630D01*
X023489Y010630D01*
X023692Y010546D01*
X023846Y010392D01*
X023880Y010310D01*
X023914Y010392D01*
X024068Y010546D01*
X024271Y010630D01*
X024489Y010630D01*
X024692Y010546D01*
X024875Y010322D02*
X026737Y010322D01*
X026682Y010164D02*
X024930Y010164D01*
X024930Y010005D02*
X026681Y010005D01*
X026732Y009847D02*
X024879Y009847D01*
X024766Y009688D02*
X026860Y009688D01*
X027603Y009371D02*
X028057Y009371D01*
X028480Y008103D02*
X028480Y008103D01*
X028480Y007945D02*
X028480Y007945D01*
X028480Y007786D02*
X028480Y007786D01*
X024201Y008420D02*
X019254Y008420D01*
X018996Y008579D02*
X022153Y008579D01*
X021945Y008737D02*
X019251Y008737D01*
X019351Y008896D02*
X021861Y008896D01*
X021830Y009054D02*
X019385Y009054D01*
X019368Y009213D02*
X021840Y009213D01*
X021905Y009371D02*
X019293Y009371D01*
X019110Y009530D02*
X022052Y009530D01*
X022881Y009847D02*
X020986Y009847D01*
X021144Y010005D02*
X022830Y010005D01*
X022830Y010164D02*
X021303Y010164D01*
X021461Y010322D02*
X022885Y010322D01*
X023003Y010481D02*
X022163Y010481D01*
X022281Y010639D02*
X033770Y010639D01*
X033770Y010798D02*
X022320Y010798D01*
X022320Y010956D02*
X033770Y010956D01*
X033770Y011115D02*
X022320Y011115D01*
X022320Y011273D02*
X033770Y011273D01*
X033770Y011432D02*
X022318Y011432D01*
X022252Y011590D02*
X033770Y011590D01*
X033770Y011749D02*
X022106Y011749D01*
X022120Y011907D02*
X033770Y011907D01*
X033770Y012066D02*
X022120Y012066D01*
X022120Y012224D02*
X033770Y012224D01*
X033770Y012383D02*
X022120Y012383D01*
X022120Y012541D02*
X033770Y012541D01*
X033770Y012700D02*
X022120Y012700D01*
X022120Y012858D02*
X033770Y012858D01*
X033770Y013017D02*
X022120Y013017D01*
X022120Y013175D02*
X033770Y013175D01*
X033770Y013334D02*
X022120Y013334D01*
X022174Y013492D02*
X033770Y013492D01*
X033770Y013651D02*
X022286Y013651D01*
X022320Y013809D02*
X033770Y013809D01*
X033770Y013968D02*
X022320Y013968D01*
X022320Y014126D02*
X033770Y014126D01*
X033770Y014285D02*
X022320Y014285D01*
X022314Y014443D02*
X033770Y014443D01*
X033770Y014602D02*
X022241Y014602D01*
X022016Y014760D02*
X033770Y014760D01*
X033770Y014919D02*
X021670Y014919D01*
X021670Y015077D02*
X033770Y015077D01*
X033770Y015236D02*
X021670Y015236D01*
X021670Y015394D02*
X033770Y015394D01*
X033770Y015553D02*
X022544Y015553D01*
X022789Y015711D02*
X033770Y015711D01*
X033770Y015870D02*
X022888Y015870D01*
X022930Y016028D02*
X033770Y016028D01*
X033770Y016187D02*
X022930Y016187D01*
X022866Y016345D02*
X033770Y016345D01*
X033770Y016504D02*
X022734Y016504D01*
X022187Y016662D02*
X033770Y016662D01*
X033770Y016821D02*
X022029Y016821D01*
X020894Y016345D02*
X019984Y016345D01*
X019930Y016187D02*
X020830Y016187D01*
X020830Y016028D02*
X019930Y016028D01*
X019888Y015870D02*
X020872Y015870D01*
X020971Y015711D02*
X019789Y015711D01*
X019544Y015553D02*
X021190Y015553D01*
X021190Y015394D02*
X002860Y015394D01*
X002860Y015236D02*
X021190Y015236D01*
X021190Y015077D02*
X016742Y015077D01*
X016218Y015077D02*
X002860Y015077D01*
X002860Y014919D02*
X016127Y014919D01*
X016120Y014760D02*
X016016Y014760D01*
X015744Y014760D02*
X015011Y014760D01*
X014983Y014769D02*
X014915Y014780D01*
X014880Y014780D01*
X014880Y014080D01*
X015320Y014080D01*
X015320Y014375D01*
X015309Y014443D01*
X015446Y014443D01*
X015309Y014443D02*
X015288Y014509D01*
X015256Y014571D01*
X015216Y014627D01*
X015167Y014676D01*
X015111Y014716D01*
X015049Y014748D01*
X014983Y014769D01*
X014880Y014760D02*
X014880Y014760D01*
X014880Y014780D02*
X014845Y014780D01*
X014777Y014769D01*
X014711Y014748D01*
X014649Y014716D01*
X014593Y014676D01*
X014544Y014627D01*
X014504Y014571D01*
X014472Y014509D01*
X014451Y014443D01*
X014314Y014443D01*
X014320Y014428D02*
X014253Y014589D01*
X014129Y014713D01*
X013968Y014780D01*
X013792Y014780D01*
X013631Y014713D01*
X013507Y014589D01*
X013440Y014428D01*
X013440Y013732D01*
X013507Y013571D01*
X013631Y013447D01*
X013792Y013380D01*
X013968Y013380D01*
X014129Y013447D01*
X014253Y013571D01*
X014320Y013732D01*
X014320Y014428D01*
X014440Y014375D02*
X014440Y014080D01*
X014880Y014080D01*
X014880Y014080D01*
X014880Y014080D01*
X015320Y014080D01*
X015320Y013785D01*
X015309Y013717D01*
X015288Y013651D01*
X015256Y013589D01*
X015216Y013533D01*
X015167Y013484D01*
X015111Y013444D01*
X015049Y013412D01*
X014983Y013391D01*
X014915Y013380D01*
X014880Y013380D01*
X014880Y014080D01*
X014880Y014080D01*
X014880Y014080D01*
X014880Y014780D01*
X014749Y014760D02*
X014016Y014760D01*
X013744Y014760D02*
X013016Y014760D01*
X012968Y014780D02*
X012792Y014780D01*
X012631Y014713D01*
X012507Y014589D01*
X012440Y014428D01*
X012440Y013732D01*
X012507Y013571D01*
X012631Y013447D01*
X012792Y013380D01*
X012968Y013380D01*
X013129Y013447D01*
X013253Y013571D01*
X013320Y013732D01*
X013320Y014428D01*
X013253Y014589D01*
X013129Y014713D01*
X012968Y014780D01*
X012744Y014760D02*
X012016Y014760D01*
X011968Y014780D02*
X011792Y014780D01*
X011631Y014713D01*
X011507Y014589D01*
X011440Y014428D01*
X011440Y013732D01*
X011507Y013571D01*
X011631Y013447D01*
X011792Y013380D01*
X011968Y013380D01*
X012129Y013447D01*
X012253Y013571D01*
X012320Y013732D01*
X012320Y014428D01*
X012253Y014589D01*
X012129Y014713D01*
X011968Y014780D01*
X011744Y014760D02*
X011016Y014760D01*
X010968Y014780D02*
X010792Y014780D01*
X010631Y014713D01*
X010507Y014589D01*
X010440Y014428D01*
X010440Y013732D01*
X010507Y013571D01*
X010631Y013447D01*
X010792Y013380D01*
X010968Y013380D01*
X011129Y013447D01*
X011253Y013571D01*
X011320Y013732D01*
X011320Y014428D01*
X011253Y014589D01*
X011129Y014713D01*
X010968Y014780D01*
X010744Y014760D02*
X010016Y014760D01*
X009968Y014780D02*
X009792Y014780D01*
X009631Y014713D01*
X009507Y014589D01*
X009440Y014428D01*
X009440Y013732D01*
X009507Y013571D01*
X009631Y013447D01*
X009792Y013380D01*
X009968Y013380D01*
X010129Y013447D01*
X010253Y013571D01*
X010320Y013732D01*
X010320Y014428D01*
X010253Y014589D01*
X010129Y014713D01*
X009968Y014780D01*
X009744Y014760D02*
X009016Y014760D01*
X008744Y014760D02*
X002860Y014760D01*
X002860Y014602D02*
X008519Y014602D01*
X008446Y014443D02*
X002860Y014443D01*
X002860Y014285D02*
X008440Y014285D01*
X008440Y014126D02*
X008335Y014126D01*
X008125Y014126D02*
X002860Y014126D01*
X002860Y013968D02*
X004328Y013968D01*
X004170Y013809D02*
X002860Y013809D01*
X002860Y013651D02*
X003595Y013651D01*
X003436Y013492D02*
X002860Y013492D01*
X002860Y013334D02*
X003278Y013334D01*
X003275Y013175D02*
X002860Y013175D01*
X002860Y013017D02*
X003275Y013017D01*
X003275Y012858D02*
X002860Y012858D01*
X002860Y012700D02*
X003405Y012700D01*
X003563Y012541D02*
X002860Y012541D01*
X002860Y012383D02*
X003640Y012383D01*
X003640Y012224D02*
X002860Y012224D01*
X002860Y012066D02*
X003640Y012066D01*
X003640Y011907D02*
X002860Y011907D01*
X002860Y011749D02*
X003640Y011749D01*
X003640Y011590D02*
X002860Y011590D01*
X002860Y011432D02*
X003640Y011432D01*
X003640Y011273D02*
X002860Y011273D01*
X002860Y011115D02*
X003640Y011115D01*
X003640Y010956D02*
X002860Y010956D01*
X002860Y010798D02*
X003640Y010798D01*
X003640Y010639D02*
X002860Y010639D01*
X002860Y010481D02*
X003640Y010481D01*
X003640Y010322D02*
X002860Y010322D01*
X002860Y010164D02*
X003640Y010164D01*
X003640Y010005D02*
X002860Y010005D01*
X002860Y009847D02*
X003640Y009847D01*
X003640Y009688D02*
X002860Y009688D01*
X002860Y009530D02*
X003640Y009530D01*
X003640Y009371D02*
X002860Y009371D01*
X002860Y009213D02*
X003640Y009213D01*
X003640Y009054D02*
X002860Y009054D01*
X002860Y008896D02*
X003640Y008896D01*
X003640Y008737D02*
X002860Y008737D01*
X002860Y008579D02*
X003640Y008579D01*
X003640Y008420D02*
X002860Y008420D01*
X002860Y008262D02*
X003640Y008262D01*
X003640Y008103D02*
X002860Y008103D01*
X002860Y007945D02*
X003640Y007945D01*
X003640Y007786D02*
X002860Y007786D01*
X002860Y007628D02*
X003640Y007628D01*
X003702Y007469D02*
X002860Y007469D01*
X002860Y007311D02*
X003860Y007311D01*
X004019Y007152D02*
X002860Y007152D01*
X002860Y006994D02*
X004177Y006994D01*
X004249Y006835D02*
X002860Y006835D01*
X002860Y006677D02*
X004230Y006677D01*
X004252Y006518D02*
X002860Y006518D01*
X002860Y006360D02*
X004323Y006360D01*
X004499Y006201D02*
X002860Y006201D01*
X002860Y006043D02*
X004365Y006043D01*
X004269Y005884D02*
X002860Y005884D01*
X002860Y005726D02*
X004230Y005726D01*
X004231Y005567D02*
X002860Y005567D01*
X002860Y005409D02*
X004297Y005409D01*
X004432Y005250D02*
X002860Y005250D01*
X002860Y005092D02*
X005029Y005092D01*
X005188Y004933D02*
X002860Y004933D01*
X002860Y004775D02*
X005346Y004775D01*
X005505Y004616D02*
X002860Y004616D01*
X002860Y004458D02*
X005663Y004458D01*
X005866Y004933D02*
X008639Y004933D01*
X008583Y005092D02*
X005708Y005092D01*
X006128Y005250D02*
X008580Y005250D01*
X008630Y005409D02*
X006263Y005409D01*
X006329Y005567D02*
X008754Y005567D01*
X008858Y005726D02*
X006330Y005726D01*
X006291Y005884D02*
X008662Y005884D01*
X008590Y006043D02*
X006195Y006043D01*
X006061Y006201D02*
X008575Y006201D01*
X008608Y006360D02*
X006237Y006360D01*
X006308Y006518D02*
X008704Y006518D01*
X008384Y008020D02*
X006829Y008020D01*
X006330Y008519D01*
X006330Y009125D01*
X006225Y009230D01*
X005335Y009230D01*
X005280Y009175D01*
X005261Y009194D01*
X005219Y009218D01*
X005174Y009230D01*
X004800Y009230D01*
X004800Y008700D01*
X004760Y008700D01*
X004760Y009221D01*
X007278Y011739D01*
X007325Y011626D01*
X007426Y011525D01*
X007558Y011470D01*
X007702Y011470D01*
X007834Y011525D01*
X007899Y011590D01*
X008508Y011590D01*
X008507Y011589D01*
X008440Y011428D01*
X008440Y010732D01*
X008507Y010571D01*
X008631Y010447D01*
X008792Y010380D01*
X008968Y010380D01*
X009129Y010447D01*
X009201Y010519D01*
X010277Y009444D01*
X010344Y009377D01*
X010432Y009340D01*
X011411Y009340D01*
X011476Y009275D01*
X011589Y009228D01*
X010831Y008470D01*
X010749Y008470D01*
X010684Y008535D01*
X010552Y008590D01*
X010408Y008590D01*
X010276Y008535D01*
X010175Y008434D01*
X010120Y008302D01*
X010120Y008158D01*
X010175Y008026D01*
X010181Y008020D01*
X009376Y008020D01*
X009346Y008092D01*
X009192Y008246D01*
X008989Y008330D01*
X008771Y008330D01*
X008568Y008246D01*
X008414Y008092D01*
X008384Y008020D01*
X008425Y008103D02*
X006746Y008103D01*
X006588Y008262D02*
X008605Y008262D01*
X009155Y008262D02*
X010120Y008262D01*
X010143Y008103D02*
X009335Y008103D01*
X010169Y008420D02*
X006429Y008420D01*
X006330Y008579D02*
X010381Y008579D01*
X010579Y008579D02*
X010939Y008579D01*
X011098Y008737D02*
X006330Y008737D01*
X006330Y008896D02*
X011256Y008896D01*
X011415Y009054D02*
X006330Y009054D01*
X006242Y009213D02*
X011573Y009213D01*
X010357Y009371D02*
X004910Y009371D01*
X004800Y009213D02*
X004760Y009213D01*
X004760Y009054D02*
X004800Y009054D01*
X004800Y008896D02*
X004760Y008896D01*
X004760Y008737D02*
X004800Y008737D01*
X005229Y009213D02*
X005318Y009213D01*
X005069Y009530D02*
X010191Y009530D01*
X010033Y009688D02*
X005227Y009688D01*
X005386Y009847D02*
X009874Y009847D01*
X009716Y010005D02*
X005544Y010005D01*
X005703Y010164D02*
X009557Y010164D01*
X009399Y010322D02*
X005861Y010322D01*
X006020Y010481D02*
X008597Y010481D01*
X008479Y010639D02*
X006178Y010639D01*
X006337Y010798D02*
X008440Y010798D01*
X008440Y010956D02*
X006495Y010956D01*
X006654Y011115D02*
X008440Y011115D01*
X008440Y011273D02*
X006812Y011273D01*
X006971Y011432D02*
X008442Y011432D01*
X007361Y011590D02*
X007129Y011590D01*
X007609Y012520D02*
X007729Y012640D01*
X016678Y012640D01*
X016766Y012677D01*
X017584Y013494D01*
X017631Y013447D01*
X017792Y013380D01*
X017968Y013380D01*
X018129Y013447D01*
X018253Y013571D01*
X018320Y013732D01*
X018320Y014428D01*
X018253Y014589D01*
X018252Y014590D01*
X018508Y014590D01*
X018507Y014589D01*
X018440Y014428D01*
X018440Y013732D01*
X018507Y013571D01*
X018631Y013447D01*
X018663Y013434D01*
X018640Y013378D01*
X018640Y011717D01*
X018631Y011713D01*
X018507Y011589D01*
X018440Y011428D01*
X018440Y010732D01*
X018507Y010571D01*
X018508Y010570D01*
X018252Y010570D01*
X018253Y010571D01*
X018320Y010732D01*
X018320Y011428D01*
X018253Y011589D01*
X018129Y011713D01*
X017968Y011780D01*
X017792Y011780D01*
X017631Y011713D01*
X017507Y011589D01*
X017440Y011428D01*
X017440Y010732D01*
X017507Y010571D01*
X017508Y010570D01*
X017252Y010570D01*
X017253Y010571D01*
X017320Y010732D01*
X017320Y011428D01*
X017253Y011589D01*
X017129Y011713D01*
X016968Y011780D01*
X016792Y011780D01*
X016631Y011713D01*
X016507Y011589D01*
X016440Y011428D01*
X016440Y010732D01*
X016507Y010571D01*
X016508Y010570D01*
X016242Y010570D01*
X016256Y010589D01*
X016288Y010651D01*
X016309Y010717D01*
X016320Y010785D01*
X016320Y011080D01*
X016320Y011375D01*
X016309Y011443D01*
X016288Y011509D01*
X016256Y011571D01*
X016216Y011627D01*
X016167Y011676D01*
X016111Y011716D01*
X016049Y011748D01*
X015983Y011769D01*
X015915Y011780D01*
X015880Y011780D01*
X015880Y011080D01*
X015880Y011080D01*
X016320Y011080D01*
X015880Y011080D01*
X015880Y011080D01*
X015880Y011780D01*
X015845Y011780D01*
X015777Y011769D01*
X015711Y011748D01*
X015670Y011727D01*
X015670Y012328D01*
X015633Y012416D01*
X015566Y012483D01*
X015478Y012520D01*
X007609Y012520D01*
X007630Y012541D02*
X018640Y012541D01*
X018640Y012383D02*
X015647Y012383D01*
X015670Y012224D02*
X018640Y012224D01*
X018640Y012066D02*
X015670Y012066D01*
X015670Y011907D02*
X018640Y011907D01*
X018640Y011749D02*
X018044Y011749D01*
X018252Y011590D02*
X018508Y011590D01*
X018442Y011432D02*
X018318Y011432D01*
X018320Y011273D02*
X018440Y011273D01*
X018440Y011115D02*
X018320Y011115D01*
X018320Y010956D02*
X018440Y010956D01*
X018440Y010798D02*
X018320Y010798D01*
X018281Y010639D02*
X018479Y010639D01*
X017479Y010639D02*
X017281Y010639D01*
X017320Y010798D02*
X017440Y010798D01*
X017440Y010956D02*
X017320Y010956D01*
X017320Y011115D02*
X017440Y011115D01*
X017440Y011273D02*
X017320Y011273D01*
X017318Y011432D02*
X017442Y011432D01*
X017508Y011590D02*
X017252Y011590D01*
X017044Y011749D02*
X017716Y011749D01*
X016716Y011749D02*
X016047Y011749D01*
X015880Y011749D02*
X015880Y011749D01*
X015880Y011590D02*
X015880Y011590D01*
X015880Y011432D02*
X015880Y011432D01*
X015880Y011273D02*
X015880Y011273D01*
X015880Y011115D02*
X015880Y011115D01*
X016320Y011115D02*
X016440Y011115D01*
X016440Y011273D02*
X016320Y011273D01*
X016311Y011432D02*
X016442Y011432D01*
X016508Y011590D02*
X016242Y011590D01*
X015713Y011749D02*
X015670Y011749D01*
X016320Y010956D02*
X016440Y010956D01*
X016440Y010798D02*
X016320Y010798D01*
X016282Y010639D02*
X016479Y010639D01*
X015545Y009688D02*
X022994Y009688D01*
X023766Y009688D02*
X023994Y009688D01*
X023881Y009847D02*
X023879Y009847D01*
X023875Y010322D02*
X023885Y010322D01*
X024003Y010481D02*
X023757Y010481D01*
X023884Y008737D02*
X022815Y008737D01*
X022607Y008579D02*
X024042Y008579D01*
X018880Y008737D02*
X018880Y008737D01*
X018880Y008896D02*
X018880Y008896D01*
X018880Y009054D02*
X018880Y009054D01*
X018880Y009213D02*
X018880Y009213D01*
X018880Y009371D02*
X018880Y009371D01*
X018880Y009530D02*
X018880Y009530D01*
X018650Y009530D02*
X017110Y009530D01*
X016880Y009530D02*
X016880Y009530D01*
X016880Y009371D02*
X016880Y009371D01*
X016880Y009213D02*
X016880Y009213D01*
X016467Y009371D02*
X015828Y009371D01*
X015670Y009530D02*
X016650Y009530D01*
X017293Y009371D02*
X018467Y009371D01*
X018392Y009213D02*
X017368Y009213D01*
X017385Y009054D02*
X018375Y009054D01*
X018409Y008896D02*
X018124Y008896D01*
X018190Y008737D02*
X018509Y008737D01*
X018271Y008579D02*
X018764Y008579D01*
X018506Y008420D02*
X018429Y008420D01*
X017909Y008262D02*
X017351Y008262D01*
X017385Y008103D02*
X018068Y008103D01*
X018226Y007945D02*
X017370Y007945D01*
X017300Y007786D02*
X018460Y007786D01*
X017581Y008420D02*
X017254Y008420D01*
X017482Y008579D02*
X016996Y008579D01*
X016764Y008579D02*
X015871Y008579D01*
X016029Y008420D02*
X016506Y008420D01*
X016409Y008262D02*
X016188Y008262D01*
X016346Y008103D02*
X016375Y008103D01*
X016509Y008737D02*
X016146Y008737D01*
X016235Y008896D02*
X016409Y008896D01*
X016375Y009054D02*
X016239Y009054D01*
X016157Y009213D02*
X016392Y009213D01*
X017251Y008737D02*
X017470Y008737D01*
X017536Y008896D02*
X017351Y008896D01*
X016619Y007152D02*
X016496Y007152D01*
X016308Y006994D02*
X016777Y006994D01*
X016587Y006360D02*
X013335Y006360D01*
X013215Y006201D02*
X016504Y006201D01*
X016490Y006043D02*
X013083Y006043D01*
X013290Y005884D02*
X016535Y005884D01*
X017325Y005884D02*
X018435Y005884D01*
X018390Y006043D02*
X017370Y006043D01*
X017356Y006201D02*
X018404Y006201D01*
X018487Y006360D02*
X017273Y006360D01*
X014661Y005250D02*
X013264Y005250D01*
X007529Y003507D02*
X007231Y003507D01*
X007364Y003348D02*
X007396Y003348D01*
X009163Y010481D02*
X009240Y010481D01*
X006434Y012670D02*
X004326Y012670D01*
X004485Y012829D01*
X004485Y013331D01*
X004428Y013388D01*
X004579Y013540D01*
X006484Y013540D01*
X006275Y013331D01*
X006275Y013100D01*
X006860Y013100D01*
X006860Y013060D01*
X006275Y013060D01*
X006275Y012829D01*
X006434Y012670D01*
X006405Y012700D02*
X004355Y012700D01*
X004485Y012858D02*
X006275Y012858D01*
X006275Y013017D02*
X004485Y013017D01*
X004485Y013175D02*
X006275Y013175D01*
X006278Y013334D02*
X004482Y013334D01*
X004531Y013492D02*
X006436Y013492D01*
X006860Y013492D02*
X006900Y013492D01*
X006900Y013334D02*
X006860Y013334D01*
X006860Y013175D02*
X006900Y013175D01*
X007485Y013175D02*
X016586Y013175D01*
X016744Y013334D02*
X007482Y013334D01*
X007324Y013492D02*
X008009Y013492D01*
X008451Y013492D02*
X008586Y013492D01*
X009174Y013492D02*
X009586Y013492D01*
X009474Y013651D02*
X009286Y013651D01*
X009320Y013809D02*
X009440Y013809D01*
X009440Y013968D02*
X009320Y013968D01*
X009320Y014126D02*
X009440Y014126D01*
X009440Y014285D02*
X009320Y014285D01*
X009314Y014443D02*
X009446Y014443D01*
X009519Y014602D02*
X009241Y014602D01*
X010241Y014602D02*
X010519Y014602D01*
X010446Y014443D02*
X010314Y014443D01*
X010320Y014285D02*
X010440Y014285D01*
X010440Y014126D02*
X010320Y014126D01*
X010320Y013968D02*
X010440Y013968D01*
X010440Y013809D02*
X010320Y013809D01*
X010286Y013651D02*
X010474Y013651D01*
X010586Y013492D02*
X010174Y013492D01*
X011174Y013492D02*
X011586Y013492D01*
X011474Y013651D02*
X011286Y013651D01*
X011320Y013809D02*
X011440Y013809D01*
X011440Y013968D02*
X011320Y013968D01*
X011320Y014126D02*
X011440Y014126D01*
X011440Y014285D02*
X011320Y014285D01*
X011314Y014443D02*
X011446Y014443D01*
X011519Y014602D02*
X011241Y014602D01*
X012241Y014602D02*
X012519Y014602D01*
X012446Y014443D02*
X012314Y014443D01*
X012320Y014285D02*
X012440Y014285D01*
X012440Y014126D02*
X012320Y014126D01*
X012320Y013968D02*
X012440Y013968D01*
X012440Y013809D02*
X012320Y013809D01*
X012286Y013651D02*
X012474Y013651D01*
X012586Y013492D02*
X012174Y013492D01*
X013174Y013492D02*
X013586Y013492D01*
X013474Y013651D02*
X013286Y013651D01*
X013320Y013809D02*
X013440Y013809D01*
X013440Y013968D02*
X013320Y013968D01*
X013320Y014126D02*
X013440Y014126D01*
X013440Y014285D02*
X013320Y014285D01*
X013314Y014443D02*
X013446Y014443D01*
X013519Y014602D02*
X013241Y014602D01*
X014241Y014602D02*
X014526Y014602D01*
X014451Y014443D02*
X014440Y014375D01*
X014440Y014285D02*
X014320Y014285D01*
X014320Y014126D02*
X014440Y014126D01*
X014440Y014080D02*
X014440Y013785D01*
X014451Y013717D01*
X014472Y013651D01*
X014504Y013589D01*
X014544Y013533D01*
X014593Y013484D01*
X014649Y013444D01*
X014711Y013412D01*
X014777Y013391D01*
X014845Y013380D01*
X014880Y013380D01*
X014880Y014080D01*
X014440Y014080D01*
X014440Y013968D02*
X014320Y013968D01*
X014320Y013809D02*
X014440Y013809D01*
X014473Y013651D02*
X014286Y013651D01*
X014174Y013492D02*
X014586Y013492D01*
X014880Y013492D02*
X014880Y013492D01*
X014880Y013651D02*
X014880Y013651D01*
X014880Y013809D02*
X014880Y013809D01*
X014880Y013968D02*
X014880Y013968D01*
X014880Y014126D02*
X014880Y014126D01*
X014880Y014285D02*
X014880Y014285D01*
X014880Y014443D02*
X014880Y014443D01*
X014880Y014602D02*
X014880Y014602D01*
X015234Y014602D02*
X015519Y014602D01*
X015440Y014285D02*
X015320Y014285D01*
X015320Y014126D02*
X015440Y014126D01*
X015440Y013968D02*
X015320Y013968D01*
X015320Y013809D02*
X015440Y013809D01*
X015474Y013651D02*
X015287Y013651D01*
X015174Y013492D02*
X015586Y013492D01*
X016174Y013492D02*
X016586Y013492D01*
X016474Y013651D02*
X016286Y013651D01*
X016320Y013809D02*
X016440Y013809D01*
X016440Y013968D02*
X016320Y013968D01*
X016320Y014126D02*
X016440Y014126D01*
X016440Y014285D02*
X016320Y014285D01*
X016314Y014443D02*
X016446Y014443D01*
X017581Y013492D02*
X017586Y013492D01*
X017423Y013334D02*
X018640Y013334D01*
X018640Y013175D02*
X017264Y013175D01*
X017106Y013017D02*
X018640Y013017D01*
X018640Y012858D02*
X016947Y012858D01*
X016789Y012700D02*
X018640Y012700D01*
X018586Y013492D02*
X018174Y013492D01*
X018286Y013651D02*
X018474Y013651D01*
X018440Y013809D02*
X018320Y013809D01*
X018320Y013968D02*
X018440Y013968D01*
X018440Y014126D02*
X018320Y014126D01*
X018320Y014285D02*
X018440Y014285D01*
X018446Y014443D02*
X018314Y014443D01*
X019216Y015553D02*
X015536Y015553D01*
X015509Y015544D02*
X015591Y015570D01*
X015668Y015610D01*
X015738Y015660D01*
X015800Y015722D01*
X015850Y015792D01*
X015890Y015869D01*
X015916Y015951D01*
X015930Y016037D01*
X015930Y016071D01*
X015389Y016071D01*
X015389Y016089D01*
X015930Y016089D01*
X015930Y016123D01*
X015916Y016209D01*
X015890Y016291D01*
X015850Y016368D01*
X015800Y016438D01*
X015738Y016500D01*
X015668Y016550D01*
X015591Y016590D01*
X015509Y016616D01*
X015423Y016630D01*
X015389Y016630D01*
X015389Y016089D01*
X015371Y016089D01*
X015371Y016630D01*
X015337Y016630D01*
X015251Y016616D01*
X015169Y016590D01*
X015092Y016550D01*
X015022Y016500D01*
X014960Y016438D01*
X014910Y016368D01*
X014870Y016291D01*
X014844Y016209D01*
X014830Y016123D01*
X014830Y016089D01*
X015371Y016089D01*
X015371Y016071D01*
X015389Y016071D01*
X015389Y015530D01*
X015423Y015530D01*
X015509Y015544D01*
X015389Y015553D02*
X015371Y015553D01*
X015371Y015530D02*
X015371Y016071D01*
X014830Y016071D01*
X014830Y016037D01*
X014844Y015951D01*
X014870Y015869D01*
X014910Y015792D01*
X014960Y015722D01*
X015022Y015660D01*
X015092Y015610D01*
X015169Y015570D01*
X015251Y015544D01*
X015337Y015530D01*
X015371Y015530D01*
X015224Y015553D02*
X014044Y015553D01*
X013989Y015530D02*
X014192Y015614D01*
X014346Y015768D01*
X014430Y015971D01*
X014430Y016189D01*
X014346Y016392D01*
X014192Y016546D01*
X013989Y016630D01*
X013771Y016630D01*
X013568Y016546D01*
X013414Y016392D01*
X013380Y016310D01*
X013346Y016392D01*
X013192Y016546D01*
X012989Y016630D01*
X012771Y016630D01*
X012568Y016546D01*
X012414Y016392D01*
X012380Y016310D01*
X012346Y016392D01*
X012192Y016546D01*
X011989Y016630D01*
X011771Y016630D01*
X011568Y016546D01*
X011414Y016392D01*
X011380Y016310D01*
X011346Y016392D01*
X011192Y016546D01*
X010989Y016630D01*
X010771Y016630D01*
X010568Y016546D01*
X010414Y016392D01*
X010380Y016310D01*
X010346Y016392D01*
X010192Y016546D01*
X009989Y016630D01*
X009771Y016630D01*
X009568Y016546D01*
X009414Y016392D01*
X009380Y016310D01*
X009346Y016392D01*
X009192Y016546D01*
X008989Y016630D01*
X008771Y016630D01*
X008568Y016546D01*
X008414Y016392D01*
X008330Y016189D01*
X008330Y015971D01*
X008414Y015768D01*
X008568Y015614D01*
X008771Y015530D01*
X008989Y015530D01*
X009192Y015614D01*
X009346Y015768D01*
X009380Y015850D01*
X009414Y015768D01*
X009568Y015614D01*
X009771Y015530D01*
X009989Y015530D01*
X010192Y015614D01*
X010346Y015768D01*
X010380Y015850D01*
X010414Y015768D01*
X010568Y015614D01*
X010771Y015530D01*
X010989Y015530D01*
X011192Y015614D01*
X011346Y015768D01*
X011380Y015850D01*
X011414Y015768D01*
X011568Y015614D01*
X011771Y015530D01*
X011989Y015530D01*
X012192Y015614D01*
X012346Y015768D01*
X012380Y015850D01*
X012414Y015768D01*
X012568Y015614D01*
X012771Y015530D01*
X012989Y015530D01*
X013192Y015614D01*
X013346Y015768D01*
X013380Y015850D01*
X013414Y015768D01*
X013568Y015614D01*
X013771Y015530D01*
X013989Y015530D01*
X013716Y015553D02*
X013044Y015553D01*
X013289Y015711D02*
X013471Y015711D01*
X012716Y015553D02*
X012044Y015553D01*
X012289Y015711D02*
X012471Y015711D01*
X011716Y015553D02*
X011044Y015553D01*
X011289Y015711D02*
X011471Y015711D01*
X010716Y015553D02*
X010044Y015553D01*
X010289Y015711D02*
X010471Y015711D01*
X009716Y015553D02*
X009044Y015553D01*
X009289Y015711D02*
X009471Y015711D01*
X008716Y015553D02*
X002860Y015553D01*
X002860Y015711D02*
X008471Y015711D01*
X008372Y015870D02*
X002860Y015870D01*
X002860Y016028D02*
X008330Y016028D01*
X008330Y016187D02*
X002860Y016187D01*
X002860Y016345D02*
X008394Y016345D01*
X008526Y016504D02*
X002860Y016504D01*
X002860Y016662D02*
X019623Y016662D01*
X019781Y016821D02*
X002860Y016821D01*
X002860Y016979D02*
X033770Y016979D01*
X033770Y017138D02*
X002860Y017138D01*
X002860Y017296D02*
X033770Y017296D01*
X033770Y017455D02*
X002860Y017455D01*
X002860Y017613D02*
X033770Y017613D01*
X033770Y017772D02*
X002860Y017772D01*
X002860Y017930D02*
X033770Y017930D01*
X033770Y018089D02*
X024752Y018089D01*
X024875Y018139D02*
X025121Y018385D01*
X025254Y018706D01*
X025254Y019054D01*
X025121Y019375D01*
X024875Y019621D01*
X024554Y019754D01*
X024206Y019754D01*
X023885Y019621D01*
X023639Y019375D01*
X023506Y019054D01*
X023506Y018706D01*
X023639Y018385D01*
X023885Y018139D01*
X024206Y018006D01*
X024554Y018006D01*
X024875Y018139D01*
X024983Y018247D02*
X033770Y018247D01*
X033642Y018406D02*
X025129Y018406D01*
X025195Y018564D02*
X033483Y018564D01*
X033325Y018723D02*
X025254Y018723D01*
X025254Y018881D02*
X033166Y018881D01*
X033008Y019040D02*
X025254Y019040D01*
X025194Y019198D02*
X032849Y019198D01*
X032691Y019357D02*
X025128Y019357D01*
X024981Y019515D02*
X032532Y019515D01*
X032374Y019674D02*
X024747Y019674D01*
X024013Y019674D02*
X004247Y019674D01*
X004375Y019621D02*
X004054Y019754D01*
X003706Y019754D01*
X003385Y019621D01*
X003139Y019375D01*
X003006Y019054D01*
X003006Y018706D01*
X003139Y018385D01*
X003385Y018139D01*
X003706Y018006D01*
X004054Y018006D01*
X004375Y018139D01*
X004621Y018385D01*
X004754Y018706D01*
X004754Y019054D01*
X004621Y019375D01*
X004375Y019621D01*
X004481Y019515D02*
X023779Y019515D01*
X023632Y019357D02*
X004628Y019357D01*
X004694Y019198D02*
X023566Y019198D01*
X023506Y019040D02*
X004754Y019040D01*
X004754Y018881D02*
X023506Y018881D01*
X023506Y018723D02*
X004754Y018723D01*
X004695Y018564D02*
X023565Y018564D01*
X023631Y018406D02*
X004629Y018406D01*
X004483Y018247D02*
X023777Y018247D01*
X024008Y018089D02*
X004252Y018089D01*
X003508Y018089D02*
X002860Y018089D01*
X002860Y018247D02*
X003277Y018247D01*
X003131Y018406D02*
X002860Y018406D01*
X002860Y018564D02*
X003065Y018564D01*
X003006Y018723D02*
X002860Y018723D01*
X002860Y018881D02*
X003006Y018881D01*
X003006Y019040D02*
X002860Y019040D01*
X002860Y019198D02*
X003066Y019198D01*
X003132Y019357D02*
X002860Y019357D01*
X002863Y019515D02*
X003279Y019515D01*
X003513Y019674D02*
X002899Y019674D01*
X003007Y019832D02*
X032215Y019832D01*
X032057Y019991D02*
X003308Y019991D01*
X009234Y016504D02*
X009526Y016504D01*
X009394Y016345D02*
X009366Y016345D01*
X010234Y016504D02*
X010526Y016504D01*
X010394Y016345D02*
X010366Y016345D01*
X011234Y016504D02*
X011526Y016504D01*
X011394Y016345D02*
X011366Y016345D01*
X012234Y016504D02*
X012526Y016504D01*
X012394Y016345D02*
X012366Y016345D01*
X013234Y016504D02*
X013526Y016504D01*
X013394Y016345D02*
X013366Y016345D01*
X014234Y016504D02*
X015027Y016504D01*
X014898Y016345D02*
X014366Y016345D01*
X014430Y016187D02*
X014840Y016187D01*
X014831Y016028D02*
X014430Y016028D01*
X014388Y015870D02*
X014870Y015870D01*
X014971Y015711D02*
X014289Y015711D01*
X015371Y015711D02*
X015389Y015711D01*
X015389Y015870D02*
X015371Y015870D01*
X015371Y016028D02*
X015389Y016028D01*
X015389Y016187D02*
X015371Y016187D01*
X015371Y016345D02*
X015389Y016345D01*
X015389Y016504D02*
X015371Y016504D01*
X015733Y016504D02*
X019026Y016504D01*
X018894Y016345D02*
X015862Y016345D01*
X015920Y016187D02*
X018830Y016187D01*
X018830Y016028D02*
X015929Y016028D01*
X015890Y015870D02*
X018872Y015870D01*
X018971Y015711D02*
X015789Y015711D01*
X020331Y014919D02*
X021190Y014919D01*
X021190Y014760D02*
X021016Y014760D01*
X020744Y014760D02*
X020489Y014760D01*
X021670Y014760D02*
X021744Y014760D01*
X021670Y015553D02*
X022216Y015553D01*
X021971Y015711D02*
X021789Y015711D01*
X022371Y004933D02*
X022389Y004933D01*
X022389Y004775D02*
X022371Y004775D01*
X022371Y004616D02*
X022389Y004616D01*
X021520Y004299D02*
X023640Y004299D01*
X023601Y004141D02*
X021520Y004141D01*
X021520Y003982D02*
X023443Y003982D01*
X023284Y003824D02*
X021520Y003824D01*
X021513Y003665D02*
X023126Y003665D01*
X022529Y003507D02*
X022229Y003507D01*
X022361Y003348D02*
X022396Y003348D01*
X021900Y003348D02*
X021860Y003348D01*
X021860Y003190D02*
X021900Y003190D01*
X021900Y003507D02*
X021860Y003507D01*
X021531Y003507D02*
X021368Y003507D01*
X021364Y003348D02*
X021399Y003348D01*
X023757Y003617D02*
X023959Y003820D01*
X024052Y003820D01*
X024184Y003875D01*
X024285Y003976D01*
X024332Y004089D01*
X024640Y003781D01*
X024640Y003576D01*
X024568Y003546D01*
X024414Y003392D01*
X024380Y003310D01*
X024350Y003368D01*
X024300Y003438D01*
X024238Y003500D01*
X024168Y003550D01*
X024091Y003590D01*
X024009Y003616D01*
X023923Y003630D01*
X023900Y003630D01*
X023900Y003100D01*
X023860Y003100D01*
X023860Y003630D01*
X023837Y003630D01*
X023757Y003617D01*
X023804Y003665D02*
X024640Y003665D01*
X024597Y003824D02*
X024060Y003824D01*
X024288Y003982D02*
X024439Y003982D01*
X024800Y004299D02*
X033770Y004299D01*
X033770Y004141D02*
X024959Y004141D01*
X025098Y003982D02*
X033770Y003982D01*
X033770Y003824D02*
X025120Y003824D01*
X025120Y003665D02*
X033770Y003665D01*
X033770Y003507D02*
X025231Y003507D01*
X025364Y003348D02*
X033770Y003348D01*
X033770Y003190D02*
X025430Y003190D01*
X025430Y003031D02*
X033767Y003031D01*
X033726Y002873D02*
X025389Y002873D01*
X025292Y002714D02*
X033613Y002714D01*
X033555Y004458D02*
X033555Y004458D01*
X033555Y004616D02*
X033555Y004616D01*
X033555Y004775D02*
X033555Y004775D01*
X033738Y004458D02*
X033770Y004458D01*
X033372Y004458D02*
X024642Y004458D01*
X024529Y003507D02*
X024229Y003507D01*
X024361Y003348D02*
X024396Y003348D01*
X023900Y003348D02*
X023860Y003348D01*
X023860Y003190D02*
X023900Y003190D01*
X023900Y003507D02*
X023860Y003507D01*
M02*
