G75*
%MOIN*%
%OFA0B0*%
%FSLAX24Y24*%
%IPPOS*%
%LPD*%
%AMOC8*
5,1,8,0,0,1.08239X$1,22.5*
%
%ADD10C,0.0867*%
%ADD11C,0.0730*%
%ADD12R,0.0730X0.0730*%
%ADD13C,0.0707*%
%ADD14C,0.0721*%
%ADD15C,0.0820*%
%ADD16C,0.0600*%
%ADD17R,0.0820X0.0820*%
%ADD18C,0.0650*%
%ADD19OC8,0.0930*%
%ADD20C,0.0600*%
%ADD21C,0.0440*%
D10*
X003880Y018880D03*
X024380Y018880D03*
D11*
X030880Y008580D03*
D12*
X030880Y007580D03*
D13*
X028480Y006780D03*
X027180Y006780D03*
X027180Y009080D03*
X028480Y009080D03*
X018880Y009080D03*
X016880Y008080D03*
X012880Y005580D03*
X009080Y006180D03*
D14*
X009080Y005180D03*
X012880Y006580D03*
X016880Y009080D03*
X018880Y008080D03*
X027180Y007780D03*
X028480Y007780D03*
X028480Y010080D03*
X027180Y010080D03*
D15*
X006880Y003080D03*
X007880Y003080D03*
X008880Y003080D03*
X009880Y003080D03*
X010880Y003080D03*
X011880Y003080D03*
X013380Y003080D03*
X014380Y003080D03*
X015380Y003080D03*
X016380Y003080D03*
X017380Y003080D03*
X018380Y003080D03*
X019880Y003080D03*
X020880Y003080D03*
X021880Y003080D03*
X022880Y003080D03*
X023880Y003080D03*
X024880Y003080D03*
X025380Y005080D03*
X022380Y005080D03*
X022380Y009080D03*
X023380Y010080D03*
X024380Y010080D03*
X025380Y009080D03*
X022380Y016080D03*
X021380Y016080D03*
X019380Y016080D03*
X015380Y016080D03*
X013880Y016080D03*
X012880Y016080D03*
X011880Y016080D03*
X010880Y016080D03*
X009880Y016080D03*
X008880Y016080D03*
X008880Y007780D03*
X005780Y007680D03*
X004780Y007680D03*
X004780Y006680D03*
X005780Y006680D03*
X005780Y005680D03*
X004780Y005680D03*
X012880Y007780D03*
D16*
X016930Y006080D03*
X018830Y006080D03*
D17*
X005780Y008680D03*
X004780Y008680D03*
D18*
X033555Y005674D03*
X033555Y004886D03*
D19*
X006880Y013080D03*
X003880Y013080D03*
D20*
X008880Y013820D02*
X008880Y014340D01*
X009880Y014340D02*
X009880Y013820D01*
X010880Y013820D02*
X010880Y014340D01*
X011880Y014340D02*
X011880Y013820D01*
X012880Y013820D02*
X012880Y014340D01*
X013880Y014340D02*
X013880Y013820D01*
X014880Y013820D02*
X014880Y014340D01*
X015880Y014340D02*
X015880Y013820D01*
X016880Y013820D02*
X016880Y014340D01*
X017880Y014340D02*
X017880Y013820D01*
X018880Y013820D02*
X018880Y014340D01*
X019880Y014340D02*
X019880Y013820D01*
X020880Y013820D02*
X020880Y014340D01*
X021880Y014340D02*
X021880Y013820D01*
X021880Y011340D02*
X021880Y010820D01*
X020880Y010820D02*
X020880Y011340D01*
X019880Y011340D02*
X019880Y010820D01*
X018880Y010820D02*
X018880Y011340D01*
X017880Y011340D02*
X017880Y010820D01*
X016880Y010820D02*
X016880Y011340D01*
X015880Y011340D02*
X015880Y010820D01*
X014880Y010820D02*
X014880Y011340D01*
X013880Y011340D02*
X013880Y010820D01*
X012880Y010820D02*
X012880Y011340D01*
X011880Y011340D02*
X011880Y010820D01*
X010880Y010820D02*
X010880Y011340D01*
X009880Y011340D02*
X009880Y010820D01*
X008880Y010820D02*
X008880Y011340D01*
D21*
X007630Y011830D03*
X008230Y013780D03*
X011680Y009580D03*
X010480Y008230D03*
X010180Y005380D03*
X010930Y004180D03*
X011380Y003880D03*
X013930Y004180D03*
X014980Y004630D03*
X018730Y003730D03*
X019780Y004180D03*
X020830Y004780D03*
X023980Y004180D03*
X024730Y008230D03*
X017830Y008680D03*
X015880Y008980D03*
X015880Y009580D03*
X015430Y010030D03*
X016180Y007330D03*
X016480Y014830D03*
M02*
