G75*
%MOIN*%
%OFA0B0*%
%FSLAX24Y24*%
%IPPOS*%
%LPD*%
%AMOC8*
5,1,8,0,0,1.08239X$1,22.5*
%
%ADD10C,0.0060*%
%ADD11C,0.0080*%
%ADD12C,0.0010*%
%ADD13C,0.0020*%
%ADD14C,0.0050*%
%ADD15C,0.0160*%
D10*
X003323Y005685D02*
X003323Y006005D01*
X003430Y006112D01*
X003750Y006112D01*
X003750Y006330D02*
X003109Y006330D01*
X003109Y006650D01*
X003216Y006757D01*
X003430Y006757D01*
X003536Y006650D01*
X003536Y006330D01*
X003536Y006543D02*
X003750Y006757D01*
X003750Y006974D02*
X003109Y006974D01*
X003109Y007401D01*
X003216Y007619D02*
X003109Y007725D01*
X003109Y007939D01*
X003216Y008046D01*
X003323Y008046D01*
X003750Y007619D01*
X003750Y008046D01*
X003430Y008263D02*
X003430Y008690D01*
X003750Y008583D02*
X003109Y008583D01*
X003430Y008263D01*
X003430Y007188D02*
X003430Y006974D01*
X003323Y005685D02*
X003750Y005685D01*
X003880Y011930D02*
X003880Y012230D01*
X003580Y012080D02*
X003582Y012114D01*
X003588Y012148D01*
X003597Y012181D01*
X003611Y012212D01*
X003628Y012242D01*
X003648Y012270D01*
X003671Y012295D01*
X003697Y012318D01*
X003725Y012337D01*
X003755Y012353D01*
X003787Y012365D01*
X003820Y012374D01*
X003854Y012379D01*
X003889Y012380D01*
X003923Y012377D01*
X003956Y012370D01*
X003989Y012360D01*
X004020Y012345D01*
X004049Y012328D01*
X004076Y012307D01*
X004101Y012283D01*
X004123Y012256D01*
X004141Y012228D01*
X004156Y012197D01*
X004168Y012165D01*
X004176Y012131D01*
X004180Y012097D01*
X004180Y012063D01*
X004176Y012029D01*
X004168Y011995D01*
X004156Y011963D01*
X004141Y011932D01*
X004123Y011904D01*
X004101Y011877D01*
X004076Y011853D01*
X004049Y011832D01*
X004020Y011815D01*
X003989Y011800D01*
X003956Y011790D01*
X003923Y011783D01*
X003889Y011780D01*
X003854Y011781D01*
X003820Y011786D01*
X003787Y011795D01*
X003755Y011807D01*
X003725Y011823D01*
X003697Y011842D01*
X003671Y011865D01*
X003648Y011890D01*
X003628Y011918D01*
X003611Y011948D01*
X003597Y011979D01*
X003588Y012012D01*
X003582Y012046D01*
X003580Y012080D01*
X003730Y012080D02*
X004030Y012080D01*
X004880Y013080D02*
X004882Y013124D01*
X004888Y013168D01*
X004898Y013211D01*
X004911Y013253D01*
X004928Y013294D01*
X004949Y013333D01*
X004973Y013370D01*
X005000Y013405D01*
X005030Y013437D01*
X005063Y013467D01*
X005099Y013493D01*
X005136Y013517D01*
X005176Y013536D01*
X005217Y013553D01*
X005260Y013565D01*
X005303Y013574D01*
X005347Y013579D01*
X005391Y013580D01*
X005435Y013577D01*
X005479Y013570D01*
X005522Y013559D01*
X005564Y013545D01*
X005604Y013527D01*
X005643Y013505D01*
X005679Y013481D01*
X005713Y013453D01*
X005745Y013422D01*
X005774Y013388D01*
X005800Y013352D01*
X005822Y013314D01*
X005841Y013274D01*
X005856Y013232D01*
X005868Y013190D01*
X005876Y013146D01*
X005880Y013102D01*
X005880Y013058D01*
X005876Y013014D01*
X005868Y012970D01*
X005856Y012928D01*
X005841Y012886D01*
X005822Y012846D01*
X005800Y012808D01*
X005774Y012772D01*
X005745Y012738D01*
X005713Y012707D01*
X005679Y012679D01*
X005643Y012655D01*
X005604Y012633D01*
X005564Y012615D01*
X005522Y012601D01*
X005479Y012590D01*
X005435Y012583D01*
X005391Y012580D01*
X005347Y012581D01*
X005303Y012586D01*
X005260Y012595D01*
X005217Y012607D01*
X005176Y012624D01*
X005136Y012643D01*
X005099Y012667D01*
X005063Y012693D01*
X005030Y012723D01*
X005000Y012755D01*
X004973Y012790D01*
X004949Y012827D01*
X004928Y012866D01*
X004911Y012907D01*
X004898Y012949D01*
X004888Y012992D01*
X004882Y013036D01*
X004880Y013080D01*
X002980Y013080D02*
X002982Y013178D01*
X002988Y013276D01*
X002998Y013373D01*
X003012Y013470D01*
X003030Y013566D01*
X003052Y013662D01*
X003077Y013756D01*
X003107Y013850D01*
X003140Y013942D01*
X003177Y014032D01*
X003218Y014121D01*
X003262Y014209D01*
X003310Y014294D01*
X003361Y014378D01*
X003416Y014459D01*
X003473Y014538D01*
X003535Y014614D01*
X003599Y014688D01*
X003666Y014760D01*
X003736Y014828D01*
X003808Y014894D01*
X003884Y014956D01*
X003961Y015016D01*
X004042Y015072D01*
X004124Y015125D01*
X004208Y015175D01*
X004295Y015221D01*
X004383Y015263D01*
X004473Y015302D01*
X004564Y015337D01*
X004657Y015369D01*
X004751Y015396D01*
X004846Y015420D01*
X004942Y015440D01*
X005038Y015456D01*
X005136Y015468D01*
X005233Y015476D01*
X005331Y015480D01*
X005429Y015480D01*
X005527Y015476D01*
X005624Y015468D01*
X005722Y015456D01*
X005818Y015440D01*
X005914Y015420D01*
X006009Y015396D01*
X006103Y015369D01*
X006196Y015337D01*
X006287Y015302D01*
X006377Y015263D01*
X006465Y015221D01*
X006552Y015175D01*
X006636Y015125D01*
X006718Y015072D01*
X006799Y015016D01*
X006876Y014956D01*
X006952Y014894D01*
X007024Y014828D01*
X007094Y014760D01*
X007161Y014688D01*
X007225Y014614D01*
X007287Y014538D01*
X007344Y014459D01*
X007399Y014378D01*
X007450Y014294D01*
X007498Y014209D01*
X007542Y014121D01*
X007583Y014032D01*
X007620Y013942D01*
X007653Y013850D01*
X007683Y013756D01*
X007708Y013662D01*
X007730Y013566D01*
X007748Y013470D01*
X007762Y013373D01*
X007772Y013276D01*
X007778Y013178D01*
X007780Y013080D01*
X007778Y012982D01*
X007772Y012884D01*
X007762Y012787D01*
X007748Y012690D01*
X007730Y012594D01*
X007708Y012498D01*
X007683Y012404D01*
X007653Y012310D01*
X007620Y012218D01*
X007583Y012128D01*
X007542Y012039D01*
X007498Y011951D01*
X007450Y011866D01*
X007399Y011782D01*
X007344Y011701D01*
X007287Y011622D01*
X007225Y011546D01*
X007161Y011472D01*
X007094Y011400D01*
X007024Y011332D01*
X006952Y011266D01*
X006876Y011204D01*
X006799Y011144D01*
X006718Y011088D01*
X006636Y011035D01*
X006552Y010985D01*
X006465Y010939D01*
X006377Y010897D01*
X006287Y010858D01*
X006196Y010823D01*
X006103Y010791D01*
X006009Y010764D01*
X005914Y010740D01*
X005818Y010720D01*
X005722Y010704D01*
X005624Y010692D01*
X005527Y010684D01*
X005429Y010680D01*
X005331Y010680D01*
X005233Y010684D01*
X005136Y010692D01*
X005038Y010704D01*
X004942Y010720D01*
X004846Y010740D01*
X004751Y010764D01*
X004657Y010791D01*
X004564Y010823D01*
X004473Y010858D01*
X004383Y010897D01*
X004295Y010939D01*
X004208Y010985D01*
X004124Y011035D01*
X004042Y011088D01*
X003961Y011144D01*
X003884Y011204D01*
X003808Y011266D01*
X003736Y011332D01*
X003666Y011400D01*
X003599Y011472D01*
X003535Y011546D01*
X003473Y011622D01*
X003416Y011701D01*
X003361Y011782D01*
X003310Y011866D01*
X003262Y011951D01*
X003218Y012039D01*
X003177Y012128D01*
X003140Y012218D01*
X003107Y012310D01*
X003077Y012404D01*
X003052Y012498D01*
X003030Y012594D01*
X003012Y012690D01*
X002998Y012787D01*
X002988Y012884D01*
X002982Y012982D01*
X002980Y013080D01*
X013010Y018510D02*
X013330Y018510D01*
X013437Y018617D01*
X013437Y019044D01*
X013330Y019151D01*
X013010Y019151D01*
X013010Y018510D01*
X013655Y018617D02*
X013655Y018830D01*
X013761Y018937D01*
X013975Y018937D01*
X014082Y018830D01*
X014082Y018724D01*
X013655Y018724D01*
X013655Y018617D02*
X013761Y018510D01*
X013975Y018510D01*
X014299Y018937D02*
X014513Y018510D01*
X014726Y018937D01*
X015050Y018937D02*
X015264Y018937D01*
X015371Y018830D01*
X015371Y018510D01*
X015050Y018510D01*
X014944Y018617D01*
X015050Y018724D01*
X015371Y018724D01*
X015588Y018510D02*
X015802Y018510D01*
X015695Y018510D02*
X015695Y019151D01*
X015588Y019151D01*
X016018Y018937D02*
X016125Y019044D01*
X016125Y019257D01*
X016447Y018937D02*
X016767Y018937D01*
X016660Y018724D02*
X016447Y018724D01*
X016340Y018830D01*
X016447Y018937D01*
X016660Y018724D02*
X016767Y018617D01*
X016660Y018510D01*
X016340Y018510D01*
X017629Y018510D02*
X017629Y019151D01*
X017950Y019151D01*
X018056Y019044D01*
X018056Y018937D01*
X017950Y018830D01*
X017629Y018830D01*
X017629Y018510D02*
X017950Y018510D01*
X018056Y018617D01*
X018056Y018724D01*
X017950Y018830D01*
X018274Y018830D02*
X018274Y018617D01*
X018381Y018510D01*
X018594Y018510D01*
X018701Y018617D01*
X018701Y018830D01*
X018594Y018937D01*
X018381Y018937D01*
X018274Y018830D01*
X018918Y018617D02*
X019025Y018724D01*
X019345Y018724D01*
X019345Y018830D02*
X019345Y018510D01*
X019025Y018510D01*
X018918Y018617D01*
X019239Y018937D02*
X019345Y018830D01*
X019239Y018937D02*
X019025Y018937D01*
X019563Y018937D02*
X019563Y018510D01*
X019563Y018724D02*
X019776Y018937D01*
X019883Y018937D01*
X020100Y018830D02*
X020207Y018937D01*
X020527Y018937D01*
X020527Y019151D02*
X020527Y018510D01*
X020207Y018510D01*
X020100Y018617D01*
X020100Y018830D01*
X020880Y016080D02*
X020882Y016143D01*
X020888Y016205D01*
X020898Y016267D01*
X020911Y016329D01*
X020929Y016389D01*
X020950Y016448D01*
X020975Y016506D01*
X021004Y016562D01*
X021036Y016616D01*
X021071Y016668D01*
X021109Y016717D01*
X021151Y016765D01*
X021195Y016809D01*
X021243Y016851D01*
X021292Y016889D01*
X021344Y016924D01*
X021398Y016956D01*
X021454Y016985D01*
X021512Y017010D01*
X021571Y017031D01*
X021631Y017049D01*
X021693Y017062D01*
X021755Y017072D01*
X021817Y017078D01*
X021880Y017080D01*
X021943Y017078D01*
X022005Y017072D01*
X022067Y017062D01*
X022129Y017049D01*
X022189Y017031D01*
X022248Y017010D01*
X022306Y016985D01*
X022362Y016956D01*
X022416Y016924D01*
X022468Y016889D01*
X022517Y016851D01*
X022565Y016809D01*
X022609Y016765D01*
X022651Y016717D01*
X022689Y016668D01*
X022724Y016616D01*
X022756Y016562D01*
X022785Y016506D01*
X022810Y016448D01*
X022831Y016389D01*
X022849Y016329D01*
X022862Y016267D01*
X022872Y016205D01*
X022878Y016143D01*
X022880Y016080D01*
X022878Y016017D01*
X022872Y015955D01*
X022862Y015893D01*
X022849Y015831D01*
X022831Y015771D01*
X022810Y015712D01*
X022785Y015654D01*
X022756Y015598D01*
X022724Y015544D01*
X022689Y015492D01*
X022651Y015443D01*
X022609Y015395D01*
X022565Y015351D01*
X022517Y015309D01*
X022468Y015271D01*
X022416Y015236D01*
X022362Y015204D01*
X022306Y015175D01*
X022248Y015150D01*
X022189Y015129D01*
X022129Y015111D01*
X022067Y015098D01*
X022005Y015088D01*
X021943Y015082D01*
X021880Y015080D01*
X021817Y015082D01*
X021755Y015088D01*
X021693Y015098D01*
X021631Y015111D01*
X021571Y015129D01*
X021512Y015150D01*
X021454Y015175D01*
X021398Y015204D01*
X021344Y015236D01*
X021292Y015271D01*
X021243Y015309D01*
X021195Y015351D01*
X021151Y015395D01*
X021109Y015443D01*
X021071Y015492D01*
X021036Y015544D01*
X021004Y015598D01*
X020975Y015654D01*
X020950Y015712D01*
X020929Y015771D01*
X020911Y015831D01*
X020898Y015893D01*
X020888Y015955D01*
X020882Y016017D01*
X020880Y016080D01*
X030310Y010851D02*
X030630Y010851D01*
X030737Y010744D01*
X030737Y010530D01*
X030630Y010424D01*
X030310Y010424D01*
X030524Y010424D02*
X030737Y010210D01*
X030955Y010317D02*
X030955Y010530D01*
X031061Y010637D01*
X031275Y010637D01*
X031382Y010530D01*
X031382Y010424D01*
X030955Y010424D01*
X030955Y010317D02*
X031061Y010210D01*
X031275Y010210D01*
X031599Y010637D02*
X031813Y010210D01*
X032026Y010637D01*
X032888Y010637D02*
X032888Y010530D01*
X032995Y010530D01*
X032995Y010637D01*
X032888Y010637D01*
X033210Y010851D02*
X033531Y010851D01*
X033638Y010744D01*
X033638Y010317D01*
X033531Y010210D01*
X033210Y010210D01*
X033210Y010851D01*
X032995Y010317D02*
X032888Y010317D01*
X032888Y010210D01*
X032995Y010210D01*
X032995Y010317D01*
X030310Y010210D02*
X030310Y010851D01*
X022880Y010080D02*
X022882Y010143D01*
X022888Y010205D01*
X022898Y010267D01*
X022911Y010329D01*
X022929Y010389D01*
X022950Y010448D01*
X022975Y010506D01*
X023004Y010562D01*
X023036Y010616D01*
X023071Y010668D01*
X023109Y010717D01*
X023151Y010765D01*
X023195Y010809D01*
X023243Y010851D01*
X023292Y010889D01*
X023344Y010924D01*
X023398Y010956D01*
X023454Y010985D01*
X023512Y011010D01*
X023571Y011031D01*
X023631Y011049D01*
X023693Y011062D01*
X023755Y011072D01*
X023817Y011078D01*
X023880Y011080D01*
X023943Y011078D01*
X024005Y011072D01*
X024067Y011062D01*
X024129Y011049D01*
X024189Y011031D01*
X024248Y011010D01*
X024306Y010985D01*
X024362Y010956D01*
X024416Y010924D01*
X024468Y010889D01*
X024517Y010851D01*
X024565Y010809D01*
X024609Y010765D01*
X024651Y010717D01*
X024689Y010668D01*
X024724Y010616D01*
X024756Y010562D01*
X024785Y010506D01*
X024810Y010448D01*
X024831Y010389D01*
X024849Y010329D01*
X024862Y010267D01*
X024872Y010205D01*
X024878Y010143D01*
X024880Y010080D01*
X024878Y010017D01*
X024872Y009955D01*
X024862Y009893D01*
X024849Y009831D01*
X024831Y009771D01*
X024810Y009712D01*
X024785Y009654D01*
X024756Y009598D01*
X024724Y009544D01*
X024689Y009492D01*
X024651Y009443D01*
X024609Y009395D01*
X024565Y009351D01*
X024517Y009309D01*
X024468Y009271D01*
X024416Y009236D01*
X024362Y009204D01*
X024306Y009175D01*
X024248Y009150D01*
X024189Y009129D01*
X024129Y009111D01*
X024067Y009098D01*
X024005Y009088D01*
X023943Y009082D01*
X023880Y009080D01*
X023817Y009082D01*
X023755Y009088D01*
X023693Y009098D01*
X023631Y009111D01*
X023571Y009129D01*
X023512Y009150D01*
X023454Y009175D01*
X023398Y009204D01*
X023344Y009236D01*
X023292Y009271D01*
X023243Y009309D01*
X023195Y009351D01*
X023151Y009395D01*
X023109Y009443D01*
X023071Y009492D01*
X023036Y009544D01*
X023004Y009598D01*
X022975Y009654D01*
X022950Y009712D01*
X022929Y009771D01*
X022911Y009831D01*
X022898Y009893D01*
X022888Y009955D01*
X022882Y010017D01*
X022880Y010080D01*
X019030Y006780D02*
X016730Y006780D01*
X017630Y006430D02*
X017630Y006080D01*
X017380Y006080D01*
X017630Y006080D02*
X017630Y005730D01*
X017780Y005730D02*
X017780Y006430D01*
X017980Y006430D01*
X017980Y005730D01*
X017780Y005730D01*
X018130Y005730D02*
X018130Y006080D01*
X018380Y006080D01*
X018130Y006080D02*
X018130Y006430D01*
X019030Y006780D02*
X019081Y006778D01*
X019132Y006773D01*
X019182Y006763D01*
X019232Y006750D01*
X019280Y006734D01*
X019327Y006714D01*
X019373Y006690D01*
X019416Y006664D01*
X019458Y006634D01*
X019497Y006601D01*
X019534Y006566D01*
X019568Y006528D01*
X019599Y006487D01*
X019628Y006445D01*
X019653Y006400D01*
X019674Y006354D01*
X019693Y006306D01*
X019707Y006257D01*
X019718Y006207D01*
X019726Y006157D01*
X019730Y006106D01*
X019730Y006054D01*
X019726Y006003D01*
X019718Y005953D01*
X019707Y005903D01*
X019693Y005854D01*
X019674Y005806D01*
X019653Y005760D01*
X019628Y005715D01*
X019599Y005673D01*
X019568Y005632D01*
X019534Y005594D01*
X019497Y005559D01*
X019458Y005526D01*
X019416Y005496D01*
X019373Y005470D01*
X019327Y005446D01*
X019280Y005426D01*
X019232Y005410D01*
X019182Y005397D01*
X019132Y005387D01*
X019081Y005382D01*
X019030Y005380D01*
X016730Y005380D01*
X016679Y005382D01*
X016628Y005387D01*
X016578Y005397D01*
X016528Y005410D01*
X016480Y005426D01*
X016433Y005446D01*
X016387Y005470D01*
X016344Y005496D01*
X016302Y005526D01*
X016263Y005559D01*
X016226Y005594D01*
X016192Y005632D01*
X016161Y005673D01*
X016132Y005715D01*
X016107Y005760D01*
X016086Y005806D01*
X016067Y005854D01*
X016053Y005903D01*
X016042Y005953D01*
X016034Y006003D01*
X016030Y006054D01*
X016030Y006106D01*
X016034Y006157D01*
X016042Y006207D01*
X016053Y006257D01*
X016067Y006306D01*
X016086Y006354D01*
X016107Y006400D01*
X016132Y006445D01*
X016161Y006487D01*
X016192Y006528D01*
X016226Y006566D01*
X016263Y006601D01*
X016302Y006634D01*
X016344Y006664D01*
X016387Y006690D01*
X016433Y006714D01*
X016480Y006734D01*
X016528Y006750D01*
X016578Y006763D01*
X016628Y006773D01*
X016679Y006778D01*
X016730Y006780D01*
D11*
X016380Y007580D02*
X017380Y007580D01*
X017380Y009580D01*
X016380Y009580D01*
X016380Y007580D01*
X016630Y008580D02*
X017130Y008580D01*
X018630Y008580D02*
X019130Y008580D01*
X019380Y009580D02*
X018380Y009580D01*
X018380Y007580D01*
X019380Y007580D01*
X019380Y009580D01*
X021908Y008320D02*
X022852Y008320D01*
X022852Y005840D01*
X021908Y005840D01*
X021908Y008320D01*
X023320Y007249D02*
X023320Y006911D01*
X023774Y006761D02*
X023986Y006761D01*
X024440Y006911D02*
X024440Y007249D01*
X024908Y008320D02*
X024908Y005840D01*
X025852Y005840D01*
X025852Y008320D01*
X024908Y008320D01*
X026680Y008280D02*
X027680Y008280D01*
X027680Y006280D01*
X026680Y006280D01*
X026680Y008280D01*
X026680Y008580D02*
X027680Y008580D01*
X027680Y010580D01*
X026680Y010580D01*
X026680Y008580D01*
X026930Y009580D02*
X027430Y009580D01*
X028230Y009580D02*
X028730Y009580D01*
X028980Y008580D02*
X027980Y008580D01*
X027980Y010580D01*
X028980Y010580D01*
X028980Y008580D01*
X031065Y011950D02*
X030955Y012014D01*
X030843Y012075D01*
X030729Y012133D01*
X030614Y012187D01*
X030496Y012238D01*
X030378Y012285D01*
X030258Y012329D01*
X030137Y012368D01*
X030014Y012405D01*
X029891Y012437D01*
X029767Y012466D01*
X029641Y012491D01*
X029516Y012512D01*
X029389Y012529D01*
X029262Y012543D01*
X029135Y012552D01*
X029008Y012558D01*
X028880Y012560D01*
X028752Y012558D01*
X028625Y012552D01*
X028498Y012543D01*
X028371Y012529D01*
X028244Y012512D01*
X028119Y012491D01*
X027993Y012466D01*
X027869Y012437D01*
X027746Y012405D01*
X027623Y012368D01*
X027502Y012329D01*
X027382Y012285D01*
X027264Y012238D01*
X027146Y012187D01*
X027031Y012133D01*
X026917Y012075D01*
X026805Y012014D01*
X026695Y011950D01*
X024726Y013289D01*
X024726Y013820D01*
X022380Y013780D02*
X022280Y013780D01*
X022380Y013780D02*
X022380Y011380D01*
X022280Y011380D01*
X022880Y010830D02*
X022880Y009330D01*
X026930Y007280D02*
X027430Y007280D01*
X028230Y007280D02*
X028730Y007280D01*
X028980Y008280D02*
X027980Y008280D01*
X027980Y006280D01*
X028980Y006280D01*
X028980Y008280D01*
X029600Y008080D02*
X029602Y008151D01*
X029608Y008222D01*
X029618Y008293D01*
X029632Y008362D01*
X029649Y008431D01*
X029671Y008499D01*
X029696Y008566D01*
X029725Y008631D01*
X029757Y008694D01*
X029793Y008756D01*
X029832Y008815D01*
X029875Y008872D01*
X029920Y008927D01*
X029969Y008979D01*
X030020Y009028D01*
X030074Y009074D01*
X030131Y009118D01*
X030189Y009158D01*
X030250Y009194D01*
X030313Y009228D01*
X030378Y009257D01*
X030444Y009283D01*
X030512Y009306D01*
X030580Y009324D01*
X030650Y009339D01*
X030720Y009350D01*
X030791Y009357D01*
X030862Y009360D01*
X030933Y009359D01*
X031004Y009354D01*
X031075Y009345D01*
X031145Y009332D01*
X031214Y009316D01*
X031282Y009295D01*
X031349Y009271D01*
X031415Y009243D01*
X031478Y009211D01*
X031540Y009176D01*
X031600Y009138D01*
X031658Y009096D01*
X031713Y009052D01*
X031766Y009004D01*
X031816Y008953D01*
X031863Y008900D01*
X031907Y008844D01*
X031948Y008786D01*
X031986Y008725D01*
X032020Y008663D01*
X032050Y008598D01*
X032077Y008533D01*
X032101Y008465D01*
X032120Y008397D01*
X032136Y008328D01*
X032148Y008257D01*
X032156Y008187D01*
X032160Y008116D01*
X032160Y008044D01*
X032156Y007973D01*
X032148Y007903D01*
X032136Y007832D01*
X032120Y007763D01*
X032101Y007695D01*
X032077Y007627D01*
X032050Y007562D01*
X032020Y007497D01*
X031986Y007435D01*
X031948Y007374D01*
X031907Y007316D01*
X031863Y007260D01*
X031816Y007207D01*
X031766Y007156D01*
X031713Y007108D01*
X031658Y007064D01*
X031600Y007022D01*
X031540Y006984D01*
X031478Y006949D01*
X031415Y006917D01*
X031349Y006889D01*
X031282Y006865D01*
X031214Y006844D01*
X031145Y006828D01*
X031075Y006815D01*
X031004Y006806D01*
X030933Y006801D01*
X030862Y006800D01*
X030791Y006803D01*
X030720Y006810D01*
X030650Y006821D01*
X030580Y006836D01*
X030512Y006854D01*
X030444Y006877D01*
X030378Y006903D01*
X030313Y006932D01*
X030250Y006966D01*
X030189Y007002D01*
X030131Y007042D01*
X030074Y007086D01*
X030020Y007132D01*
X029969Y007181D01*
X029920Y007233D01*
X029875Y007288D01*
X029832Y007345D01*
X029793Y007404D01*
X029757Y007466D01*
X029725Y007529D01*
X029696Y007594D01*
X029671Y007661D01*
X029649Y007729D01*
X029632Y007798D01*
X029618Y007867D01*
X029608Y007938D01*
X029602Y008009D01*
X029600Y008080D01*
X031380Y008330D02*
X031380Y008830D01*
X031193Y006441D02*
X034185Y006441D01*
X034185Y006067D01*
X033555Y006067D01*
X031193Y006441D02*
X031193Y004119D01*
X034185Y004119D01*
X034185Y004493D01*
X033555Y004493D01*
X029619Y004302D02*
X029619Y003672D01*
X029146Y003751D02*
X029146Y004302D01*
X029619Y004302D01*
X029146Y003751D02*
X027414Y003751D01*
X027414Y004302D01*
X026941Y004302D01*
X026941Y003672D01*
X025380Y003330D02*
X025380Y002830D01*
X025130Y002580D01*
X024630Y002580D01*
X024380Y002830D01*
X024130Y002580D01*
X023630Y002580D01*
X023380Y002830D01*
X023130Y002580D01*
X022630Y002580D01*
X022380Y002830D01*
X022130Y002580D01*
X021630Y002580D01*
X021380Y002830D01*
X021130Y002580D01*
X020630Y002580D01*
X020380Y002830D01*
X020130Y002580D01*
X019630Y002580D01*
X019380Y002830D01*
X019380Y003330D01*
X019630Y003580D01*
X020130Y003580D01*
X020380Y003330D01*
X020630Y003580D01*
X021130Y003580D01*
X021380Y003330D01*
X021630Y003580D01*
X022130Y003580D01*
X022380Y003330D01*
X022630Y003580D01*
X023130Y003580D01*
X023380Y003330D01*
X023630Y003580D01*
X024130Y003580D01*
X024380Y003330D01*
X024630Y003580D01*
X025130Y003580D01*
X025380Y003330D01*
X026941Y002609D02*
X029619Y002609D01*
X018880Y002830D02*
X018880Y003330D01*
X018630Y003580D01*
X018130Y003580D01*
X017880Y003330D01*
X017630Y003580D01*
X017130Y003580D01*
X016880Y003330D01*
X016630Y003580D01*
X016130Y003580D01*
X015880Y003330D01*
X015630Y003580D01*
X015130Y003580D01*
X014880Y003330D01*
X014630Y003580D01*
X014130Y003580D01*
X013880Y003330D01*
X013630Y003580D01*
X013130Y003580D01*
X012880Y003330D01*
X012880Y002830D01*
X013130Y002580D01*
X013630Y002580D01*
X013880Y002830D01*
X014130Y002580D01*
X014630Y002580D01*
X014880Y002830D01*
X015130Y002580D01*
X015630Y002580D01*
X015880Y002830D01*
X016130Y002580D01*
X016630Y002580D01*
X016880Y002830D01*
X017130Y002580D01*
X017630Y002580D01*
X017880Y002830D01*
X018130Y002580D01*
X018630Y002580D01*
X018880Y002830D01*
X013380Y005080D02*
X012380Y005080D01*
X012380Y007080D01*
X013380Y007080D01*
X013380Y005080D01*
X013130Y006080D02*
X012630Y006080D01*
X011880Y006386D02*
X011880Y005174D01*
X011368Y004780D02*
X010380Y004780D01*
X009880Y005174D02*
X009880Y006386D01*
X009580Y006680D02*
X008580Y006680D01*
X008580Y004680D01*
X009580Y004680D01*
X009580Y006680D01*
X010392Y006780D02*
X011368Y006780D01*
X012120Y007308D02*
X009640Y007308D01*
X009640Y008252D01*
X012120Y008252D01*
X012120Y007308D01*
X010380Y005780D02*
X010382Y005824D01*
X010388Y005868D01*
X010398Y005911D01*
X010411Y005953D01*
X010428Y005994D01*
X010449Y006033D01*
X010473Y006070D01*
X010500Y006105D01*
X010530Y006137D01*
X010563Y006167D01*
X010599Y006193D01*
X010636Y006217D01*
X010676Y006236D01*
X010717Y006253D01*
X010760Y006265D01*
X010803Y006274D01*
X010847Y006279D01*
X010891Y006280D01*
X010935Y006277D01*
X010979Y006270D01*
X011022Y006259D01*
X011064Y006245D01*
X011104Y006227D01*
X011143Y006205D01*
X011179Y006181D01*
X011213Y006153D01*
X011245Y006122D01*
X011274Y006088D01*
X011300Y006052D01*
X011322Y006014D01*
X011341Y005974D01*
X011356Y005932D01*
X011368Y005890D01*
X011376Y005846D01*
X011380Y005802D01*
X011380Y005758D01*
X011376Y005714D01*
X011368Y005670D01*
X011356Y005628D01*
X011341Y005586D01*
X011322Y005546D01*
X011300Y005508D01*
X011274Y005472D01*
X011245Y005438D01*
X011213Y005407D01*
X011179Y005379D01*
X011143Y005355D01*
X011104Y005333D01*
X011064Y005315D01*
X011022Y005301D01*
X010979Y005290D01*
X010935Y005283D01*
X010891Y005280D01*
X010847Y005281D01*
X010803Y005286D01*
X010760Y005295D01*
X010717Y005307D01*
X010676Y005324D01*
X010636Y005343D01*
X010599Y005367D01*
X010563Y005393D01*
X010530Y005423D01*
X010500Y005455D01*
X010473Y005490D01*
X010449Y005527D01*
X010428Y005566D01*
X010411Y005607D01*
X010398Y005649D01*
X010388Y005692D01*
X010382Y005736D01*
X010380Y005780D01*
X009330Y005680D02*
X008830Y005680D01*
X006280Y005430D02*
X006030Y005180D01*
X005530Y005180D01*
X005280Y005430D01*
X005280Y005930D01*
X005530Y006180D01*
X005280Y006430D01*
X005280Y006930D01*
X005530Y007180D01*
X005280Y007430D01*
X005280Y007930D01*
X005530Y008180D01*
X005280Y008430D01*
X005280Y008930D01*
X005530Y009180D01*
X006030Y009180D01*
X006280Y008930D01*
X006280Y008430D01*
X006030Y008180D01*
X006280Y007930D01*
X006280Y007430D01*
X006030Y007180D01*
X006280Y006930D01*
X006280Y006430D01*
X006030Y006180D01*
X006280Y005930D01*
X006280Y005430D01*
X005280Y005430D02*
X005280Y005930D01*
X005030Y006180D01*
X005280Y006430D01*
X005280Y006930D01*
X005030Y007180D01*
X005280Y007430D01*
X005280Y007930D01*
X005030Y008180D01*
X005280Y008430D01*
X005280Y008930D01*
X005030Y009180D01*
X004530Y009180D01*
X004280Y008930D01*
X004280Y008430D01*
X004530Y008180D01*
X004280Y007930D01*
X004280Y007430D01*
X004530Y007180D01*
X004280Y006930D01*
X004280Y006430D01*
X004530Y006180D01*
X004280Y005930D01*
X004280Y005430D01*
X004530Y005180D01*
X005030Y005180D01*
X005280Y005430D01*
X006630Y003580D02*
X006380Y003330D01*
X006380Y002830D01*
X006630Y002580D01*
X007130Y002580D01*
X007380Y002830D01*
X007630Y002580D01*
X008130Y002580D01*
X008380Y002830D01*
X008630Y002580D01*
X009130Y002580D01*
X009380Y002830D01*
X009630Y002580D01*
X010130Y002580D01*
X010380Y002830D01*
X010630Y002580D01*
X011130Y002580D01*
X011380Y002830D01*
X011630Y002580D01*
X012130Y002580D01*
X012380Y002830D01*
X012380Y003330D01*
X012130Y003580D01*
X011630Y003580D01*
X011380Y003330D01*
X011130Y003580D01*
X010630Y003580D01*
X010380Y003330D01*
X010130Y003580D01*
X009630Y003580D01*
X009380Y003330D01*
X009130Y003580D01*
X008630Y003580D01*
X008380Y003330D01*
X008130Y003580D01*
X007630Y003580D01*
X007380Y003330D01*
X007130Y003580D01*
X006630Y003580D01*
X008380Y011380D02*
X008480Y011380D01*
X008380Y011380D02*
X008380Y012080D01*
X008424Y012082D01*
X008467Y012088D01*
X008509Y012097D01*
X008551Y012110D01*
X008591Y012127D01*
X008630Y012147D01*
X008667Y012170D01*
X008701Y012197D01*
X008734Y012226D01*
X008763Y012259D01*
X008790Y012293D01*
X008813Y012330D01*
X008833Y012369D01*
X008850Y012409D01*
X008863Y012451D01*
X008872Y012493D01*
X008878Y012536D01*
X008880Y012580D01*
X008878Y012624D01*
X008872Y012667D01*
X008863Y012709D01*
X008850Y012751D01*
X008833Y012791D01*
X008813Y012830D01*
X008790Y012867D01*
X008763Y012901D01*
X008734Y012934D01*
X008701Y012963D01*
X008667Y012990D01*
X008630Y013013D01*
X008591Y013033D01*
X008551Y013050D01*
X008509Y013063D01*
X008467Y013072D01*
X008424Y013078D01*
X008380Y013080D01*
X008380Y013780D01*
X008480Y013780D01*
X008630Y015580D02*
X009130Y015580D01*
X009380Y015830D01*
X009630Y015580D01*
X010130Y015580D01*
X010380Y015830D01*
X010630Y015580D01*
X011130Y015580D01*
X011380Y015830D01*
X011630Y015580D01*
X012130Y015580D01*
X012380Y015830D01*
X012630Y015580D01*
X013130Y015580D01*
X013380Y015830D01*
X013630Y015580D01*
X014130Y015580D01*
X014380Y015830D01*
X014380Y016330D01*
X014130Y016580D01*
X013630Y016580D01*
X013380Y016330D01*
X013130Y016580D01*
X012630Y016580D01*
X012380Y016330D01*
X012130Y016580D01*
X011630Y016580D01*
X011380Y016330D01*
X011130Y016580D01*
X010630Y016580D01*
X010380Y016330D01*
X010130Y016580D01*
X009630Y016580D01*
X009380Y016330D01*
X009130Y016580D01*
X008630Y016580D01*
X008380Y016330D01*
X008380Y015830D01*
X008630Y015580D01*
X016140Y015608D02*
X018620Y015608D01*
X018620Y016552D01*
X016140Y016552D01*
X016140Y015608D01*
X022880Y015330D02*
X022880Y016830D01*
X024726Y016911D02*
X024726Y016340D01*
X024726Y016911D02*
X025927Y017974D01*
X031833Y017974D01*
X033034Y016911D01*
X033034Y016340D01*
X033034Y013820D02*
X033034Y013289D01*
X031065Y011950D01*
D12*
X030982Y009685D02*
X030982Y009535D01*
X030932Y009535D02*
X031032Y009535D01*
X030932Y009635D02*
X030982Y009685D01*
X030885Y009660D02*
X030860Y009685D01*
X030810Y009685D01*
X030785Y009660D01*
X030785Y009560D01*
X030810Y009535D01*
X030860Y009535D01*
X030885Y009560D01*
X032350Y006206D02*
X032325Y006181D01*
X032325Y006131D01*
X032350Y006106D01*
X032400Y006058D02*
X032400Y005958D01*
X032400Y005911D02*
X032400Y005811D01*
X032475Y005811D02*
X032325Y005811D01*
X032325Y005764D02*
X032325Y005664D01*
X032325Y005714D02*
X032475Y005714D01*
X032400Y005616D02*
X032425Y005591D01*
X032425Y005516D01*
X032475Y005516D02*
X032325Y005516D01*
X032325Y005591D01*
X032350Y005616D01*
X032400Y005616D01*
X032400Y005469D02*
X032400Y005369D01*
X032325Y005322D02*
X032325Y005222D01*
X032325Y005272D02*
X032475Y005272D01*
X032450Y005174D02*
X032475Y005149D01*
X032475Y005099D01*
X032450Y005074D01*
X032400Y005099D02*
X032400Y005149D01*
X032425Y005174D01*
X032450Y005174D01*
X032400Y005099D02*
X032375Y005074D01*
X032350Y005074D01*
X032325Y005099D01*
X032325Y005149D01*
X032350Y005174D01*
X032325Y005027D02*
X032325Y004977D01*
X032325Y005002D02*
X032450Y005002D01*
X032475Y004977D01*
X032475Y004952D01*
X032450Y004927D01*
X032475Y004880D02*
X032475Y004780D01*
X032375Y004880D01*
X032350Y004880D01*
X032325Y004855D01*
X032325Y004805D01*
X032350Y004780D01*
X032350Y004732D02*
X032450Y004632D01*
X032475Y004657D01*
X032475Y004707D01*
X032450Y004732D01*
X032350Y004732D01*
X032325Y004707D01*
X032325Y004657D01*
X032350Y004632D01*
X032450Y004632D01*
X032475Y004585D02*
X032325Y004585D01*
X032375Y004535D01*
X032325Y004485D01*
X032475Y004485D01*
X032050Y005085D02*
X032075Y005110D01*
X032075Y005135D01*
X032050Y005160D01*
X031925Y005160D01*
X031925Y005135D02*
X031925Y005185D01*
X031925Y005232D02*
X031925Y005307D01*
X031950Y005332D01*
X032000Y005332D01*
X032025Y005307D01*
X032025Y005232D01*
X032075Y005232D02*
X031925Y005232D01*
X031975Y005380D02*
X031925Y005430D01*
X032075Y005430D01*
X032075Y005380D02*
X032075Y005480D01*
X032050Y005527D02*
X031950Y005627D01*
X032050Y005627D01*
X032075Y005602D01*
X032075Y005552D01*
X032050Y005527D01*
X031950Y005527D01*
X031925Y005552D01*
X031925Y005602D01*
X031950Y005627D01*
X032325Y005911D02*
X032475Y005911D01*
X032475Y006106D02*
X032375Y006206D01*
X032350Y006206D01*
X032475Y006206D02*
X032475Y006106D01*
X024413Y007000D02*
X024313Y007000D01*
X024363Y007000D02*
X024363Y007150D01*
X024313Y007100D01*
X024265Y007100D02*
X024240Y007075D01*
X024265Y007050D01*
X024265Y007025D01*
X024240Y007000D01*
X024190Y007000D01*
X024165Y007025D01*
X024118Y007025D02*
X024093Y007000D01*
X024043Y007000D01*
X024018Y007025D01*
X024018Y007050D01*
X024043Y007075D01*
X024093Y007075D01*
X024118Y007050D01*
X024118Y007025D01*
X024093Y007075D02*
X024118Y007100D01*
X024118Y007125D01*
X024093Y007150D01*
X024043Y007150D01*
X024018Y007125D01*
X024018Y007100D01*
X024043Y007075D01*
X023971Y007050D02*
X023971Y007025D01*
X023946Y007000D01*
X023896Y007000D01*
X023871Y007025D01*
X023921Y007075D02*
X023946Y007075D01*
X023971Y007050D01*
X023946Y007075D02*
X023971Y007100D01*
X023971Y007125D01*
X023946Y007150D01*
X023896Y007150D01*
X023871Y007125D01*
X023823Y007125D02*
X023723Y007025D01*
X023723Y007000D01*
X023651Y007050D02*
X023576Y007050D01*
X023576Y007000D02*
X023576Y007150D01*
X023651Y007150D01*
X023676Y007125D01*
X023676Y007075D01*
X023651Y007050D01*
X023723Y007150D02*
X023823Y007150D01*
X023823Y007125D01*
X023529Y007125D02*
X023504Y007150D01*
X023454Y007150D01*
X023429Y007125D01*
X023429Y007025D01*
X023454Y007000D01*
X023504Y007000D01*
X023529Y007025D01*
X023381Y007000D02*
X023381Y007150D01*
X023331Y007100D01*
X023281Y007150D01*
X023281Y007000D01*
X023740Y006625D02*
X023740Y006500D01*
X023765Y006475D01*
X023815Y006475D01*
X023840Y006500D01*
X023840Y006625D01*
X023888Y006600D02*
X023913Y006625D01*
X023963Y006625D01*
X023988Y006600D01*
X023988Y006575D01*
X023888Y006475D01*
X023988Y006475D01*
X024215Y007075D02*
X024240Y007075D01*
X024265Y007100D02*
X024265Y007125D01*
X024240Y007150D01*
X024190Y007150D01*
X024165Y007125D01*
X022848Y009300D02*
X022920Y009354D01*
X022919Y009353D02*
X022962Y009300D01*
X023007Y009249D01*
X023056Y009201D01*
X023107Y009156D01*
X023161Y009113D01*
X023217Y009074D01*
X023275Y009038D01*
X023335Y009005D01*
X023396Y008976D01*
X023460Y008951D01*
X023524Y008929D01*
X023590Y008910D01*
X023657Y008896D01*
X023724Y008885D01*
X023792Y008878D01*
X023860Y008875D01*
X023929Y008876D01*
X023997Y008881D01*
X024065Y008889D01*
X024132Y008902D01*
X024198Y008918D01*
X024263Y008938D01*
X024328Y008961D01*
X024390Y008988D01*
X024451Y009019D01*
X024510Y009053D01*
X024568Y009090D01*
X024623Y009131D01*
X024675Y009175D01*
X024725Y009221D01*
X024772Y009270D01*
X024817Y009322D01*
X024858Y009376D01*
X024897Y009433D01*
X024932Y009492D01*
X024963Y009552D01*
X024991Y009614D01*
X025016Y009678D01*
X025037Y009743D01*
X025054Y009809D01*
X025068Y009876D01*
X025077Y009944D01*
X025083Y010012D01*
X025085Y010080D01*
X025083Y010148D01*
X025077Y010216D01*
X025068Y010284D01*
X025054Y010351D01*
X025037Y010417D01*
X025016Y010482D01*
X024991Y010546D01*
X024963Y010608D01*
X024932Y010668D01*
X024897Y010727D01*
X024858Y010784D01*
X024817Y010838D01*
X024772Y010890D01*
X024725Y010939D01*
X024675Y010985D01*
X024623Y011029D01*
X024568Y011070D01*
X024510Y011107D01*
X024451Y011141D01*
X024390Y011172D01*
X024328Y011199D01*
X024263Y011222D01*
X024198Y011242D01*
X024132Y011258D01*
X024065Y011271D01*
X023997Y011279D01*
X023929Y011284D01*
X023860Y011285D01*
X023792Y011282D01*
X023724Y011275D01*
X023657Y011264D01*
X023590Y011250D01*
X023524Y011231D01*
X023460Y011209D01*
X023396Y011184D01*
X023335Y011155D01*
X023275Y011122D01*
X023217Y011086D01*
X023161Y011047D01*
X023107Y011004D01*
X023056Y010959D01*
X023007Y010911D01*
X022962Y010860D01*
X022919Y010807D01*
X022848Y010860D01*
X022847Y010861D01*
X022891Y010916D01*
X022939Y010969D01*
X022989Y011020D01*
X023042Y011067D01*
X023097Y011111D01*
X023155Y011153D01*
X023215Y011191D01*
X023276Y011226D01*
X023340Y011257D01*
X023405Y011285D01*
X023472Y011309D01*
X023540Y011330D01*
X023609Y011346D01*
X023679Y011359D01*
X023749Y011368D01*
X023820Y011374D01*
X023891Y011375D01*
X023962Y011372D01*
X024033Y011366D01*
X024103Y011356D01*
X024172Y011342D01*
X024241Y011324D01*
X024309Y011302D01*
X024375Y011277D01*
X024440Y011248D01*
X024503Y011215D01*
X024564Y011179D01*
X024623Y011140D01*
X024680Y011098D01*
X024735Y011053D01*
X024787Y011004D01*
X024836Y010953D01*
X024883Y010900D01*
X024926Y010843D01*
X024966Y010785D01*
X025003Y010724D01*
X025037Y010662D01*
X025067Y010598D01*
X025094Y010532D01*
X025117Y010465D01*
X025136Y010396D01*
X025151Y010327D01*
X025163Y010257D01*
X025171Y010186D01*
X025175Y010115D01*
X025175Y010045D01*
X025171Y009974D01*
X025163Y009903D01*
X025151Y009833D01*
X025136Y009764D01*
X025117Y009695D01*
X025094Y009628D01*
X025067Y009562D01*
X025037Y009498D01*
X025003Y009436D01*
X024966Y009375D01*
X024926Y009317D01*
X024883Y009260D01*
X024836Y009207D01*
X024787Y009156D01*
X024735Y009107D01*
X024680Y009062D01*
X024623Y009020D01*
X024564Y008981D01*
X024503Y008945D01*
X024440Y008912D01*
X024375Y008883D01*
X024309Y008858D01*
X024241Y008836D01*
X024172Y008818D01*
X024103Y008804D01*
X024033Y008794D01*
X023962Y008788D01*
X023891Y008785D01*
X023820Y008786D01*
X023749Y008792D01*
X023679Y008801D01*
X023609Y008814D01*
X023540Y008830D01*
X023472Y008851D01*
X023405Y008875D01*
X023340Y008903D01*
X023276Y008934D01*
X023215Y008969D01*
X023155Y009007D01*
X023097Y009049D01*
X023042Y009093D01*
X022989Y009140D01*
X022939Y009191D01*
X022891Y009244D01*
X022847Y009299D01*
X022854Y009304D01*
X022899Y009249D01*
X022946Y009196D01*
X022997Y009145D01*
X023050Y009098D01*
X023106Y009053D01*
X023164Y009012D01*
X023224Y008974D01*
X023286Y008939D01*
X023350Y008908D01*
X023416Y008881D01*
X023483Y008857D01*
X023552Y008837D01*
X023621Y008820D01*
X023691Y008808D01*
X023762Y008799D01*
X023833Y008795D01*
X023904Y008794D01*
X023975Y008798D01*
X024046Y008805D01*
X024117Y008816D01*
X024186Y008831D01*
X024255Y008850D01*
X024323Y008873D01*
X024389Y008899D01*
X024454Y008929D01*
X024516Y008963D01*
X024577Y008999D01*
X024636Y009040D01*
X024693Y009083D01*
X024747Y009130D01*
X024798Y009179D01*
X024846Y009232D01*
X024892Y009286D01*
X024934Y009344D01*
X024973Y009403D01*
X025009Y009465D01*
X025042Y009528D01*
X025070Y009593D01*
X025096Y009660D01*
X025117Y009728D01*
X025135Y009797D01*
X025148Y009867D01*
X025158Y009938D01*
X025164Y010009D01*
X025166Y010080D01*
X025164Y010151D01*
X025158Y010222D01*
X025148Y010293D01*
X025135Y010363D01*
X025117Y010432D01*
X025096Y010500D01*
X025070Y010567D01*
X025042Y010632D01*
X025009Y010695D01*
X024973Y010757D01*
X024934Y010816D01*
X024892Y010874D01*
X024846Y010928D01*
X024798Y010981D01*
X024747Y011030D01*
X024693Y011077D01*
X024636Y011120D01*
X024577Y011161D01*
X024516Y011197D01*
X024454Y011231D01*
X024389Y011261D01*
X024323Y011287D01*
X024255Y011310D01*
X024186Y011329D01*
X024117Y011344D01*
X024046Y011355D01*
X023975Y011362D01*
X023904Y011366D01*
X023833Y011365D01*
X023762Y011361D01*
X023691Y011352D01*
X023621Y011340D01*
X023552Y011323D01*
X023483Y011303D01*
X023416Y011279D01*
X023350Y011252D01*
X023286Y011221D01*
X023224Y011186D01*
X023164Y011148D01*
X023106Y011107D01*
X023050Y011062D01*
X022997Y011015D01*
X022946Y010964D01*
X022899Y010911D01*
X022854Y010856D01*
X022861Y010850D01*
X022906Y010905D01*
X022953Y010958D01*
X023003Y011008D01*
X023056Y011055D01*
X023111Y011099D01*
X023169Y011141D01*
X023228Y011178D01*
X023290Y011213D01*
X023354Y011244D01*
X023419Y011271D01*
X023486Y011295D01*
X023554Y011315D01*
X023623Y011331D01*
X023692Y011343D01*
X023763Y011352D01*
X023833Y011356D01*
X023904Y011357D01*
X023975Y011353D01*
X024045Y011346D01*
X024115Y011335D01*
X024184Y011320D01*
X024252Y011301D01*
X024320Y011279D01*
X024385Y011253D01*
X024450Y011223D01*
X024512Y011190D01*
X024572Y011153D01*
X024631Y011113D01*
X024687Y011070D01*
X024741Y011024D01*
X024791Y010974D01*
X024840Y010923D01*
X024885Y010868D01*
X024927Y010811D01*
X024966Y010752D01*
X025001Y010691D01*
X025034Y010628D01*
X025062Y010563D01*
X025087Y010497D01*
X025108Y010429D01*
X025126Y010361D01*
X025139Y010291D01*
X025149Y010221D01*
X025155Y010151D01*
X025157Y010080D01*
X025155Y010009D01*
X025149Y009939D01*
X025139Y009869D01*
X025126Y009799D01*
X025108Y009731D01*
X025087Y009663D01*
X025062Y009597D01*
X025034Y009532D01*
X025001Y009469D01*
X024966Y009408D01*
X024927Y009349D01*
X024885Y009292D01*
X024840Y009237D01*
X024791Y009186D01*
X024741Y009136D01*
X024687Y009090D01*
X024631Y009047D01*
X024572Y009007D01*
X024512Y008970D01*
X024450Y008937D01*
X024385Y008907D01*
X024320Y008881D01*
X024252Y008859D01*
X024184Y008840D01*
X024115Y008825D01*
X024045Y008814D01*
X023975Y008807D01*
X023904Y008803D01*
X023833Y008804D01*
X023763Y008808D01*
X023692Y008817D01*
X023623Y008829D01*
X023554Y008845D01*
X023486Y008865D01*
X023419Y008889D01*
X023354Y008916D01*
X023290Y008947D01*
X023228Y008982D01*
X023169Y009019D01*
X023111Y009061D01*
X023056Y009105D01*
X023003Y009152D01*
X022953Y009202D01*
X022906Y009255D01*
X022861Y009310D01*
X022869Y009315D01*
X022913Y009260D01*
X022961Y009207D01*
X023011Y009157D01*
X023064Y009109D01*
X023120Y009065D01*
X023178Y009024D01*
X023238Y008987D01*
X023300Y008952D01*
X023364Y008922D01*
X023430Y008895D01*
X023497Y008871D01*
X023565Y008852D01*
X023635Y008836D01*
X023705Y008824D01*
X023775Y008816D01*
X023846Y008812D01*
X023917Y008813D01*
X023988Y008817D01*
X024059Y008825D01*
X024129Y008837D01*
X024198Y008853D01*
X024266Y008872D01*
X024334Y008896D01*
X024399Y008923D01*
X024463Y008954D01*
X024525Y008988D01*
X024585Y009026D01*
X024643Y009068D01*
X024699Y009112D01*
X024752Y009159D01*
X024802Y009210D01*
X024849Y009263D01*
X024894Y009318D01*
X024935Y009376D01*
X024972Y009436D01*
X025007Y009499D01*
X025038Y009563D01*
X025065Y009628D01*
X025088Y009695D01*
X025108Y009764D01*
X025124Y009833D01*
X025136Y009903D01*
X025144Y009974D01*
X025148Y010044D01*
X025148Y010116D01*
X025144Y010186D01*
X025136Y010257D01*
X025124Y010327D01*
X025108Y010396D01*
X025088Y010465D01*
X025065Y010532D01*
X025038Y010597D01*
X025007Y010661D01*
X024972Y010724D01*
X024935Y010784D01*
X024894Y010842D01*
X024849Y010897D01*
X024802Y010950D01*
X024752Y011001D01*
X024699Y011048D01*
X024643Y011092D01*
X024585Y011134D01*
X024525Y011172D01*
X024463Y011206D01*
X024399Y011237D01*
X024334Y011264D01*
X024266Y011288D01*
X024198Y011307D01*
X024129Y011323D01*
X024059Y011335D01*
X023988Y011343D01*
X023917Y011347D01*
X023846Y011348D01*
X023775Y011344D01*
X023705Y011336D01*
X023635Y011324D01*
X023565Y011308D01*
X023497Y011289D01*
X023430Y011265D01*
X023364Y011238D01*
X023300Y011208D01*
X023238Y011173D01*
X023178Y011136D01*
X023120Y011095D01*
X023064Y011051D01*
X023011Y011003D01*
X022961Y010953D01*
X022913Y010900D01*
X022869Y010845D01*
X022876Y010839D01*
X022920Y010894D01*
X022967Y010947D01*
X023017Y010997D01*
X023070Y011044D01*
X023125Y011088D01*
X023183Y011128D01*
X023242Y011166D01*
X023304Y011200D01*
X023368Y011230D01*
X023433Y011257D01*
X023500Y011280D01*
X023568Y011300D01*
X023636Y011315D01*
X023706Y011327D01*
X023776Y011335D01*
X023847Y011339D01*
X023917Y011338D01*
X023988Y011334D01*
X024058Y011326D01*
X024127Y011314D01*
X024196Y011299D01*
X024264Y011279D01*
X024330Y011256D01*
X024395Y011229D01*
X024459Y011198D01*
X024521Y011164D01*
X024580Y011126D01*
X024638Y011085D01*
X024693Y011041D01*
X024746Y010994D01*
X024795Y010944D01*
X024842Y010892D01*
X024886Y010836D01*
X024927Y010779D01*
X024965Y010719D01*
X024999Y010657D01*
X025029Y010594D01*
X025056Y010529D01*
X025080Y010462D01*
X025099Y010394D01*
X025115Y010325D01*
X025127Y010256D01*
X025135Y010186D01*
X025139Y010115D01*
X025139Y010045D01*
X025135Y009974D01*
X025127Y009904D01*
X025115Y009835D01*
X025099Y009766D01*
X025080Y009698D01*
X025056Y009631D01*
X025029Y009566D01*
X024999Y009503D01*
X024965Y009441D01*
X024927Y009381D01*
X024886Y009324D01*
X024842Y009268D01*
X024795Y009216D01*
X024746Y009166D01*
X024693Y009119D01*
X024638Y009075D01*
X024580Y009034D01*
X024521Y008996D01*
X024459Y008962D01*
X024395Y008931D01*
X024330Y008904D01*
X024264Y008881D01*
X024196Y008861D01*
X024127Y008846D01*
X024058Y008834D01*
X023988Y008826D01*
X023917Y008822D01*
X023847Y008821D01*
X023776Y008825D01*
X023706Y008833D01*
X023636Y008845D01*
X023568Y008860D01*
X023500Y008880D01*
X023433Y008903D01*
X023368Y008930D01*
X023304Y008960D01*
X023242Y008994D01*
X023183Y009032D01*
X023125Y009072D01*
X023070Y009116D01*
X023017Y009163D01*
X022967Y009213D01*
X022920Y009266D01*
X022876Y009321D01*
X022883Y009326D01*
X022927Y009271D01*
X022974Y009219D01*
X023023Y009170D01*
X023076Y009123D01*
X023130Y009080D01*
X023188Y009039D01*
X023247Y009002D01*
X023308Y008968D01*
X023372Y008938D01*
X023436Y008911D01*
X023503Y008888D01*
X023570Y008869D01*
X023638Y008854D01*
X023707Y008842D01*
X023777Y008834D01*
X023847Y008830D01*
X023917Y008831D01*
X023987Y008835D01*
X024056Y008843D01*
X024125Y008854D01*
X024194Y008870D01*
X024261Y008889D01*
X024327Y008913D01*
X024392Y008940D01*
X024455Y008970D01*
X024516Y009004D01*
X024575Y009041D01*
X024633Y009082D01*
X024687Y009126D01*
X024739Y009172D01*
X024789Y009222D01*
X024836Y009274D01*
X024879Y009329D01*
X024920Y009386D01*
X024957Y009445D01*
X024991Y009507D01*
X025021Y009570D01*
X025048Y009635D01*
X025071Y009701D01*
X025090Y009768D01*
X025106Y009836D01*
X025118Y009905D01*
X025126Y009975D01*
X025130Y010045D01*
X025130Y010115D01*
X025126Y010185D01*
X025118Y010255D01*
X025106Y010324D01*
X025090Y010392D01*
X025071Y010459D01*
X025048Y010525D01*
X025021Y010590D01*
X024991Y010653D01*
X024957Y010715D01*
X024920Y010774D01*
X024879Y010831D01*
X024836Y010886D01*
X024789Y010938D01*
X024739Y010988D01*
X024687Y011034D01*
X024633Y011078D01*
X024575Y011119D01*
X024516Y011156D01*
X024455Y011190D01*
X024392Y011220D01*
X024327Y011247D01*
X024261Y011271D01*
X024194Y011290D01*
X024125Y011306D01*
X024056Y011317D01*
X023987Y011325D01*
X023917Y011329D01*
X023847Y011330D01*
X023777Y011326D01*
X023707Y011318D01*
X023638Y011306D01*
X023570Y011291D01*
X023503Y011272D01*
X023436Y011249D01*
X023372Y011222D01*
X023308Y011192D01*
X023247Y011158D01*
X023188Y011121D01*
X023130Y011080D01*
X023076Y011037D01*
X023023Y010990D01*
X022974Y010941D01*
X022927Y010889D01*
X022883Y010834D01*
X022890Y010829D01*
X022934Y010883D01*
X022980Y010935D01*
X023029Y010984D01*
X023081Y011030D01*
X023136Y011073D01*
X023193Y011113D01*
X023252Y011150D01*
X023313Y011184D01*
X023375Y011214D01*
X023440Y011240D01*
X023505Y011263D01*
X023572Y011282D01*
X023640Y011298D01*
X023709Y011309D01*
X023778Y011317D01*
X023847Y011321D01*
X023917Y011320D01*
X023986Y011316D01*
X024055Y011309D01*
X024124Y011297D01*
X024191Y011281D01*
X024258Y011262D01*
X024324Y011239D01*
X024388Y011212D01*
X024451Y011182D01*
X024512Y011148D01*
X024570Y011111D01*
X024627Y011071D01*
X024681Y011028D01*
X024733Y010981D01*
X024782Y010932D01*
X024829Y010880D01*
X024872Y010826D01*
X024912Y010769D01*
X024949Y010710D01*
X024983Y010649D01*
X025013Y010586D01*
X025040Y010522D01*
X025063Y010457D01*
X025082Y010390D01*
X025097Y010322D01*
X025109Y010253D01*
X025117Y010184D01*
X025121Y010115D01*
X025121Y010045D01*
X025117Y009976D01*
X025109Y009907D01*
X025097Y009838D01*
X025082Y009770D01*
X025063Y009703D01*
X025040Y009638D01*
X025013Y009574D01*
X024983Y009511D01*
X024949Y009450D01*
X024912Y009391D01*
X024872Y009334D01*
X024829Y009280D01*
X024782Y009228D01*
X024733Y009179D01*
X024681Y009132D01*
X024627Y009089D01*
X024570Y009049D01*
X024512Y009012D01*
X024451Y008978D01*
X024388Y008948D01*
X024324Y008921D01*
X024258Y008898D01*
X024191Y008879D01*
X024124Y008863D01*
X024055Y008851D01*
X023986Y008844D01*
X023917Y008840D01*
X023847Y008839D01*
X023778Y008843D01*
X023709Y008851D01*
X023640Y008862D01*
X023572Y008878D01*
X023505Y008897D01*
X023440Y008920D01*
X023375Y008946D01*
X023313Y008976D01*
X023252Y009010D01*
X023193Y009047D01*
X023136Y009087D01*
X023081Y009130D01*
X023029Y009176D01*
X022980Y009225D01*
X022934Y009277D01*
X022890Y009331D01*
X022897Y009337D01*
X022941Y009283D01*
X022987Y009232D01*
X023036Y009183D01*
X023087Y009137D01*
X023141Y009094D01*
X023198Y009054D01*
X023256Y009018D01*
X023317Y008984D01*
X023379Y008954D01*
X023443Y008928D01*
X023508Y008906D01*
X023574Y008887D01*
X023642Y008871D01*
X023710Y008860D01*
X023778Y008852D01*
X023847Y008848D01*
X023916Y008849D01*
X023985Y008853D01*
X024054Y008860D01*
X024122Y008872D01*
X024189Y008887D01*
X024256Y008907D01*
X024321Y008930D01*
X024384Y008956D01*
X024447Y008986D01*
X024507Y009019D01*
X024565Y009056D01*
X024622Y009096D01*
X024676Y009139D01*
X024727Y009185D01*
X024776Y009234D01*
X024822Y009286D01*
X024865Y009340D01*
X024905Y009396D01*
X024941Y009455D01*
X024975Y009515D01*
X025005Y009577D01*
X025031Y009641D01*
X025054Y009706D01*
X025073Y009773D01*
X025088Y009840D01*
X025100Y009908D01*
X025108Y009977D01*
X025112Y010045D01*
X025112Y010115D01*
X025108Y010183D01*
X025100Y010252D01*
X025088Y010320D01*
X025073Y010387D01*
X025054Y010454D01*
X025031Y010519D01*
X025005Y010583D01*
X024975Y010645D01*
X024941Y010705D01*
X024905Y010764D01*
X024865Y010820D01*
X024822Y010874D01*
X024776Y010926D01*
X024727Y010975D01*
X024676Y011021D01*
X024622Y011064D01*
X024565Y011104D01*
X024507Y011141D01*
X024447Y011174D01*
X024384Y011204D01*
X024321Y011230D01*
X024256Y011253D01*
X024189Y011273D01*
X024122Y011288D01*
X024054Y011300D01*
X023985Y011307D01*
X023916Y011311D01*
X023847Y011312D01*
X023778Y011308D01*
X023710Y011300D01*
X023642Y011289D01*
X023574Y011273D01*
X023508Y011254D01*
X023443Y011232D01*
X023379Y011206D01*
X023317Y011176D01*
X023256Y011142D01*
X023198Y011106D01*
X023141Y011066D01*
X023087Y011023D01*
X023036Y010977D01*
X022987Y010928D01*
X022941Y010877D01*
X022897Y010823D01*
X022905Y010818D01*
X022948Y010872D01*
X022994Y010923D01*
X023044Y010972D01*
X023095Y011018D01*
X023150Y011061D01*
X023207Y011101D01*
X023265Y011137D01*
X023326Y011171D01*
X023389Y011200D01*
X023453Y011226D01*
X023519Y011248D01*
X023586Y011267D01*
X023653Y011282D01*
X023722Y011293D01*
X023791Y011300D01*
X023860Y011303D01*
X023929Y011302D01*
X023999Y011297D01*
X024067Y011289D01*
X024135Y011276D01*
X024203Y011260D01*
X024269Y011239D01*
X024334Y011216D01*
X024398Y011188D01*
X024460Y011157D01*
X024520Y011122D01*
X024578Y011084D01*
X024634Y011043D01*
X024687Y010999D01*
X024738Y010952D01*
X024786Y010902D01*
X024831Y010849D01*
X024873Y010794D01*
X024912Y010737D01*
X024947Y010677D01*
X024979Y010616D01*
X025008Y010553D01*
X025033Y010488D01*
X025054Y010422D01*
X025072Y010355D01*
X025085Y010287D01*
X025095Y010218D01*
X025101Y010149D01*
X025103Y010080D01*
X025101Y010011D01*
X025095Y009942D01*
X025085Y009873D01*
X025072Y009805D01*
X025054Y009738D01*
X025033Y009672D01*
X025008Y009607D01*
X024979Y009544D01*
X024947Y009483D01*
X024912Y009423D01*
X024873Y009366D01*
X024831Y009311D01*
X024786Y009258D01*
X024738Y009208D01*
X024687Y009161D01*
X024634Y009117D01*
X024578Y009076D01*
X024520Y009038D01*
X024460Y009003D01*
X024398Y008972D01*
X024334Y008944D01*
X024269Y008921D01*
X024203Y008900D01*
X024135Y008884D01*
X024067Y008871D01*
X023999Y008863D01*
X023929Y008858D01*
X023860Y008857D01*
X023791Y008860D01*
X023722Y008867D01*
X023653Y008878D01*
X023586Y008893D01*
X023519Y008912D01*
X023453Y008934D01*
X023389Y008960D01*
X023326Y008989D01*
X023265Y009023D01*
X023207Y009059D01*
X023150Y009099D01*
X023095Y009142D01*
X023044Y009188D01*
X022994Y009237D01*
X022948Y009288D01*
X022905Y009342D01*
X022912Y009348D01*
X022955Y009294D01*
X023001Y009243D01*
X023050Y009194D01*
X023101Y009149D01*
X023155Y009106D01*
X023212Y009067D01*
X023270Y009030D01*
X023330Y008997D01*
X023393Y008968D01*
X023456Y008942D01*
X023522Y008920D01*
X023588Y008902D01*
X023655Y008887D01*
X023723Y008876D01*
X023792Y008869D01*
X023860Y008866D01*
X023929Y008867D01*
X023998Y008872D01*
X024066Y008880D01*
X024134Y008893D01*
X024200Y008909D01*
X024266Y008929D01*
X024331Y008953D01*
X024394Y008980D01*
X024455Y009011D01*
X024515Y009045D01*
X024573Y009083D01*
X024628Y009124D01*
X024681Y009168D01*
X024731Y009215D01*
X024779Y009264D01*
X024824Y009316D01*
X024866Y009371D01*
X024904Y009428D01*
X024939Y009487D01*
X024971Y009548D01*
X025000Y009611D01*
X025024Y009675D01*
X025046Y009741D01*
X025063Y009807D01*
X025076Y009875D01*
X025086Y009943D01*
X025092Y010011D01*
X025094Y010080D01*
X025092Y010149D01*
X025086Y010217D01*
X025076Y010285D01*
X025063Y010353D01*
X025046Y010419D01*
X025024Y010485D01*
X025000Y010549D01*
X024971Y010612D01*
X024939Y010673D01*
X024904Y010732D01*
X024866Y010789D01*
X024824Y010844D01*
X024779Y010896D01*
X024731Y010945D01*
X024681Y010992D01*
X024628Y011036D01*
X024573Y011077D01*
X024515Y011115D01*
X024455Y011149D01*
X024394Y011180D01*
X024331Y011207D01*
X024266Y011231D01*
X024200Y011251D01*
X024134Y011267D01*
X024066Y011280D01*
X023998Y011288D01*
X023929Y011293D01*
X023860Y011294D01*
X023792Y011291D01*
X023723Y011284D01*
X023655Y011273D01*
X023588Y011258D01*
X023522Y011240D01*
X023456Y011218D01*
X023393Y011192D01*
X023330Y011163D01*
X023270Y011130D01*
X023212Y011093D01*
X023155Y011054D01*
X023101Y011011D01*
X023050Y010966D01*
X023001Y010917D01*
X022955Y010866D01*
X022912Y010812D01*
X028235Y015835D02*
X028335Y015935D01*
X028335Y015960D01*
X028310Y015985D01*
X028260Y015985D01*
X028235Y015960D01*
X028235Y015835D02*
X028335Y015835D01*
X028382Y015860D02*
X028482Y015960D01*
X028482Y015860D01*
X028457Y015835D01*
X028407Y015835D01*
X028382Y015860D01*
X028382Y015960D01*
X028407Y015985D01*
X028457Y015985D01*
X028482Y015960D01*
X028530Y015935D02*
X028555Y015935D01*
X028580Y015910D01*
X028605Y015935D01*
X028630Y015910D01*
X028630Y015835D01*
X028677Y015835D02*
X028677Y015935D01*
X028702Y015935D01*
X028727Y015910D01*
X028752Y015935D01*
X028777Y015910D01*
X028777Y015835D01*
X028727Y015835D02*
X028727Y015910D01*
X028580Y015910D02*
X028580Y015835D01*
X028530Y015835D02*
X028530Y015935D01*
X028972Y015910D02*
X028972Y015860D01*
X028997Y015835D01*
X029072Y015835D01*
X029119Y015860D02*
X029144Y015835D01*
X029194Y015835D01*
X029219Y015860D01*
X029219Y015910D01*
X029194Y015935D01*
X029144Y015935D01*
X029119Y015910D01*
X029119Y015860D01*
X029072Y015935D02*
X028997Y015935D01*
X028972Y015910D01*
X029266Y015935D02*
X029291Y015935D01*
X029291Y015835D01*
X029266Y015835D02*
X029316Y015835D01*
X029364Y015835D02*
X029364Y015935D01*
X029440Y015935D01*
X029465Y015910D01*
X029465Y015835D01*
X029512Y015860D02*
X029537Y015835D01*
X029612Y015835D01*
X029659Y015860D02*
X029659Y015910D01*
X029684Y015935D01*
X029734Y015935D01*
X029759Y015910D01*
X029759Y015885D01*
X029659Y015885D01*
X029659Y015860D02*
X029684Y015835D01*
X029734Y015835D01*
X029806Y015835D02*
X029857Y015835D01*
X029831Y015835D02*
X029831Y015985D01*
X029806Y015985D01*
X029905Y015985D02*
X029930Y015985D01*
X029930Y015835D01*
X029905Y015835D02*
X029955Y015835D01*
X029612Y015935D02*
X029537Y015935D01*
X029512Y015910D01*
X029512Y015860D01*
X029291Y015985D02*
X029291Y016010D01*
X031635Y018135D02*
X031710Y018135D01*
X031735Y018160D01*
X031735Y018185D01*
X031710Y018210D01*
X031635Y018210D01*
X031635Y018135D02*
X031635Y018285D01*
X031710Y018285D01*
X031735Y018260D01*
X031735Y018235D01*
X031710Y018210D01*
X031782Y018210D02*
X031882Y018210D01*
X031882Y018235D02*
X031882Y018135D01*
X031980Y018135D02*
X031980Y018285D01*
X031930Y018285D02*
X032030Y018285D01*
X032077Y018235D02*
X032127Y018285D01*
X032127Y018135D01*
X032077Y018135D02*
X032177Y018135D01*
X031882Y018235D02*
X031832Y018285D01*
X031782Y018235D01*
X031782Y018135D01*
X022912Y016860D02*
X022840Y016806D01*
X022841Y016807D02*
X022798Y016860D01*
X022753Y016911D01*
X022704Y016959D01*
X022653Y017004D01*
X022599Y017047D01*
X022543Y017086D01*
X022485Y017122D01*
X022425Y017155D01*
X022364Y017184D01*
X022300Y017209D01*
X022236Y017231D01*
X022170Y017250D01*
X022103Y017264D01*
X022036Y017275D01*
X021968Y017282D01*
X021900Y017285D01*
X021831Y017284D01*
X021763Y017279D01*
X021695Y017271D01*
X021628Y017258D01*
X021562Y017242D01*
X021497Y017222D01*
X021432Y017199D01*
X021370Y017172D01*
X021309Y017141D01*
X021250Y017107D01*
X021192Y017070D01*
X021137Y017029D01*
X021085Y016985D01*
X021035Y016939D01*
X020988Y016890D01*
X020943Y016838D01*
X020902Y016784D01*
X020863Y016727D01*
X020828Y016668D01*
X020797Y016608D01*
X020769Y016546D01*
X020744Y016482D01*
X020723Y016417D01*
X020706Y016351D01*
X020692Y016284D01*
X020683Y016216D01*
X020677Y016148D01*
X020675Y016080D01*
X020677Y016012D01*
X020683Y015944D01*
X020692Y015876D01*
X020706Y015809D01*
X020723Y015743D01*
X020744Y015678D01*
X020769Y015614D01*
X020797Y015552D01*
X020828Y015492D01*
X020863Y015433D01*
X020902Y015376D01*
X020943Y015322D01*
X020988Y015270D01*
X021035Y015221D01*
X021085Y015175D01*
X021137Y015131D01*
X021192Y015090D01*
X021250Y015053D01*
X021309Y015019D01*
X021370Y014988D01*
X021432Y014961D01*
X021497Y014938D01*
X021562Y014918D01*
X021628Y014902D01*
X021695Y014889D01*
X021763Y014881D01*
X021831Y014876D01*
X021900Y014875D01*
X021968Y014878D01*
X022036Y014885D01*
X022103Y014896D01*
X022170Y014910D01*
X022236Y014929D01*
X022300Y014951D01*
X022364Y014976D01*
X022425Y015005D01*
X022485Y015038D01*
X022543Y015074D01*
X022599Y015113D01*
X022653Y015156D01*
X022704Y015201D01*
X022753Y015249D01*
X022798Y015300D01*
X022841Y015353D01*
X022912Y015300D01*
X022913Y015299D01*
X022869Y015244D01*
X022821Y015191D01*
X022771Y015140D01*
X022718Y015093D01*
X022663Y015049D01*
X022605Y015007D01*
X022545Y014969D01*
X022484Y014934D01*
X022420Y014903D01*
X022355Y014875D01*
X022288Y014851D01*
X022220Y014830D01*
X022151Y014814D01*
X022081Y014801D01*
X022011Y014792D01*
X021940Y014786D01*
X021869Y014785D01*
X021798Y014788D01*
X021727Y014794D01*
X021657Y014804D01*
X021588Y014818D01*
X021519Y014836D01*
X021451Y014858D01*
X021385Y014883D01*
X021320Y014912D01*
X021257Y014945D01*
X021196Y014981D01*
X021137Y015020D01*
X021080Y015062D01*
X021025Y015107D01*
X020973Y015156D01*
X020924Y015207D01*
X020877Y015260D01*
X020834Y015317D01*
X020794Y015375D01*
X020757Y015436D01*
X020723Y015498D01*
X020693Y015562D01*
X020666Y015628D01*
X020643Y015695D01*
X020624Y015764D01*
X020609Y015833D01*
X020597Y015903D01*
X020589Y015974D01*
X020585Y016045D01*
X020585Y016115D01*
X020589Y016186D01*
X020597Y016257D01*
X020609Y016327D01*
X020624Y016396D01*
X020643Y016465D01*
X020666Y016532D01*
X020693Y016598D01*
X020723Y016662D01*
X020757Y016724D01*
X020794Y016785D01*
X020834Y016843D01*
X020877Y016900D01*
X020924Y016953D01*
X020973Y017004D01*
X021025Y017053D01*
X021080Y017098D01*
X021137Y017140D01*
X021196Y017179D01*
X021257Y017215D01*
X021320Y017248D01*
X021385Y017277D01*
X021451Y017302D01*
X021519Y017324D01*
X021588Y017342D01*
X021657Y017356D01*
X021727Y017366D01*
X021798Y017372D01*
X021869Y017375D01*
X021940Y017374D01*
X022011Y017368D01*
X022081Y017359D01*
X022151Y017346D01*
X022220Y017330D01*
X022288Y017309D01*
X022355Y017285D01*
X022420Y017257D01*
X022484Y017226D01*
X022545Y017191D01*
X022605Y017153D01*
X022663Y017111D01*
X022718Y017067D01*
X022771Y017020D01*
X022821Y016969D01*
X022869Y016916D01*
X022913Y016861D01*
X022906Y016856D01*
X022861Y016911D01*
X022814Y016964D01*
X022763Y017015D01*
X022710Y017062D01*
X022654Y017107D01*
X022596Y017148D01*
X022536Y017186D01*
X022474Y017221D01*
X022410Y017252D01*
X022344Y017279D01*
X022277Y017303D01*
X022208Y017323D01*
X022139Y017340D01*
X022069Y017352D01*
X021998Y017361D01*
X021927Y017365D01*
X021856Y017366D01*
X021785Y017362D01*
X021714Y017355D01*
X021643Y017344D01*
X021574Y017329D01*
X021505Y017310D01*
X021437Y017287D01*
X021371Y017261D01*
X021306Y017231D01*
X021244Y017197D01*
X021183Y017161D01*
X021124Y017120D01*
X021067Y017077D01*
X021013Y017030D01*
X020962Y016981D01*
X020914Y016928D01*
X020868Y016874D01*
X020826Y016816D01*
X020787Y016757D01*
X020751Y016695D01*
X020718Y016632D01*
X020690Y016567D01*
X020664Y016500D01*
X020643Y016432D01*
X020625Y016363D01*
X020612Y016293D01*
X020602Y016222D01*
X020596Y016151D01*
X020594Y016080D01*
X020596Y016009D01*
X020602Y015938D01*
X020612Y015867D01*
X020625Y015797D01*
X020643Y015728D01*
X020664Y015660D01*
X020690Y015593D01*
X020718Y015528D01*
X020751Y015465D01*
X020787Y015403D01*
X020826Y015344D01*
X020868Y015286D01*
X020914Y015232D01*
X020962Y015179D01*
X021013Y015130D01*
X021067Y015083D01*
X021124Y015040D01*
X021183Y014999D01*
X021244Y014963D01*
X021306Y014929D01*
X021371Y014899D01*
X021437Y014873D01*
X021505Y014850D01*
X021574Y014831D01*
X021643Y014816D01*
X021714Y014805D01*
X021785Y014798D01*
X021856Y014794D01*
X021927Y014795D01*
X021998Y014799D01*
X022069Y014808D01*
X022139Y014820D01*
X022208Y014837D01*
X022277Y014857D01*
X022344Y014881D01*
X022410Y014908D01*
X022474Y014939D01*
X022536Y014974D01*
X022596Y015012D01*
X022654Y015053D01*
X022710Y015098D01*
X022763Y015145D01*
X022814Y015196D01*
X022861Y015249D01*
X022906Y015304D01*
X022899Y015310D01*
X022854Y015255D01*
X022807Y015202D01*
X022757Y015152D01*
X022704Y015105D01*
X022649Y015061D01*
X022591Y015019D01*
X022532Y014982D01*
X022470Y014947D01*
X022406Y014916D01*
X022341Y014889D01*
X022274Y014865D01*
X022206Y014845D01*
X022137Y014829D01*
X022068Y014817D01*
X021997Y014808D01*
X021927Y014804D01*
X021856Y014803D01*
X021785Y014807D01*
X021715Y014814D01*
X021645Y014825D01*
X021576Y014840D01*
X021508Y014859D01*
X021440Y014881D01*
X021375Y014907D01*
X021310Y014937D01*
X021248Y014970D01*
X021188Y015007D01*
X021129Y015047D01*
X021073Y015090D01*
X021019Y015136D01*
X020969Y015186D01*
X020920Y015237D01*
X020875Y015292D01*
X020833Y015349D01*
X020794Y015408D01*
X020759Y015469D01*
X020726Y015532D01*
X020698Y015597D01*
X020673Y015663D01*
X020652Y015731D01*
X020634Y015799D01*
X020621Y015869D01*
X020611Y015939D01*
X020605Y016009D01*
X020603Y016080D01*
X020605Y016151D01*
X020611Y016221D01*
X020621Y016291D01*
X020634Y016361D01*
X020652Y016429D01*
X020673Y016497D01*
X020698Y016563D01*
X020726Y016628D01*
X020759Y016691D01*
X020794Y016752D01*
X020833Y016811D01*
X020875Y016868D01*
X020920Y016923D01*
X020969Y016974D01*
X021019Y017024D01*
X021073Y017070D01*
X021129Y017113D01*
X021188Y017153D01*
X021248Y017190D01*
X021310Y017223D01*
X021375Y017253D01*
X021440Y017279D01*
X021508Y017301D01*
X021576Y017320D01*
X021645Y017335D01*
X021715Y017346D01*
X021785Y017353D01*
X021856Y017357D01*
X021927Y017356D01*
X021997Y017352D01*
X022068Y017343D01*
X022137Y017331D01*
X022206Y017315D01*
X022274Y017295D01*
X022341Y017271D01*
X022406Y017244D01*
X022470Y017213D01*
X022532Y017178D01*
X022591Y017141D01*
X022649Y017099D01*
X022704Y017055D01*
X022757Y017008D01*
X022807Y016958D01*
X022854Y016905D01*
X022899Y016850D01*
X022891Y016845D01*
X022847Y016900D01*
X022799Y016953D01*
X022749Y017003D01*
X022696Y017051D01*
X022640Y017095D01*
X022582Y017136D01*
X022522Y017173D01*
X022460Y017208D01*
X022396Y017238D01*
X022330Y017265D01*
X022263Y017289D01*
X022195Y017308D01*
X022125Y017324D01*
X022055Y017336D01*
X021985Y017344D01*
X021914Y017348D01*
X021843Y017347D01*
X021772Y017343D01*
X021701Y017335D01*
X021631Y017323D01*
X021562Y017307D01*
X021494Y017288D01*
X021426Y017264D01*
X021361Y017237D01*
X021297Y017206D01*
X021235Y017172D01*
X021175Y017134D01*
X021117Y017092D01*
X021061Y017048D01*
X021008Y017001D01*
X020958Y016950D01*
X020911Y016897D01*
X020866Y016842D01*
X020825Y016784D01*
X020788Y016724D01*
X020753Y016661D01*
X020722Y016597D01*
X020695Y016532D01*
X020672Y016465D01*
X020652Y016396D01*
X020636Y016327D01*
X020624Y016257D01*
X020616Y016186D01*
X020612Y016116D01*
X020612Y016044D01*
X020616Y015974D01*
X020624Y015903D01*
X020636Y015833D01*
X020652Y015764D01*
X020672Y015695D01*
X020695Y015628D01*
X020722Y015563D01*
X020753Y015499D01*
X020788Y015436D01*
X020825Y015376D01*
X020866Y015318D01*
X020911Y015263D01*
X020958Y015210D01*
X021008Y015159D01*
X021061Y015112D01*
X021117Y015068D01*
X021175Y015026D01*
X021235Y014988D01*
X021297Y014954D01*
X021361Y014923D01*
X021426Y014896D01*
X021494Y014872D01*
X021562Y014853D01*
X021631Y014837D01*
X021701Y014825D01*
X021772Y014817D01*
X021843Y014813D01*
X021914Y014812D01*
X021985Y014816D01*
X022055Y014824D01*
X022125Y014836D01*
X022195Y014852D01*
X022263Y014871D01*
X022330Y014895D01*
X022396Y014922D01*
X022460Y014952D01*
X022522Y014987D01*
X022582Y015024D01*
X022640Y015065D01*
X022696Y015109D01*
X022749Y015157D01*
X022799Y015207D01*
X022847Y015260D01*
X022891Y015315D01*
X022884Y015321D01*
X022840Y015266D01*
X022793Y015213D01*
X022743Y015163D01*
X022690Y015116D01*
X022635Y015072D01*
X022577Y015032D01*
X022518Y014994D01*
X022456Y014960D01*
X022392Y014930D01*
X022327Y014903D01*
X022260Y014880D01*
X022192Y014860D01*
X022124Y014845D01*
X022054Y014833D01*
X021984Y014825D01*
X021913Y014821D01*
X021843Y014822D01*
X021772Y014826D01*
X021702Y014834D01*
X021633Y014846D01*
X021564Y014861D01*
X021496Y014881D01*
X021430Y014904D01*
X021365Y014931D01*
X021301Y014962D01*
X021239Y014996D01*
X021180Y015034D01*
X021122Y015075D01*
X021067Y015119D01*
X021014Y015166D01*
X020965Y015216D01*
X020918Y015268D01*
X020874Y015324D01*
X020833Y015381D01*
X020795Y015441D01*
X020761Y015503D01*
X020731Y015566D01*
X020704Y015631D01*
X020680Y015698D01*
X020661Y015766D01*
X020645Y015835D01*
X020633Y015904D01*
X020625Y015974D01*
X020621Y016045D01*
X020621Y016115D01*
X020625Y016186D01*
X020633Y016256D01*
X020645Y016325D01*
X020661Y016394D01*
X020680Y016462D01*
X020704Y016529D01*
X020731Y016594D01*
X020761Y016657D01*
X020795Y016719D01*
X020833Y016779D01*
X020874Y016836D01*
X020918Y016892D01*
X020965Y016944D01*
X021014Y016994D01*
X021067Y017041D01*
X021122Y017085D01*
X021180Y017126D01*
X021239Y017164D01*
X021301Y017198D01*
X021365Y017229D01*
X021430Y017256D01*
X021496Y017279D01*
X021564Y017299D01*
X021633Y017314D01*
X021702Y017326D01*
X021772Y017334D01*
X021843Y017338D01*
X021913Y017339D01*
X021984Y017335D01*
X022054Y017327D01*
X022124Y017315D01*
X022192Y017300D01*
X022260Y017280D01*
X022327Y017257D01*
X022392Y017230D01*
X022456Y017200D01*
X022518Y017166D01*
X022577Y017128D01*
X022635Y017088D01*
X022690Y017044D01*
X022743Y016997D01*
X022793Y016947D01*
X022840Y016894D01*
X022884Y016839D01*
X022877Y016834D01*
X022833Y016889D01*
X022786Y016941D01*
X022737Y016990D01*
X022684Y017037D01*
X022630Y017080D01*
X022572Y017121D01*
X022513Y017158D01*
X022452Y017192D01*
X022388Y017222D01*
X022324Y017249D01*
X022257Y017272D01*
X022190Y017291D01*
X022122Y017306D01*
X022053Y017318D01*
X021983Y017326D01*
X021913Y017330D01*
X021843Y017329D01*
X021773Y017325D01*
X021704Y017317D01*
X021635Y017306D01*
X021566Y017290D01*
X021499Y017271D01*
X021433Y017247D01*
X021368Y017220D01*
X021305Y017190D01*
X021244Y017156D01*
X021185Y017119D01*
X021127Y017078D01*
X021073Y017034D01*
X021021Y016988D01*
X020971Y016938D01*
X020924Y016886D01*
X020881Y016831D01*
X020840Y016774D01*
X020803Y016715D01*
X020769Y016653D01*
X020739Y016590D01*
X020712Y016525D01*
X020689Y016459D01*
X020670Y016392D01*
X020654Y016324D01*
X020642Y016255D01*
X020634Y016185D01*
X020630Y016115D01*
X020630Y016045D01*
X020634Y015975D01*
X020642Y015905D01*
X020654Y015836D01*
X020670Y015768D01*
X020689Y015701D01*
X020712Y015635D01*
X020739Y015570D01*
X020769Y015507D01*
X020803Y015445D01*
X020840Y015386D01*
X020881Y015329D01*
X020924Y015274D01*
X020971Y015222D01*
X021021Y015172D01*
X021073Y015126D01*
X021127Y015082D01*
X021185Y015041D01*
X021244Y015004D01*
X021305Y014970D01*
X021368Y014940D01*
X021433Y014913D01*
X021499Y014889D01*
X021566Y014870D01*
X021635Y014854D01*
X021704Y014843D01*
X021773Y014835D01*
X021843Y014831D01*
X021913Y014830D01*
X021983Y014834D01*
X022053Y014842D01*
X022122Y014854D01*
X022190Y014869D01*
X022257Y014888D01*
X022324Y014911D01*
X022388Y014938D01*
X022452Y014968D01*
X022513Y015002D01*
X022572Y015039D01*
X022630Y015080D01*
X022684Y015123D01*
X022737Y015170D01*
X022786Y015219D01*
X022833Y015271D01*
X022877Y015326D01*
X022870Y015331D01*
X022826Y015277D01*
X022780Y015225D01*
X022731Y015176D01*
X022679Y015130D01*
X022624Y015087D01*
X022567Y015047D01*
X022508Y015010D01*
X022447Y014976D01*
X022385Y014946D01*
X022320Y014920D01*
X022255Y014897D01*
X022188Y014878D01*
X022120Y014862D01*
X022051Y014851D01*
X021982Y014843D01*
X021913Y014839D01*
X021843Y014840D01*
X021774Y014844D01*
X021705Y014851D01*
X021636Y014863D01*
X021569Y014879D01*
X021502Y014898D01*
X021436Y014921D01*
X021372Y014948D01*
X021309Y014978D01*
X021248Y015012D01*
X021190Y015049D01*
X021133Y015089D01*
X021079Y015132D01*
X021027Y015179D01*
X020978Y015228D01*
X020931Y015280D01*
X020888Y015334D01*
X020848Y015391D01*
X020811Y015450D01*
X020777Y015511D01*
X020747Y015574D01*
X020720Y015638D01*
X020697Y015703D01*
X020678Y015770D01*
X020663Y015838D01*
X020651Y015907D01*
X020643Y015976D01*
X020639Y016045D01*
X020639Y016115D01*
X020643Y016184D01*
X020651Y016253D01*
X020663Y016322D01*
X020678Y016390D01*
X020697Y016457D01*
X020720Y016522D01*
X020747Y016586D01*
X020777Y016649D01*
X020811Y016710D01*
X020848Y016769D01*
X020888Y016826D01*
X020931Y016880D01*
X020978Y016932D01*
X021027Y016981D01*
X021079Y017028D01*
X021133Y017071D01*
X021190Y017111D01*
X021248Y017148D01*
X021309Y017182D01*
X021372Y017212D01*
X021436Y017239D01*
X021502Y017262D01*
X021569Y017281D01*
X021636Y017297D01*
X021705Y017309D01*
X021774Y017316D01*
X021843Y017320D01*
X021913Y017321D01*
X021982Y017317D01*
X022051Y017309D01*
X022120Y017298D01*
X022188Y017282D01*
X022255Y017263D01*
X022320Y017240D01*
X022385Y017214D01*
X022447Y017184D01*
X022508Y017150D01*
X022567Y017113D01*
X022624Y017073D01*
X022679Y017030D01*
X022731Y016984D01*
X022780Y016935D01*
X022826Y016883D01*
X022870Y016829D01*
X022863Y016823D01*
X022819Y016877D01*
X022773Y016928D01*
X022724Y016977D01*
X022673Y017023D01*
X022619Y017066D01*
X022562Y017106D01*
X022504Y017142D01*
X022443Y017176D01*
X022381Y017206D01*
X022317Y017232D01*
X022252Y017254D01*
X022186Y017273D01*
X022118Y017289D01*
X022050Y017300D01*
X021982Y017308D01*
X021913Y017312D01*
X021844Y017311D01*
X021775Y017307D01*
X021706Y017300D01*
X021638Y017288D01*
X021571Y017273D01*
X021504Y017253D01*
X021439Y017230D01*
X021376Y017204D01*
X021313Y017174D01*
X021253Y017141D01*
X021195Y017104D01*
X021138Y017064D01*
X021084Y017021D01*
X021033Y016975D01*
X020984Y016926D01*
X020938Y016874D01*
X020895Y016820D01*
X020855Y016764D01*
X020819Y016705D01*
X020785Y016645D01*
X020755Y016583D01*
X020729Y016519D01*
X020706Y016454D01*
X020687Y016387D01*
X020672Y016320D01*
X020660Y016252D01*
X020652Y016183D01*
X020648Y016115D01*
X020648Y016045D01*
X020652Y015977D01*
X020660Y015908D01*
X020672Y015840D01*
X020687Y015773D01*
X020706Y015706D01*
X020729Y015641D01*
X020755Y015577D01*
X020785Y015515D01*
X020819Y015455D01*
X020855Y015396D01*
X020895Y015340D01*
X020938Y015286D01*
X020984Y015234D01*
X021033Y015185D01*
X021084Y015139D01*
X021138Y015096D01*
X021195Y015056D01*
X021253Y015019D01*
X021313Y014986D01*
X021376Y014956D01*
X021439Y014930D01*
X021504Y014907D01*
X021571Y014887D01*
X021638Y014872D01*
X021706Y014860D01*
X021775Y014853D01*
X021844Y014849D01*
X021913Y014848D01*
X021982Y014852D01*
X022050Y014860D01*
X022118Y014871D01*
X022186Y014887D01*
X022252Y014906D01*
X022317Y014928D01*
X022381Y014954D01*
X022443Y014984D01*
X022504Y015018D01*
X022562Y015054D01*
X022619Y015094D01*
X022673Y015137D01*
X022724Y015183D01*
X022773Y015232D01*
X022819Y015283D01*
X022863Y015337D01*
X022855Y015342D01*
X022812Y015288D01*
X022766Y015237D01*
X022716Y015188D01*
X022665Y015142D01*
X022610Y015099D01*
X022553Y015059D01*
X022495Y015023D01*
X022434Y014989D01*
X022371Y014960D01*
X022307Y014934D01*
X022241Y014912D01*
X022174Y014893D01*
X022107Y014878D01*
X022038Y014867D01*
X021969Y014860D01*
X021900Y014857D01*
X021831Y014858D01*
X021761Y014863D01*
X021693Y014871D01*
X021625Y014884D01*
X021557Y014900D01*
X021491Y014921D01*
X021426Y014944D01*
X021362Y014972D01*
X021300Y015003D01*
X021240Y015038D01*
X021182Y015076D01*
X021126Y015117D01*
X021073Y015161D01*
X021022Y015208D01*
X020974Y015258D01*
X020929Y015311D01*
X020887Y015366D01*
X020848Y015423D01*
X020813Y015483D01*
X020781Y015544D01*
X020752Y015607D01*
X020727Y015672D01*
X020706Y015738D01*
X020688Y015805D01*
X020675Y015873D01*
X020665Y015942D01*
X020659Y016011D01*
X020657Y016080D01*
X020659Y016149D01*
X020665Y016218D01*
X020675Y016287D01*
X020688Y016355D01*
X020706Y016422D01*
X020727Y016488D01*
X020752Y016553D01*
X020781Y016616D01*
X020813Y016677D01*
X020848Y016737D01*
X020887Y016794D01*
X020929Y016849D01*
X020974Y016902D01*
X021022Y016952D01*
X021073Y016999D01*
X021126Y017043D01*
X021182Y017084D01*
X021240Y017122D01*
X021300Y017157D01*
X021362Y017188D01*
X021426Y017216D01*
X021491Y017239D01*
X021557Y017260D01*
X021625Y017276D01*
X021693Y017289D01*
X021761Y017297D01*
X021831Y017302D01*
X021900Y017303D01*
X021969Y017300D01*
X022038Y017293D01*
X022107Y017282D01*
X022174Y017267D01*
X022241Y017248D01*
X022307Y017226D01*
X022371Y017200D01*
X022434Y017171D01*
X022495Y017137D01*
X022553Y017101D01*
X022610Y017061D01*
X022665Y017018D01*
X022716Y016972D01*
X022766Y016923D01*
X022812Y016872D01*
X022855Y016818D01*
X022848Y016812D01*
X022805Y016866D01*
X022759Y016917D01*
X022710Y016966D01*
X022659Y017011D01*
X022605Y017054D01*
X022548Y017093D01*
X022490Y017130D01*
X022430Y017163D01*
X022367Y017192D01*
X022304Y017218D01*
X022238Y017240D01*
X022172Y017258D01*
X022105Y017273D01*
X022037Y017284D01*
X021968Y017291D01*
X021900Y017294D01*
X021831Y017293D01*
X021762Y017288D01*
X021694Y017280D01*
X021626Y017267D01*
X021560Y017251D01*
X021494Y017231D01*
X021429Y017207D01*
X021366Y017180D01*
X021305Y017149D01*
X021245Y017115D01*
X021187Y017077D01*
X021132Y017036D01*
X021079Y016992D01*
X021029Y016945D01*
X020981Y016896D01*
X020936Y016844D01*
X020894Y016789D01*
X020856Y016732D01*
X020821Y016673D01*
X020789Y016612D01*
X020760Y016549D01*
X020736Y016485D01*
X020714Y016419D01*
X020697Y016353D01*
X020684Y016285D01*
X020674Y016217D01*
X020668Y016149D01*
X020666Y016080D01*
X020668Y016011D01*
X020674Y015943D01*
X020684Y015875D01*
X020697Y015807D01*
X020714Y015741D01*
X020736Y015675D01*
X020760Y015611D01*
X020789Y015548D01*
X020821Y015487D01*
X020856Y015428D01*
X020894Y015371D01*
X020936Y015316D01*
X020981Y015264D01*
X021029Y015215D01*
X021079Y015168D01*
X021132Y015124D01*
X021187Y015083D01*
X021245Y015045D01*
X021305Y015011D01*
X021366Y014980D01*
X021429Y014953D01*
X021494Y014929D01*
X021560Y014909D01*
X021626Y014893D01*
X021694Y014880D01*
X021762Y014872D01*
X021831Y014867D01*
X021900Y014866D01*
X021968Y014869D01*
X022037Y014876D01*
X022105Y014887D01*
X022172Y014902D01*
X022238Y014920D01*
X022304Y014942D01*
X022367Y014968D01*
X022430Y014997D01*
X022490Y015030D01*
X022548Y015067D01*
X022605Y015106D01*
X022659Y015149D01*
X022710Y015194D01*
X022759Y015243D01*
X022805Y015294D01*
X022848Y015348D01*
X010938Y005775D02*
X010938Y005625D01*
X010888Y005625D02*
X010988Y005625D01*
X010888Y005725D02*
X010938Y005775D01*
X010840Y005750D02*
X010815Y005775D01*
X010765Y005775D01*
X010740Y005750D01*
X010740Y005725D01*
X010765Y005700D01*
X010815Y005700D01*
X010840Y005675D01*
X010840Y005650D01*
X010815Y005625D01*
X010765Y005625D01*
X010740Y005650D01*
D13*
X009258Y004423D02*
X009258Y004387D01*
X009221Y004350D01*
X009148Y004350D01*
X009111Y004387D01*
X009111Y004423D01*
X009148Y004460D01*
X009221Y004460D01*
X009258Y004423D01*
X009221Y004350D02*
X009258Y004313D01*
X009258Y004277D01*
X009221Y004240D01*
X009148Y004240D01*
X009111Y004277D01*
X009111Y004313D01*
X009148Y004350D01*
X009037Y004277D02*
X009000Y004240D01*
X008927Y004240D01*
X008890Y004277D01*
X008890Y004423D01*
X008927Y004460D01*
X009000Y004460D01*
X009037Y004423D01*
X012648Y004737D02*
X012685Y004700D01*
X012758Y004700D01*
X012795Y004737D01*
X012869Y004737D02*
X012906Y004700D01*
X012979Y004700D01*
X013016Y004737D01*
X013016Y004883D01*
X012979Y004920D01*
X012906Y004920D01*
X012869Y004883D01*
X012869Y004847D01*
X012906Y004810D01*
X013016Y004810D01*
X012795Y004883D02*
X012758Y004920D01*
X012685Y004920D01*
X012648Y004883D01*
X012648Y004737D01*
X015785Y008800D02*
X015858Y008800D01*
X015895Y008837D01*
X015969Y008837D02*
X015969Y008800D01*
X015969Y008837D02*
X016116Y008983D01*
X016116Y009020D01*
X015969Y009020D01*
X015895Y008983D02*
X015858Y009020D01*
X015785Y009020D01*
X015748Y008983D01*
X015748Y008837D01*
X015785Y008800D01*
X019590Y008877D02*
X019627Y008840D01*
X019700Y008840D01*
X019737Y008877D01*
X019811Y008877D02*
X019848Y008840D01*
X019921Y008840D01*
X019958Y008877D01*
X019958Y008913D01*
X019921Y008950D01*
X019811Y008950D01*
X019811Y008877D01*
X019811Y008950D02*
X019884Y009023D01*
X019958Y009060D01*
X019737Y009023D02*
X019700Y009060D01*
X019627Y009060D01*
X019590Y009023D01*
X019590Y008877D01*
X014457Y012700D02*
X014420Y012663D01*
X014310Y012663D01*
X014310Y012590D02*
X014310Y012810D01*
X014420Y012810D01*
X014457Y012773D01*
X014457Y012700D01*
X014236Y012590D02*
X014163Y012590D01*
X014200Y012590D02*
X014200Y012810D01*
X014236Y012810D02*
X014163Y012810D01*
X014089Y012773D02*
X014089Y012627D01*
X014052Y012590D01*
X013942Y012590D01*
X013942Y012810D01*
X014052Y012810D01*
X014089Y012773D01*
X013868Y012773D02*
X013868Y012700D01*
X013831Y012663D01*
X013721Y012663D01*
X013721Y012590D02*
X013721Y012810D01*
X013831Y012810D01*
X013868Y012773D01*
X013647Y012553D02*
X013500Y012553D01*
X013389Y012663D02*
X013279Y012663D01*
X013279Y012590D02*
X013279Y012810D01*
X013389Y012810D01*
X013426Y012773D01*
X013426Y012700D01*
X013389Y012663D01*
X013205Y012663D02*
X013205Y012627D01*
X013168Y012590D01*
X013095Y012590D01*
X013058Y012627D01*
X013058Y012663D01*
X013095Y012700D01*
X013168Y012700D01*
X013205Y012663D01*
X013168Y012700D02*
X013205Y012737D01*
X013205Y012773D01*
X013168Y012810D01*
X013095Y012810D01*
X013058Y012773D01*
X013058Y012737D01*
X013095Y012700D01*
X012984Y012737D02*
X012984Y012773D01*
X012947Y012810D01*
X012874Y012810D01*
X012837Y012773D01*
X012763Y012773D02*
X012763Y012737D01*
X012726Y012700D01*
X012763Y012663D01*
X012763Y012627D01*
X012726Y012590D01*
X012653Y012590D01*
X012616Y012627D01*
X012542Y012590D02*
X012542Y012737D01*
X012468Y012810D01*
X012395Y012737D01*
X012395Y012590D01*
X012321Y012627D02*
X012321Y012700D01*
X012247Y012700D01*
X012174Y012627D02*
X012211Y012590D01*
X012284Y012590D01*
X012321Y012627D01*
X012395Y012700D02*
X012542Y012700D01*
X012616Y012773D02*
X012653Y012810D01*
X012726Y012810D01*
X012763Y012773D01*
X012726Y012700D02*
X012689Y012700D01*
X012837Y012590D02*
X012984Y012737D01*
X012984Y012590D02*
X012837Y012590D01*
X012321Y012773D02*
X012284Y012810D01*
X012211Y012810D01*
X012174Y012773D01*
X012174Y012627D01*
X012100Y012590D02*
X011953Y012590D01*
X011953Y012810D01*
X012100Y012810D01*
X012026Y012700D02*
X011953Y012700D01*
X011879Y012810D02*
X011879Y012590D01*
X011732Y012590D02*
X011732Y012810D01*
X011805Y012737D01*
X011879Y012810D01*
X011658Y012810D02*
X011511Y012810D01*
X011584Y012810D02*
X011584Y012590D01*
X011437Y012590D02*
X011437Y012737D01*
X011363Y012810D01*
X011290Y012737D01*
X011290Y012590D01*
X011290Y012700D02*
X011437Y012700D01*
X026948Y010883D02*
X026948Y010737D01*
X026985Y010700D01*
X027058Y010700D01*
X027095Y010737D01*
X027169Y010737D02*
X027206Y010700D01*
X027279Y010700D01*
X027316Y010737D01*
X027316Y010773D01*
X027279Y010810D01*
X027242Y010810D01*
X027279Y010810D02*
X027316Y010847D01*
X027316Y010883D01*
X027279Y010920D01*
X027206Y010920D01*
X027169Y010883D01*
X027095Y010883D02*
X027058Y010920D01*
X026985Y010920D01*
X026948Y010883D01*
X028248Y010883D02*
X028248Y010737D01*
X028285Y010700D01*
X028358Y010700D01*
X028395Y010737D01*
X028469Y010700D02*
X028616Y010847D01*
X028616Y010883D01*
X028579Y010920D01*
X028506Y010920D01*
X028469Y010883D01*
X028395Y010883D02*
X028358Y010920D01*
X028285Y010920D01*
X028248Y010883D01*
X028469Y010700D02*
X028616Y010700D01*
X028616Y006120D02*
X028469Y006120D01*
X028469Y006010D01*
X028542Y006047D01*
X028579Y006047D01*
X028616Y006010D01*
X028616Y005937D01*
X028579Y005900D01*
X028506Y005900D01*
X028469Y005937D01*
X028395Y005937D02*
X028358Y005900D01*
X028285Y005900D01*
X028248Y005937D01*
X028248Y006083D01*
X028285Y006120D01*
X028358Y006120D01*
X028395Y006083D01*
X027216Y006010D02*
X027069Y006010D01*
X027179Y006120D01*
X027179Y005900D01*
X026995Y005937D02*
X026958Y005900D01*
X026885Y005900D01*
X026848Y005937D01*
X026848Y006083D01*
X026885Y006120D01*
X026958Y006120D01*
X026995Y006083D01*
X027027Y005020D02*
X027027Y004787D01*
X026980Y004740D01*
X026887Y004740D01*
X026840Y004787D01*
X026840Y005020D01*
X027116Y004974D02*
X027116Y004927D01*
X027163Y004880D01*
X027256Y004880D01*
X027303Y004833D01*
X027303Y004787D01*
X027256Y004740D01*
X027163Y004740D01*
X027116Y004787D01*
X027116Y004974D02*
X027163Y005020D01*
X027256Y005020D01*
X027303Y004974D01*
X027392Y005020D02*
X027533Y005020D01*
X027579Y004974D01*
X027579Y004927D01*
X027533Y004880D01*
X027392Y004880D01*
X027392Y004740D02*
X027392Y005020D01*
X027533Y004880D02*
X027579Y004833D01*
X027579Y004787D01*
X027533Y004740D01*
X027392Y004740D01*
X027669Y004880D02*
X027856Y004880D01*
X027945Y004740D02*
X027945Y005020D01*
X028038Y004927D01*
X028132Y005020D01*
X028132Y004740D01*
X028221Y004740D02*
X028315Y004740D01*
X028268Y004740D02*
X028268Y005020D01*
X028221Y005020D02*
X028315Y005020D01*
X028405Y004974D02*
X028405Y004787D01*
X028452Y004740D01*
X028545Y004740D01*
X028592Y004787D01*
X028682Y004833D02*
X028822Y004833D01*
X028868Y004880D01*
X028868Y004974D01*
X028822Y005020D01*
X028682Y005020D01*
X028682Y004740D01*
X028775Y004833D02*
X028868Y004740D01*
X028958Y004787D02*
X028958Y004974D01*
X029005Y005020D01*
X029098Y005020D01*
X029145Y004974D01*
X029145Y004787D01*
X029098Y004740D01*
X029005Y004740D01*
X028958Y004787D01*
X029234Y004740D02*
X029374Y004740D01*
X029421Y004787D01*
X029421Y004833D01*
X029374Y004880D01*
X029234Y004880D01*
X029234Y004740D02*
X029234Y005020D01*
X029374Y005020D01*
X029421Y004974D01*
X029421Y004927D01*
X029374Y004880D01*
X028592Y004974D02*
X028545Y005020D01*
X028452Y005020D01*
X028405Y004974D01*
X029753Y004132D02*
X029847Y004132D01*
X029800Y004132D02*
X029800Y003899D01*
X029753Y003852D01*
X029707Y003852D01*
X029660Y003899D01*
X029936Y003946D02*
X030076Y003946D01*
X030123Y003992D01*
X030123Y004086D01*
X030076Y004132D01*
X029936Y004132D01*
X029936Y003852D01*
X030213Y003899D02*
X030259Y003852D01*
X030353Y003852D01*
X030399Y003899D01*
X030399Y004086D01*
X030353Y004132D01*
X030259Y004132D01*
X030213Y004086D01*
X030213Y004039D01*
X030259Y003992D01*
X030399Y003992D01*
D14*
X004950Y003529D02*
X004875Y003454D01*
X004950Y003529D02*
X004950Y003604D01*
X004875Y003679D01*
X004500Y003679D01*
X004500Y003604D02*
X004500Y003754D01*
X004500Y003914D02*
X004500Y004139D01*
X004575Y004214D01*
X004725Y004214D01*
X004800Y004139D01*
X004800Y003914D01*
X004950Y003914D02*
X004500Y003914D01*
X004575Y004375D02*
X004500Y004450D01*
X004500Y004600D01*
X004575Y004675D01*
X004650Y004675D01*
X004950Y004375D01*
X004950Y004675D01*
X005535Y004721D02*
X005535Y004571D01*
X005610Y004496D01*
X005610Y004336D02*
X005760Y004336D01*
X005835Y004261D01*
X005835Y004035D01*
X005985Y004035D02*
X005535Y004035D01*
X005535Y004261D01*
X005610Y004336D01*
X005910Y004496D02*
X005985Y004571D01*
X005985Y004721D01*
X005910Y004796D01*
X005835Y004796D01*
X005760Y004721D01*
X005760Y004646D01*
X005760Y004721D02*
X005685Y004796D01*
X005610Y004796D01*
X005535Y004721D01*
X006825Y004175D02*
X006975Y004175D01*
X006900Y004175D02*
X006900Y003800D01*
X006825Y003725D01*
X006750Y003725D01*
X006675Y003800D01*
X007135Y003725D02*
X007135Y004175D01*
X007361Y004175D01*
X007436Y004100D01*
X007436Y003950D01*
X007361Y003875D01*
X007135Y003875D01*
X007596Y003950D02*
X007821Y004175D01*
X007821Y003725D01*
X007896Y003950D02*
X007596Y003950D01*
X005985Y003725D02*
X005910Y003800D01*
X005535Y003800D01*
X005535Y003725D02*
X005535Y003875D01*
X005985Y003725D02*
X005985Y003650D01*
X005910Y003575D01*
X010005Y007655D02*
X010185Y007655D01*
X010095Y007655D02*
X010095Y007925D01*
X010005Y007835D01*
X010300Y007880D02*
X010345Y007925D01*
X010435Y007925D01*
X010480Y007880D01*
X010300Y007700D01*
X010345Y007655D01*
X010435Y007655D01*
X010480Y007700D01*
X010480Y007880D01*
X010594Y007925D02*
X010594Y007655D01*
X010594Y007745D02*
X010774Y007925D01*
X010639Y007790D02*
X010774Y007655D01*
X010300Y007700D02*
X010300Y007880D01*
X010755Y008555D02*
X010755Y008825D01*
X010890Y008825D01*
X010935Y008780D01*
X010935Y008690D01*
X010890Y008645D01*
X010755Y008645D01*
X010845Y008645D02*
X010935Y008555D01*
X011050Y008555D02*
X011230Y008555D01*
X011140Y008555D02*
X011140Y008825D01*
X011050Y008735D01*
X005945Y011055D02*
X005645Y011055D01*
X005795Y011055D02*
X005795Y011505D01*
X005645Y011355D01*
X005484Y011280D02*
X005334Y011280D01*
X005484Y011280D02*
X005484Y011130D01*
X005409Y011055D01*
X005259Y011055D01*
X005184Y011130D01*
X005184Y011430D01*
X005259Y011505D01*
X005409Y011505D01*
X005484Y011430D01*
X005024Y011430D02*
X004949Y011505D01*
X004799Y011505D01*
X004724Y011430D01*
X004724Y011355D01*
X004799Y011280D01*
X004949Y011280D01*
X005024Y011205D01*
X005024Y011130D01*
X004949Y011055D01*
X004799Y011055D01*
X004724Y011130D01*
X010775Y016900D02*
X010850Y016825D01*
X010925Y016825D01*
X011000Y016900D01*
X011000Y017275D01*
X010925Y017275D02*
X011075Y017275D01*
X011235Y017275D02*
X011461Y017275D01*
X011536Y017200D01*
X011536Y017050D01*
X011461Y016975D01*
X011235Y016975D01*
X011235Y016825D02*
X011235Y017275D01*
X011696Y017275D02*
X011996Y017275D01*
X011996Y017200D01*
X011696Y016900D01*
X011696Y016825D01*
X016505Y016180D02*
X016550Y016225D01*
X016640Y016225D01*
X016685Y016180D01*
X016685Y016135D01*
X016640Y016090D01*
X016685Y016045D01*
X016685Y016000D01*
X016640Y015955D01*
X016550Y015955D01*
X016505Y016000D01*
X016595Y016090D02*
X016640Y016090D01*
X016800Y016000D02*
X016845Y015955D01*
X016935Y015955D01*
X016980Y016000D01*
X016980Y016045D01*
X016935Y016090D01*
X016890Y016090D01*
X016935Y016090D02*
X016980Y016135D01*
X016980Y016180D01*
X016935Y016225D01*
X016845Y016225D01*
X016800Y016180D01*
X017094Y016180D02*
X017094Y016000D01*
X017274Y016180D01*
X017274Y016000D01*
X017229Y015955D01*
X017139Y015955D01*
X017094Y016000D01*
X017094Y016180D02*
X017139Y016225D01*
X017229Y016225D01*
X017274Y016180D01*
X017190Y015425D02*
X017235Y015380D01*
X017235Y015290D01*
X017190Y015245D01*
X017055Y015245D01*
X017055Y015155D02*
X017055Y015425D01*
X017190Y015425D01*
X017145Y015245D02*
X017235Y015155D01*
X017350Y015290D02*
X017530Y015290D01*
X017485Y015155D02*
X017485Y015425D01*
X017350Y015290D01*
X022755Y017215D02*
X023055Y017215D01*
X023215Y017215D02*
X023516Y017215D01*
X023676Y017215D02*
X023901Y017215D01*
X023976Y017290D01*
X023976Y017590D01*
X023901Y017665D01*
X023676Y017665D01*
X023676Y017215D01*
X023366Y017440D02*
X023215Y017440D01*
X023215Y017665D02*
X023215Y017215D01*
X023215Y017665D02*
X023516Y017665D01*
X024136Y017590D02*
X024211Y017665D01*
X024361Y017665D01*
X024436Y017590D01*
X024436Y017515D01*
X024136Y017215D01*
X024436Y017215D01*
X022755Y017215D02*
X022755Y017665D01*
X023113Y012045D02*
X023113Y011595D01*
X023414Y011595D01*
X023574Y011595D02*
X023874Y011595D01*
X024034Y011595D02*
X024259Y011595D01*
X024334Y011670D01*
X024334Y011970D01*
X024259Y012045D01*
X024034Y012045D01*
X024034Y011595D01*
X023724Y011820D02*
X023574Y011820D01*
X023574Y012045D02*
X023574Y011595D01*
X023574Y012045D02*
X023874Y012045D01*
X024495Y011895D02*
X024645Y012045D01*
X024645Y011595D01*
X024495Y011595D02*
X024795Y011595D01*
X025300Y007891D02*
X025480Y007710D01*
X025525Y007755D01*
X025525Y007845D01*
X025480Y007891D01*
X025300Y007891D01*
X025255Y007845D01*
X025255Y007755D01*
X025300Y007710D01*
X025480Y007710D01*
X025480Y007596D02*
X025525Y007551D01*
X025525Y007461D01*
X025480Y007416D01*
X025480Y007301D02*
X025525Y007256D01*
X025525Y007166D01*
X025480Y007121D01*
X025390Y007211D02*
X025390Y007256D01*
X025435Y007301D01*
X025480Y007301D01*
X025390Y007256D02*
X025345Y007301D01*
X025300Y007301D01*
X025255Y007256D01*
X025255Y007166D01*
X025300Y007121D01*
X025300Y007416D02*
X025255Y007461D01*
X025255Y007551D01*
X025300Y007596D01*
X025345Y007596D01*
X025390Y007551D01*
X025435Y007596D01*
X025480Y007596D01*
X025390Y007551D02*
X025390Y007506D01*
X026035Y007485D02*
X026035Y007395D01*
X026080Y007350D01*
X026080Y007235D02*
X026035Y007190D01*
X026035Y007055D01*
X026305Y007055D01*
X026215Y007055D02*
X026215Y007190D01*
X026170Y007235D01*
X026080Y007235D01*
X026215Y007145D02*
X026305Y007235D01*
X026260Y007350D02*
X026305Y007395D01*
X026305Y007485D01*
X026260Y007530D01*
X026215Y007530D01*
X026170Y007485D01*
X026170Y007440D01*
X026170Y007485D02*
X026125Y007530D01*
X026080Y007530D01*
X026035Y007485D01*
X022505Y006680D02*
X022370Y006545D01*
X022415Y006500D02*
X022235Y006680D01*
X022235Y006500D02*
X022505Y006500D01*
X022505Y006385D02*
X022505Y006205D01*
X022325Y006385D01*
X022280Y006385D01*
X022235Y006340D01*
X022235Y006250D01*
X022280Y006205D01*
X021705Y006955D02*
X021435Y006955D01*
X021435Y007090D01*
X021480Y007135D01*
X021570Y007135D01*
X021615Y007090D01*
X021615Y006955D01*
X021615Y007045D02*
X021705Y007135D01*
X021705Y007250D02*
X021525Y007430D01*
X021480Y007430D01*
X021435Y007385D01*
X021435Y007295D01*
X021480Y007250D01*
X021705Y007250D02*
X021705Y007430D01*
X021825Y004275D02*
X021975Y004275D01*
X021900Y004275D02*
X021900Y003900D01*
X021825Y003825D01*
X021750Y003825D01*
X021675Y003900D01*
X022135Y003825D02*
X022135Y004275D01*
X022361Y004275D01*
X022436Y004200D01*
X022436Y004050D01*
X022361Y003975D01*
X022135Y003975D01*
X022596Y003900D02*
X022671Y003825D01*
X022821Y003825D01*
X022896Y003900D01*
X022896Y003975D01*
X022821Y004050D01*
X022596Y004050D01*
X022596Y003900D01*
X022596Y004050D02*
X022746Y004200D01*
X022896Y004275D01*
X016596Y004275D02*
X016296Y004275D01*
X016296Y004050D01*
X016446Y004125D01*
X016521Y004125D01*
X016596Y004050D01*
X016596Y003900D01*
X016521Y003825D01*
X016371Y003825D01*
X016296Y003900D01*
X016136Y004050D02*
X016061Y003975D01*
X015835Y003975D01*
X015835Y003825D02*
X015835Y004275D01*
X016061Y004275D01*
X016136Y004200D01*
X016136Y004050D01*
X015675Y004275D02*
X015525Y004275D01*
X015600Y004275D02*
X015600Y003900D01*
X015525Y003825D01*
X015450Y003825D01*
X015375Y003900D01*
D15*
X016730Y005180D02*
X019030Y005180D01*
X019089Y005182D01*
X019147Y005188D01*
X019206Y005197D01*
X019263Y005211D01*
X019319Y005228D01*
X019374Y005249D01*
X019428Y005273D01*
X019480Y005301D01*
X019530Y005332D01*
X019578Y005366D01*
X019623Y005403D01*
X019666Y005444D01*
X019707Y005487D01*
X019744Y005532D01*
X019778Y005580D01*
X019809Y005630D01*
X019837Y005682D01*
X019861Y005736D01*
X019882Y005791D01*
X019899Y005847D01*
X019913Y005904D01*
X019922Y005963D01*
X019928Y006021D01*
X019930Y006080D01*
X019928Y006139D01*
X019922Y006197D01*
X019913Y006256D01*
X019899Y006313D01*
X019882Y006369D01*
X019861Y006424D01*
X019837Y006478D01*
X019809Y006530D01*
X019778Y006580D01*
X019744Y006628D01*
X019707Y006673D01*
X019666Y006716D01*
X019623Y006757D01*
X019578Y006794D01*
X019530Y006828D01*
X019480Y006859D01*
X019428Y006887D01*
X019374Y006911D01*
X019319Y006932D01*
X019263Y006949D01*
X019206Y006963D01*
X019147Y006972D01*
X019089Y006978D01*
X019030Y006980D01*
X016730Y006980D01*
X016671Y006978D01*
X016613Y006972D01*
X016554Y006963D01*
X016497Y006949D01*
X016441Y006932D01*
X016386Y006911D01*
X016332Y006887D01*
X016280Y006859D01*
X016230Y006828D01*
X016182Y006794D01*
X016137Y006757D01*
X016094Y006716D01*
X016053Y006673D01*
X016016Y006628D01*
X015982Y006580D01*
X015951Y006530D01*
X015923Y006478D01*
X015899Y006424D01*
X015878Y006369D01*
X015861Y006313D01*
X015847Y006256D01*
X015838Y006197D01*
X015832Y006139D01*
X015830Y006080D01*
X015832Y006021D01*
X015838Y005963D01*
X015847Y005904D01*
X015861Y005847D01*
X015878Y005791D01*
X015899Y005736D01*
X015923Y005682D01*
X015951Y005630D01*
X015982Y005580D01*
X016016Y005532D01*
X016053Y005487D01*
X016094Y005444D01*
X016137Y005403D01*
X016182Y005366D01*
X016230Y005332D01*
X016280Y005301D01*
X016332Y005273D01*
X016386Y005249D01*
X016441Y005228D01*
X016497Y005211D01*
X016554Y005197D01*
X016613Y005188D01*
X016671Y005182D01*
X016730Y005180D01*
M02*
